<svg xmlns="http://www.w3.org/2000/svg" viewBox="0 0 290 212"><defs><style>.a{fill:#cec5bb;}</style></defs><path class="a" d="M5.61,205.77c0,1.45-.25,3.8,1.36,4.42v.09H.87v-.09c1.65-.58,1.45-3,1.45-4.42V193.62c0-1.49.2-3.84-1.45-4.45v-.1H11.19a3.39,3.39,0,0,0,1.52-.16h.09v3.74h-.09c-1-1.13-2.32-1.26-3.81-1.26a17.65,17.65,0,0,0-3.29.23v6H9.48a3.28,3.28,0,0,0,1.39-.19H11v3.42h-.1c-.52-1-1.87-.91-2.87-.91H5.61Z"/><path class="a" d="M17.51,193.62c0-1.49.23-3.84-1.42-4.45v-.1h6.13v.1c-1.61.61-1.42,3-1.42,4.45v12.15c0,1.45-.19,3.8,1.42,4.42v.09H16.09v-.09c1.61-.58,1.42-3,1.42-4.42Z"/><path class="a" d="M29,206.09c0,1.81,0,3.1,1.68,4.1v.09H25v-.09c1.71-1,1.71-2.29,1.71-4.1V193.23c0-1.81,0-3.1-1.68-4.06v-.1h4.71v0a2.08,2.08,0,0,0,.48.81l.45.64,11.8,14.9V193.23c0-1.81,0-3.1-1.67-4.06v-.1h5.67v.1c-1.67,1-1.67,2.25-1.67,4.06v18.09a8.94,8.94,0,0,1-4.71-3.68L29,193.62Z"/><path class="a" d="M54.26,202.32l-1.67,4.55c-.68,1.8-.91,2.74.64,3.32v.09H47.3v-.09c1.87-.94,2.42-2.74,3.13-4.58l5.38-13.45c.45-1.16,1.07-2.51-.48-3v-.1h5.09l6.71,16.54c.74,1.84,1.32,3.64,3.16,4.58v.09H63.68v-.09c1.58-.71,1.32-1.07.45-3.32l-1.74-4.55Zm4-10.51-3.19,8.12h6.35Z"/><path class="a" d="M76.25,206.09c0,1.81,0,3.1,1.68,4.1v.09H72.22v-.09c1.71-1,1.71-2.29,1.71-4.1V193.23c0-1.81,0-3.1-1.68-4.06v-.1H77v0a2.08,2.08,0,0,0,.48.81l.46.64,11.8,14.9V193.23c0-1.81,0-3.1-1.68-4.06v-.1h5.67v.1c-1.67,1-1.67,2.25-1.67,4.06v18.09a8.94,8.94,0,0,1-4.71-3.68l-11.06-14Z"/><path class="a" d="M113.17,193.07a11.22,11.22,0,0,0-6-1.84c-4.45,0-7.54,3.26-7.54,7.93s3.22,9,8.19,9a14.18,14.18,0,0,0,6.86-2h.1l-1.64,3.74a11.43,11.43,0,0,1-4.87,1c-7.61,0-12.32-4.26-12.32-11.16,0-6.67,4.71-11.09,11.32-11.09a25.87,25.87,0,0,1,5.87.81Z"/><path class="a" d="M118.9,193.62c0-1.49.23-3.84-1.41-4.45v-.1h6.12v.1c-1.61.61-1.42,3-1.42,4.45v12.15c0,1.45-.19,3.8,1.42,4.42v.09h-6.12v-.09c1.61-.58,1.41-3,1.41-4.42Z"/><path class="a" d="M131.8,202.32l-1.68,4.55c-.67,1.8-.9,2.74.65,3.32v.09h-5.93v-.09c1.87-.94,2.41-2.74,3.12-4.58l5.39-13.45c.45-1.16,1.06-2.51-.49-3v-.1H138l6.71,16.54c.74,1.84,1.32,3.64,3.15,4.58v.09h-6.6v-.09c1.58-.71,1.32-1.07.45-3.32l-1.74-4.55Zm4-10.51-3.19,8.12H139Z"/><path class="a" d="M160,208a8,8,0,0,0,5.71-2h.09l-1.67,4.28H150.89v-.09c1.64-.58,1.45-3,1.45-4.42V193.62c0-1.49.19-3.84-1.45-4.45v-.1H157v.1c-1.64.61-1.42,3-1.42,4.45v14Z"/><path class="a" d="M195.64,192.81h-.1c-1.32-1.48-3.77-1.94-5.74-1.94-5,0-8.87,3.29-8.87,8.48a9.09,9.09,0,0,0,9.23,9.13,16.68,16.68,0,0,0,4.48-.61v-4.65c0-1.48,0-3.06-1.49-3.64v-.1h4.94v.1a3.64,3.64,0,0,0-.17,1.39v7.41a3.53,3.53,0,0,0,.17,1.45,41.18,41.18,0,0,1-7.71,1c-8.25,0-13.12-4.51-13.12-11,0-6.94,5.51-11.26,13.31-11.26a24.75,24.75,0,0,1,5.07.55Z"/><path class="a" d="M209.05,189.07c4.32,0,6.67,2.26,6.67,5.19s-2.48,5.06-5.13,5.67l4.65,5.84a22.36,22.36,0,0,0,5.22,4.51h-3a4.23,4.23,0,0,1-3.74-1.61l-3.93-4.87-3-4.54c2.58-.39,5.58-1.58,5.58-4.61,0-2.33-2-3.68-4.16-3.58a16.34,16.34,0,0,0-2.19.26v14.44c0,1.48-.19,3.84,1.45,4.42v.09h-6.16v-.09c1.65-.58,1.42-3,1.42-4.42V193.62c0-1.49.23-3.84-1.42-4.45v-.1Z"/><path class="a" d="M241.9,199.45c0,6.58-5.45,11.35-11.87,11.35s-11.76-4.58-11.76-11.19c0-6.12,5.32-11.25,12.09-11.09A11.13,11.13,0,0,1,241.9,199.45Zm-20-.13c0,4.52,3.19,9.16,8.26,9.16,4.9,0,8-3.58,8-8.38s-3-9.26-8.09-9.26S221.94,194.45,221.94,199.32Z"/><path class="a" d="M260.28,208.16c-1.42,1.87-4.07,2.64-6.32,2.64a7.93,7.93,0,0,1-5.84-2.26c-1.71-1.87-1.64-4-1.64-6.35v-8.61c0-1.45.22-3.8-1.42-4.41v-.1h6.12v.1c-1.61.61-1.41,3-1.41,4.41v8.61c0,4.29,1.8,6.29,5.12,6.29a5.69,5.69,0,0,0,4.71-2.26,4.24,4.24,0,0,0,.68-2.93v-9.71c0-1.45.19-3.8-1.42-4.41v-.1H265l0,.1c-1.65.61-1.46,3-1.46,4.45v12.15c0,1.45-.19,3.8,1.46,4.42v.09h-4.74Z"/><path class="a" d="M276.46,189.07c4.19,0,7.38,2,7.38,5.64s-3.45,6.06-7.09,6.06a5.27,5.27,0,0,1-2.35-.45c2.77-.16,5.77-1.87,5.77-5,0-2.84-2-4-4.58-4a13,13,0,0,0-2.26.19v14.54c0,1.81,0,3.1,1.68,4.07v.09h-6.42v-.09c1.65-.58,1.45-3,1.45-4.42V193.62c0-1.46.2-3.81-1.41-4.45v-.1Z"/><path class="a" d="M5.24,130c0-4.29.65-11.11-4.11-12.51v-.28H24c21.29,0,34.54,11.58,34.54,30.15,0,18.39-14.09,31.28-35,31.28H1.13v-.28c4.67-3.18,4.11-7.66,4.11-13.16Zm9.52,41.26a32.87,32.87,0,0,0,6.82.66c13.91,0,26.32-7.29,26.32-23.44,0-16.33-9.15-24.55-24.74-24.55a37.12,37.12,0,0,0-8.4,1Z"/><path class="a" d="M96.17,135.65c2.42,0,5.32.37,7-1.22h.28v34c0,4.3-.56,7.75,3.55,9.9v.28H95v-6.07c-3.36,5.13-6.91,7.28-13.44,7.28-11,0-16.24-6.25-16.24-19.42V146c0-4.3.56-7.75-3.55-10.08v-.28h6.07c2,0,4.38-.1,5.69-1.22h.28V158.8c0,8.59,2.43,13.91,10.55,13.91,6.16,0,10.64-5,10.64-12.23V146.1c0-4.39.56-7.75-3.55-10.17v-.28Z"/><path class="a" d="M114.46,135.65a12.33,12.33,0,0,0,6.26-1.22H121v7.19c3.27-4.48,7.09-7.19,13.16-7.19,5.23,0,11.2,2.06,14.19,6.44,2.61,3.74,2.33,9.53,2.33,13.91v13.54c0,4.29-.56,7.65,3.55,10v.28H138.64v-.28c4.11-2.34,3.55-5.79,3.55-10v-12.6c0-10-2.8-15.13-11.3-15.13S121,146.29,121,151.8v16.52c0,4.29-.56,7.65,3.55,10v.28H109v-.28c4.1-2.34,3.54-5.79,3.54-10.08V146c0-4.3.56-7.75-3.54-10.08v-.28Z"/><path class="a" d="M191.29,145.17H191c-2.7-3.08-7.18-4.58-11.39-4.58-9.05,0-15.59,6.35-15.59,15.22,0,10.73,9.06,17.83,19.42,17.83a24.17,24.17,0,0,0,13.63-4.57h.28l-4.85,8.86a34.58,34.58,0,0,1-12.33,1.87c-14.37,0-25.57-9.43-25.57-21.56,0-16.06,12.51-23.81,26.6-23.81a46.07,46.07,0,0,1,10.08,1.12Z"/><path class="a" d="M238.44,179.8c-6.16-.37-12.33-2.24-12.33-9.71V155.34a40.33,40.33,0,0,1-9,2.9c-4.48,1-9.52,2-9.52,7.75s5.23,7.65,10.18,7.65a24.24,24.24,0,0,0,6.72-1.31l-5.51,7a27.56,27.56,0,0,1-4.85.47c-9.43,0-16-6-16-13.72,0-17.37,27.91-9.34,27.91-19.51,0-4.48-5.5-6-9-6-4.76,0-8.49,1.78-12.69,3.74l6.25-9.34,6.07-.56c10.08,0,17.74,2.9,17.83,14.19v14c0,7.38.19,10.18,7.93,11Z"/><path class="a" d="M248.33,135.65a12.33,12.33,0,0,0,6.26-1.22h.28v7.19c3.27-4.48,7.09-7.19,13.16-7.19,5.23,0,11.2,2.06,14.19,6.44,2.61,3.74,2.33,9.53,2.33,13.91v13.54c0,4.29-.56,7.65,3.55,10v.28H272.51v-.28c4.11-2.34,3.55-5.79,3.55-10v-12.6c0-10-2.8-15.13-11.3-15.13s-9.89,5.7-9.89,11.21v16.52c0,4.29-.56,7.65,3.55,10v.28H242.83v-.28c4.1-2.34,3.54-5.79,3.54-10.08V146c0-4.3.56-7.75-3.54-10.08v-.28Z"/><path class="a" d="M139.61,22.67c0,1.27-.89,2-1.68,2.78-5.71,5.72-11.48,11.39-17.13,17.18-2,2-3.64,2.07-5.65,0Q106.66,34,98,25.49c-2.22-2.15-2.07-3.87.06-5.95q8.55-8.35,16.9-16.89c2.09-2.12,3.92-2.17,6,0,5.67,5.77,11.42,11.46,17.14,17.18C138.9,20.6,139.7,21.4,139.61,22.67Z"/><path class="a" d="M91,71.24A3.38,3.38,0,0,1,88.43,70q-8.85-8.84-17.7-17.68c-1.86-1.85-1.83-3.61,0-5.46q8.73-8.69,17.41-17.42c1.85-1.87,3.49-2,5.4-.06q8.78,8.91,17.68,17.69c1.61,1.59,1.91,3.14.23,4.83Q102.4,61,93.28,70.08A3.09,3.09,0,0,1,91,71.24Z"/><path class="a" d="M139.61,76.3a3.46,3.46,0,0,1-1.25,2.82c-5.9,5.9-11.81,11.78-17.69,17.7-1.86,1.87-3.58,1.84-5.45,0Q106.55,88,97.79,79.36c-1.87-1.85-2-3.49-.05-5.4,6-5.85,11.83-11.76,17.7-17.68,1.6-1.61,3.12-1.93,4.81-.23l18.23,18.21A2.87,2.87,0,0,1,139.61,76.3Z"/><path class="a" d="M166.52,49.58c.06,1.26-.76,2-1.56,2.84-5.71,5.71-11.46,11.4-17.13,17.16-2,2-3.66,2-5.67,0Q133.69,60.9,125,52.43c-2-2-2.07-3.66,0-5.67q8.66-8.49,17.15-17.14c2-2,3.66-2.1,5.68,0C153.49,35.35,159.24,41,165,46.74,165.75,47.54,166.58,48.31,166.52,49.58Z"/><path class="a" d="M220.73,49.22a4.52,4.52,0,0,1-1.63,3.13c-5.71,5.7-11.46,11.37-17.11,17.13-2.14,2.18-3.86,2-6-.13q-8.17-8.41-16.59-16.6c-2.25-2.18-2.44-4-.11-6.25,5.7-5.54,11.3-11.18,16.87-16.85,1.8-1.83,3.46-2.27,5.4-.32,6,6,12,11.93,17.9,17.93A9.66,9.66,0,0,1,220.73,49.22Z"/><path class="a" d="M172.12,55a4.72,4.72,0,0,1,2.77,1.75c5.64,5.63,11.24,11.3,16.92,16.88,2.12,2.08,2.24,3.88.06,6Q183.34,88,175,96.5c-2.16,2.21-3.91,2-6-.1q-8.22-8.4-16.64-16.63c-2.31-2.25-2.23-4.09,0-6.3,5.7-5.57,11.29-11.24,16.93-16.87A4.22,4.22,0,0,1,172.12,55Z"/><path class="a" d="M172.13,1.07A4.22,4.22,0,0,1,175,2.69C180.6,8.31,186.19,14,191.88,19.55c2.17,2.13,2.06,3.94-.06,6-5.68,5.57-11.34,11.18-16.88,16.89-2.18,2.24-3.84,2-5.92-.12-5.46-5.62-11-11.13-16.61-16.63-2-2-2.61-3.78-.34-6C157.83,14,163.52,8.28,169.24,2.58A3.9,3.9,0,0,1,172.13,1.07Z"/></svg>