<svg xmlns="http://www.w3.org/2000/svg" viewBox="0 0 670.65 952.93"><defs><style>.cls-1{fill:#444c5b}</style></defs><g id="Layer_2" data-name="Layer 2"><g id="Layer_1-2" data-name="Layer 1"><g id="modified_hair" data-name="modified hair"><path class="cls-1" d="M388 254.54c-1.18 0 0-4.71 0-4.71l.19-.11c2 0 3.89-.17 5.68-.26 7.44-.37 15.08-1.6 21.82-4.86 10-4.88 20.25-15.12 19.58-27.09a.26.26 0 0 0-.48-.11c-.31.65-.67 1.24-1 1.86-6.32 5.32-9.71 11.23-18.38 13.45a46 46 0 0 1-12 1.17 63.91 63.91 0 0 0 8.28-17.8c2.14-3.89 3.43-8.49 4.6-12.31a92.09 92.09 0 0 0 4-26.9 77 77 0 0 0-4.65-26.57c-3.56-10-7.34-21.24 2.46-28.93a.34.34 0 0 0-.19-.63c-5.72-.09-9.31 4.67-10.74 9.81a22.18 22.18 0 0 0-2.08 8c-.45 5.66 1.07 11.24 1.35 16.86-.35-.86-.72-1.74-1.09-2.61a102.18 102.18 0 0 0-5.26-11.94c-3.19-6.35-6.74-13.5-11.38-19.35a102.37 102.37 0 0 0-16-27 76.86 76.86 0 0 0-4.88-7.82c-7-9.94-16.66-17.31-25.3-25.71-7.18-6.98-17.42-21.49-7.53-30.63a14.19 14.19 0 0 1 16-1.9c5.66 3.13 6.59 8.66 8.79 14.1a.18.18 0 0 0 .32.07c3-3.91 1.69-10.22-.49-14.24a19.55 19.55 0 0 0-15-10c-14.24-1.49-24.61 11.84-23.11 25.26A34.75 34.75 0 0 0 329 61.36q-2.91-1.37-5.85-2.6a156.73 156.73 0 0 0-22.34-7.3c-4.91-1.21-9.77-2.61-14.54-2.25-27.27-17.63-59.85-25.94-93-25.4-3.93-.67-7.84-1.39-11.73-2.27-10.56-2.44-28.43-6-26.06-20.72a.64.64 0 0 0-1.08-.56c-9.31 10.93 5.56 21.84 14.76 25a8.46 8.46 0 0 1 .8.28 206.57 206.57 0 0 0-53 14.39 127.81 127.81 0 0 0-13.84 5.23c-10.31 4.4-20.34 9.48-30.86 13.41-20 7.5-41.22 8.15-58.5-5.87a.71.71 0 0 0-1.08.9C22 69.32 42 72.35 59.07 70.1c-1.86 1.55-3.65 3.15-5.45 4.77C46.11 81.64 38.85 89 30.27 94.43A60.71 60.71 0 0 1 16 101.38C10.8 103 5.66 102.87.39 103.8c-.35.07-.58.61-.17.8 7.47 3.29 17.48.61 24.78-2.09a67.48 67.48 0 0 0 7.93-3.62c-19.86 29.25-28.41 69-27.31 103.25a166.5 166.5 0 0 0 11.93 57.24c4.2 10.36 9.73 23.13 17.49 32.8.21 1.12.43 2.23.72 3.34a195.17 195.17 0 0 0 8 29.17c4.73 13.13 11.19 25.3 18 37.44a85.15 85.15 0 0 1 4.89 21.69c.69 8.95.17 19.7-8.23 25.13-4.26 2.76-9.79 3-13.72-.41-2.27-2-3.94-4.89-3.35-8.06 1-5.53 9-7.61 11.08-1.23.17.54.91.34.93-.18a6.66 6.66 0 0 0-7.76-7.23c-4.94.67-8.27 5.61-8.23 10.39a12.63 12.63 0 0 0 4.88 10.24c4.84 5.16 13.68 6.61 20.18 3.11 7.89-4.23 13-13.65 13.53-22.9a64.59 64.59 0 0 1 2.5 12.83 78 78 0 0 1 .35 7.95c-1 8.69-4.3 16.66-13.72 19.53-10.27 3.13-19.61-1.2-27.44-7.39a47 47 0 0 1-6.41-7.41c-.09-.19-.44-.08-.41.16 1.35 12.3 9.08 25.26 20.73 30.14-7.91-2.31-16.39-8.59-20.08-12.06a85.26 85.26 0 0 1-20.39-29.13c-.24-.58-1.16-.38-1 .27 0 .14.09.29.13.44-.17 0-3.88 8.92-4.48 13.48-2.63 14 3.92 30.7 11.39 41.47 4.13 6 10.31 13.61 17.44 18.62-4.1-.13-8.19 0-12.29-.06a65.79 65.79 0 0 0-8.88 0c-.73.09-1.17.46-.93 1.83.17.43.32.89.5 1.34 3.19 6.74 10.37 11.43 17.08 14a60.63 60.63 0 0 0 32.52 3 55.92 55.92 0 0 0 16.18-5.46c-.3.34-.6.69-.93 1C73.31 502 68.64 506.54 63 510c-2.12 1.32-12.77 6.12-12.87 6.16 1.08.39 3.43 1.21 3.54 1.17a93.92 93.92 0 0 0 47.87 3.22c25.76-5.21 42.22-21.43 51.21-42.33a23.14 23.14 0 0 0 2.57 5.86c4.21 6.8 14.06 11.25 21 5.51 4.66-3.87 5.31-10.68.95-14.87a.3.3 0 0 0-.45.39 6.93 6.93 0 0 1-6 10.74 11.09 11.09 0 0 1-8.92-5c-4.52-6.72-2.7-15.73-2-23.23.37-3.78.63-7.6.71-11.45.15-1.73.31-3.46.39-5.21 4.67-2.48 8.64-7.49 11.28-11.27a58.09 58.09 0 0 0 9.55-24.74c2.92-20-3.72-39.6-10.59-58.14-2.35-6.37-4.88-12.94-7-19.64a80.06 80.06 0 0 0 5.36 9.14c6.39 9.31 18.71 18.71 28.88 8.47 6.2-6.24 5.12-21.5-5.74-22-.2 0-.28.26-.13.39 3.67 3.37 7.08 6.61 6.2 12.15-.93 5.92-7.5 9.18-12.94 7.08-8.19-3.17-13.08-16.72-15.88-24.15-3.85-10.22-7.93-25.58-5.53-38.11a26.79 26.79 0 0 0 3.86-2.55 29.85 29.85 0 0 1 15.08-3.16c11.22.56 19.77 6.61 28.46 13.16 8.85 6.7 18.19 11.65 29.38 12.83a49.48 49.48 0 0 0 10.26 0c-22.51 23.25-48.72 60.88-56.26 114.55-8.07 57.41 8.32 106.26 23.48 137.13 15 30.46 31.39 49.54 34.8 53.34l.38.46c21.94 30.13 31.1 46.84 20.55 69.49-8.69 18.63-30 58.44-48.89 93.56l-6 11.2c-16.49 8.85-28.56 29.9-33.22 47.16-1.25 4.57-2.6 11.31-2 17.61a29.53 29.53 0 0 0 .26 6.21 41.87 41.87 0 0 0 1 4.48l.24.73a34.33 34.33 0 0 0 2.9 5.67 37.33 37.33 0 0 0 26.76 16.66 45.16 45.16 0 0 0 7.31.26c10.35-.46 20.54-4.19 28.73-7.19l3-1.09a127.19 127.19 0 0 0 12.62-5c4-1.45 7.92-2.94 11.81-4.42l4.85-1.85c15.14-5.76 30.74-11.66 46.72-14.51a67.87 67.87 0 0 1 7.18-.44 280.73 280.73 0 0 1 51.56 4.5c27 7.26 54 20.07 82.16 38.94 3.42 2.3 6.82 4.64 10.31 7.07q4.1 3.28 8.17 6.59c10 8.06 20.25 16.39 31.12 24.24.88.63 2.1 1.6 3.61 2.78 15.42 12.05 33.19 24.37 48.11 24.37h1.15a22.53 22.53 0 0 0 5.14-.81c6.51-1.84 11.12-4.56 14.51-8.53a20.57 20.57 0 0 0 1.61-1.93 23.46 23.46 0 0 0 2.56-4.5 36.49 36.49 0 0 0 4.68-10.87c9.24-33.29-22.78-98.56-47-118.74-21.22-41.81-52.41-85.54-61.52-96.81-7.48-9.32-6.67-12.72-6.64-12.86.39-1.43 3.45-3.25 9.1-5.42l2.53-1a175.22 175.22 0 0 1 20.61-6.85c6.73-1.33 13-2.82 18.83-4.45q6.63 3.68 13.21 7.28l13.34 7.35 3.3-8.88a51.19 51.19 0 0 0 .6-32.87c2.75-3.78 5.82-7.83 9.31-12.42 24.4-32.19 61.16-80.67 82-162.38 10.34-11.86 11.68-27.95 10-36.06l-1.89-9.11-8.8 3.05a212.69 212.69 0 0 1-28 7.2c-6.63-9.14-24.17-34.49-35.65-51.22-3.91-25.43-18.72-54.61-39.77-78.29-18.11-20.37-49.09-46.18-93.85-53.48 0 0-36.21-7.82-74.1-5.81M16.16 186.7c.3-1.47.63-2.94 1-4.36a76.55 76.55 0 0 1 5.57-14c5.08-9.74 12.51-17.52 21.37-24 .28-.2.06-.69-.26-.54-9.92 4.41-18.15 11.79-24.46 20.59a157.77 157.77 0 0 1 5.66-19.62c1.8-1.9 3.42-4 5.23-5.83a75 75 0 0 1 11.34-9.38 78.56 78.56 0 0 1 26.84-11c.3-.06.19-.56-.09-.54a70.94 70.94 0 0 0-28.26 9.27 96.43 96.43 0 0 0-10.93 7.19 155.67 155.67 0 0 1 9-17.45c2-3.37 4.24-6.68 6.53-9.88 2.11-1.64 4.21-3.3 6.44-4.73A64.65 64.65 0 0 1 67.3 95a63 63 0 0 1 18.41-2.8c6.18 0 11.81 1.79 17.86 2.53a.32.32 0 0 0 .22-.58c-10.2-6.88-26.55-6.44-38.05-3.94A69.68 69.68 0 0 0 56.22 93c3.22-3.56 6.56-7 10.09-10.26q1.77-1.65 3.63-3.24c1.72-1.3 3.45-2.68 5.27-4.11.3-.21.6-.43.9-.67 1.75-1.08 3.5-2.13 5.32-3a126.06 126.06 0 0 1 23.72-8.88c8.28-2.29 16.51-4.54 25.15-4.75a132.33 132.33 0 0 1 27.7 2.22c.26 0 .41-.34.18-.43a104.28 104.28 0 0 0-45.05-6.7 114 114 0 0 1 25.45-6.61 123.38 123.38 0 0 1 32.8-.43c10.24 1.36 20.11 4.49 29.81 8 .37.13.5-.41.22-.58-15-9.47-34-14-52.11-14.37a203.31 203.31 0 0 1 25-4.9c8 2.2 17.13 2.13 25.1 3.93a143.5 143.5 0 0 1 29.66 10.35c20.14 9.57 36.67 23.74 50.47 41a.4.4 0 0 0 .67-.44c-10-20.41-27.52-37.14-47.14-48.2a114.53 114.53 0 0 0-15.66-7.34 157.47 157.47 0 0 1 38.13 8.73c2.38 1.34 4.73 2.7 7 4.19a158.69 158.69 0 0 1 21.8 17.22c13.76 12.83 24.13 28 32.58 44.74.13.24.5 0 .41-.2-5.85-17.69-16.48-33.91-29.16-47.5-1-1.13-2.1-2.19-3.16-3.24 1.06.67 2.21 1.4 3.52 2.31A148.74 148.74 0 0 1 317.16 87c13.63 16.86 22.66 35.28 29.7 55.7.22.67 1.34.5 1.26-.24-2.92-23.93-15-47.57-30.51-65.78a140.25 140.25 0 0 0-12.75-13.14 135.21 135.21 0 0 1 18.5 6.89c25.43 11.67 47.42 31.68 57.64 58.14a106.47 106.47 0 0 1 7.5 40.7c-.37 14.54-4.82 27.85-11.52 40.64a.32.32 0 0 0 .52.35c10.93-12.25 16.31-28.95 17.78-45.07a94.06 94.06 0 0 0 .11-15.19c3.84 9.38 7.38 18.31 8.63 28.48a93.86 93.86 0 0 1-1.11 29 60.9 60.9 0 0 1-3 10.37 54.53 54.53 0 0 1-10.28 12.53 53.8 53.8 0 0 1-11.56 7.82c1.47-1.49 2.88-3 4.13-4.52 8.08-9.7 14.8-22.55 13.74-35.52a.4.4 0 0 0-.78-.06c-4.08 11.88-8.45 23.42-18.56 31.54a54.63 54.63 0 0 1-12.92 7.39c4.43-5.08 9.38-9.57 13.87-14.56a.76.76 0 0 0-.77-1.23c-7.33 1.9-14.31 6.22-20.31 10.84.93-1.62 1.86-3.26 2.72-4.9 6.27-12 12.81-23.92 18.82-36a.14.14 0 0 0-.22-.15c-4.62 5.6-8.6 11.69-13.29 17.22-4.23 5-8.4 10.05-12.42 15.21-2.18 2.79-4.23 5.66-6.22 8.58.52-2.85 1.1-5.66 1.79-8.45.48-1.9 1-3.74 1.6-5.57a139.45 139.45 0 0 1 8.2-14.02c5.9-9.22 13.07-19.44 12.66-30.87a63.57 63.57 0 0 0 .28-9.05c-.3-7.48-1.14-15.9-3.61-23.18a69.52 69.52 0 0 0-6-16c-.07-.13-.26 0-.22.11 1.54 6.54 3.2 13.11 4.19 19.76 0 .15 0 .28.05.44.1 5 .56 10.11.28 15.14-.41 7.28-1.77 15-5 21.56a40.8 40.8 0 0 1-9.48 12.71 42.25 42.25 0 0 0 1.94-12.45 37 37 0 0 0-2.33-13c-1.1-3.18-2.27-7.22-5.12-9.23-1.17-1.94-2.4-3.85-3.67-5.7-.17-.22-.56-.07-.46.21a86.54 86.54 0 0 0 4.22 9.9 32.51 32.51 0 0 1 1.32 6.22 43 43 0 0 1-1 11 35.8 35.8 0 0 1-3.2 8.77 73.25 73.25 0 0 0-3.59-9.13 60.29 60.29 0 0 0-3.93-11 69.78 69.78 0 0 0-5.72-9.74 52.91 52.91 0 0 1-3.22-13.74c.11-1.71.26-3.42.43-5.12.3-1.28.52-2.55.73-3.83a23.46 23.46 0 0 0 .78-6.65c.59-7.3-.34-14.37-4.3-20.61-.17-.26-.67-.15-.6.19a56.48 56.48 0 0 1-.05 20.25 32.71 32.71 0 0 1-7.83 11.17c-.09-.11-.2-.22-.29-.35a4.87 4.87 0 0 0 .89-3.06c-2-20.18-10.85-42.78-27.2-55.7a.42.42 0 0 0-.63.54c5 8.68 10.18 17 13.23 26.66a97.19 97.19 0 0 1 3.52 15.86c-.78-.56-1.54-1.13-2.34-1.67-.73-1.6-1.51-3.15-2.22-4.62-3.59-7.48-7.8-15.94-13.16-22.3a.27.27 0 0 0-.47.24c1.36 6.63 3.76 13.4 6 20-.75-.56-1.51-1.12-2.24-1.72a163 163 0 0 1-13.9-12.9c-4-4.11-7.56-8.54-11.1-13-1.15-1.49-2.31-3-3.52-4.41a157.25 157.25 0 0 0-10.67-12.42.15.15 0 0 0-.22.19l.58 1c-.58-.57-1.14-1.13-1.75-1.69-14.36-13.52-32.73-24.76-52-29.47-.28-.06-.43.35-.17.46 18.23 8.36 34.33 18.73 48.11 33.42a127.19 127.19 0 0 1 17.81 24.26c.23.43.49.87.73 1.32-.5-.33-1-.65-1.45-1-1.25-.89-2.46-1.8-3.67-2.75-1.3-1.64-2.68-3.2-3.95-4.67-5.3-6.13-11.28-12.5-17.74-17.41a.32.32 0 0 0-.48.41c3.61 7 8 13.85 12.06 20.7-3-1-5.92-1.84-8.88-2.64-.54-.3-1.1-.58-1.64-.9a110.74 110.74 0 0 1-13.38-10l-.67-.78a73 73 0 0 0-12.63-11.51A79.66 79.66 0 0 0 181.18 59a.05.05 0 0 0-.05.09 87.88 87.88 0 0 1 27.72 17.37 95.3 95.3 0 0 1 11 12c.43.57.84 1.17 1.25 1.77-.34-.08-.67-.17-1-.23-.6-.15-1.21-.26-1.84-.39-2.59-1.34-5-2.88-7.49-4.45a55 55 0 0 0-4.89-4.63c-4.34-3.75-9.39-7.73-15.1-9a.4.4 0 0 0-.36.67c4.34 4.19 9.11 7.49 12.48 12.63a20.28 20.28 0 0 1 1.26 2.25c-5-.67-10-1.1-15-1.34-2.18-3.5-7.73-5.64-11-7.43a85 85 0 0 0-18.41-7.74c-12.31-3.37-27.57-6.37-40.25-3.67-.06 0 0 .11 0 .13 6.35.76 12.75.65 19.08 1.79a84.78 84.78 0 0 1 19.57 6.08 135.3 135.3 0 0 1 17.16 8.79 28.14 28.14 0 0 1 2.5 1.9h-.71c-14 .37-29.66 2.23-42.63 7.89a.21.21 0 0 0 .09.41c6.87-.48 13.68-1.06 20.46-1.51a64.869 64.869 0 0 0-5.27 3.58c-7.33 5.53-16.16 14.87-17.31 24.44-.08.69.8 1.34 1.32.69 2.92-3.65 4.86-7.89 8-11.41a57.36 57.36 0 0 1 10.76-9.46c6.2-4.17 13.16-6.14 20.07-8.43 3.13 0 6.27.15 9.42.37 3.63.26 7.26.63 10.87 1.08-6.29.91-12.64 2.72-17.65 6-.5.31-.28 1.26.37 1.15 8.94-1.45 17.17-3.52 26.35-3a70.89 70.89 0 0 1 7.72.84c-12.17 1.92-24.11 6.11-34.27 13.11-21.63 14.91-35.65 45.55-21 70.15.32.57 1.12.11 1-.45-6.78-26 5.73-51 28.63-64.12 11.38-6.55 24.35-9.64 37.42-10.09a111.12 111.12 0 0 1 13.41.37c-8.12 2.63-16 7.23-21 13.82-.28.37 0 1.08.54.87 9.92-4.17 19.08-7.91 29.88-9a64.18 64.18 0 0 1 13.59.28c1.15.58 2.27 1.18 3.42 1.81a44.23 44.23 0 0 0-28.15 12.81c-.42.41.15.91.58.72a59.13 59.13 0 0 1 32.66-5.75 52.25 52.25 0 0 1 10 2.27c.11.13.19.26.3.39a1.84 1.84 0 0 0 2 .6c.84.67 1.68 1.34 2.5 2a42.14 42.14 0 0 1 3.53 3.44 63.52 63.52 0 0 0-31.53.3c-.28.09-.17.47.09.5a92.3 92.3 0 0 1 31.2 7.32c2.4 1.08 4.77 2.38 7.15 3.72a64.57 64.57 0 0 0-20.14-2.36c-12.38.56-24.71 5.1-33.72 13.78-7.15 6.9-13.53 18-12.19 28.26 0 .31.5.46.63.13 4.32-9.57 8.53-17.65 17-24.26a48 48 0 0 1 30.45-9.85c11.77.18 23.18 4.24 33 10.61a103.17 103.17 0 0 1 12.46 10c-.39-.21-.78-.41-1.14-.58-9.36-4.54-21.87-5.75-31 0-.22.13-.11.5.13.47 10.11-1.25 20-1.64 28.86 4.28a37 37 0 0 1 9.4 8.95c1.27 1.77 2.27 3.76 3.48 5.57a109 109 0 0 1 4.08 17.09c-.28-.61-.56-1.23-.89-1.84-5.27-10.35-17-23.83-29.14-25.81-.17 0-.39.17-.24.34 3.7 4.39 8.56 7.76 12.25 12.25a64.06 64.06 0 0 1 9.53 15.92c.78 1.88 1.47 3.78 2.09 5.69-.3-.41-.6-.85-.93-1.26-11.42-15.12-32.06-26.77-51.39-24.52a.21.21 0 0 0 0 .41c18.84 3 35.62 10.83 45.24 28.11.19.35.36.69.54 1a61.64 61.64 0 0 1 1.62 14.75c0 1.49-.11 3-.24 4.45-7.84-9.37-19.32-16.16-30.81-15.9a.51.51 0 0 0-.22 1c7.76 3.7 15.13 7.48 20.62 14.3a46.66 46.66 0 0 1 7.47 13.79c-.11.39-.22.78-.32 1.19a40.88 40.88 0 0 0-4.61-3.59 30 30 0 0 0-16.29-4.93.58.58 0 0 0-.23 1.08 42.63 42.63 0 0 1 12.2 10.2c2 2.42 3.48 5.53 5.4 8.15-2.54 1.21-5.12 2.5-7.66 3.86a20.85 20.85 0 0 0-7.91 1.3c-5.94 2-11.41 5-17.26 7.24-6.23 2.35-12.36 3.93-19.06 3.41a24.66 24.66 0 0 1-9.79-2.74c-2.35-1.23-4.14-3.16-6.74-3.85 0 0-.06.05-.06.09 1.27 4.67 8.25 8.27 12.29 10.26a34.09 34.09 0 0 0 11.41 3.41c-6.87 1.84-13.46 1.5-21.09-.69a.39.39 0 0 0-.34.67c5.61 5.19 14.43 6.33 22.23 5.51-1.06.91-2.12 1.8-3.16 2.7l-1.64 1.47c-5.33-.17-10.76.78-16.14.61a50 50 0 0 1-18-3.68c-11-4.66-18.45-14.49-29-19.81a33 33 0 0 0-14.5-3.28 34.49 34.49 0 0 1 4.28-.87c6.24-.82 12.18.87 18 2.92.24.07.39-.28.21-.43-6-5.34-14.54-7.11-22.64-6.85 1.08-.26 2.14-.5 3.22-.73 12.78-2.61 24.55-2.69 37.06 1.31a.23.23 0 0 0 .21-.39c-9.44-8.62-25.79-10.31-38-8.79l-1.84.26a83.33 83.33 0 0 1 14.65-3.16 81.33 81.33 0 0 1 21.93.17 63.66 63.66 0 0 1 11.43 2.83c3.24 1.15 6.24 2.94 9.55 3.85a.22.22 0 0 0 .24-.32c-4.35-5.27-12.47-8-18.84-9.94a78.81 78.81 0 0 0-23.83-3.11c-2 0-4.06.15-6.12.32a68.45 68.45 0 0 1 25.58-2.83 60.68 60.68 0 0 1 24 8.1c7.11 4.78 13 11 19.25 17.22a.26.26 0 0 0 .41-.26c-4-12.92-16.44-22.75-28.36-28.21a65 65 0 0 0-22.77-5.77 56.39 56.39 0 0 0-26.53 3.63 65.94 65.94 0 0 0-36.65 37.24c-7.71 19.84-4 41 2.58 60.56 6.91 20.74 17.56 41.48 16.87 63.89a50.91 50.91 0 0 1-7.04 24.43 27.5 27.5 0 0 1-3.91 4.86c-1.23-24.44-8.7-48.83-20.67-66.76-.09-.11-.28 0-.24.11 2.87 9.83 6.29 19.46 8.32 29.53a192.72 192.72 0 0 1 3.5 30.48c.22 5.49 1.51 27.16-9.76 55.53-6.59 16.55-20.94 29.12-38 34.82-13.8 4.63-28 5.34-42.26 3.83 1-.45 1.91-.91 2.83-1.36a75.07 75.07 0 0 0 17-10.8c8-7.07 18.86-20 18.62-31.83a27.5 27.5 0 0 0 1.3-8.08.41.41 0 0 0-.78-.17c-1.08 2.16-2.11 4.54-3.3 6.8a41.32 41.32 0 0 0-3.87 6 53.75 53.75 0 0 1-8.32 7.47A58.37 58.37 0 0 1 62 493c-13.54 2.88-32.44 3.06-43.77-6.29 5.37 1.29 11.29 1.29 16.69 1.36h1.4c1.36.21 2.73.42 4.1.6 6 .75 17-1.47 19.19-4.76a1 1 0 0 0 0-.78c1.1-.92-3.79-1.78-5-1.7-23.48-7.32-44.72-33.59-43.4-58.66 4.26 9.65 10.32 18.91 18 25.3 9.68 8.06 24.78 12.64 36.9 7.73a28.21 28.21 0 0 0 5.33-2.87c-5.22 8.6-12.89 12.57-21.49 17.07-.13.06 0 .24.06.24 10.05.49 20.33-6.74 25.93-14.61a40 40 0 0 0 4.86-9.29c-.63 10.09-2.38 20.07-2.94 30.16a.4.4 0 0 0 .76.17c4.25-9.16 6-19.46 6.89-29.46A119 119 0 0 0 86 428c.17-.84.34-1.68.49-2.5.11-.63.22-1.26.31-1.86a69.49 69.49 0 0 0 11.76 14.26c7.87 7.19 17.22 12.72 21.43 23s3.07 20.95-1.64 30.94c-.21.45.39.92.74.51 12.48-15 8.21-37.11-5.1-49.82-5.08-4.88-10.2-9.24-14.72-14.23a62.57 62.57 0 0 1-3.67-6.4c-2.81-5.7-4.1-11.84-6.24-17.78-.65-1.77-1.38-3.59-2.18-5.4 11.55 9.38 24.58 16.79 35.82 26.6a.18.18 0 0 0 .26-.22c-6.53-10-15.52-17.54-24.57-25.06-1.94-2-4-3.85-5.92-5.88A94.6 94.6 0 0 1 84 382.61c-.67-1.1-1.36-2.18-2-3.24-1-1.66-1.93-3.33-2.85-5-.39-.76-.8-1.49-1.19-2.25a140.71 140.71 0 0 0 12.25 9.68c20.82 14.74 56.21 28.43 48.52 60.65a.08.08 0 0 0 .15.06c5.68-10.43 2.4-22.68-4-32-7.39-10.78-19.12-18-29.82-25.1a155.35 155.35 0 0 1-28.65-23.81c-1.73-3-3.41-6.14-5.18-9.12.67.41 1.32.82 2 1.21 23.07 14.2 34.85 15.58 38.35 17a.21.21 0 0 0 .19-.37c-7.28-4-14.6-7.89-22.06-11.63-2.76-1.38-5.57-2.89-8.42-4.32a96 96 0 0 1-8.93-7.45A100.33 100.33 0 0 1 63 336.81 63.06 63.06 0 0 0 76.59 345c8.21 3.54 17.59 7.32 26.68 7 .58 0 .87-1 .26-1.19-8.64-3.5-17.22-5.9-24.93-11.41a117.86 117.86 0 0 1-19.53-17.62c-11.46-12.88-15-31.05-15.32-32.13a191.9 191.9 0 0 1-1.88-51.83 63.68 63.68 0 0 0 10.89 18.62c11.86 13.94 32.77 25.47 51.66 23a.36.36 0 0 0 0-.71c-9-1.92-17.5-3.54-25.6-8.17a62.24 62.24 0 0 1-19.73-17.86A63.13 63.13 0 0 1 51 236.63a103 103 0 0 1-1.64-16.46c-.2-9.6 1.27-18.78 2.81-28.11a209.79 209.79 0 0 1 12.16-27.89c1-1.86 2-3.72 3-5.53a4.66 4.66 0 0 0 1.77-3c6-10 12.68-19.33 19.46-28.93.11-.15 0-.43-.23-.28A127.35 127.35 0 0 0 66 150.73a5.15 5.15 0 0 0-2.91 0c-10.74 2.93-21.15 8.75-28.28 17.45-6 7.28-13 17.61-13.62 27.31 0 .11.11.11.16 0 3.78-5.76 6.41-11.68 11.23-16.85 4.32-4.62 9.83-8.4 15.25-11.64a66.5 66.5 0 0 1 9.32-4.67c.51-.19 1.05-.39 1.62-.56a185.4 185.4 0 0 0-5 8.9c-7.15 3.54-14.34 10.5-17.13 18-1.38 2.37-2.63 4.77-3.78 7-4.58 8.67-8.4 18.52-9.37 28.26 0 .33.41.56.58.22 4.41-8.69 8.42-17.24 14.13-25.22a81.61 81.61 0 0 1 6.2-7.3c-1.08 2.83-2.12 5.68-3 8.51-.11.35-.21.72-.34 1.09a21.77 21.77 0 0 0-3.22 11.19 188.79 188.79 0 0 0-5.39 55.34q-2.25-4.81-4.34-9.71c-2.88-7.41-6-15-7.28-20.08a168 168 0 0 1-4.55-28.06 148 148 0 0 1-.12-23.21zM272.35 297c29.71-26 67.28-43 98-44.37 1.95-.09 3.85-.11 5.73-.07l-.18 42.32c-46.51 3.42-88 23.08-117.4 55.74a175.12 175.12 0 0 0-32.17 52q2.48-11.65 6-23.07a228.92 228.92 0 0 1 10.46-27.09c.35-.8.76-1.56 1.12-2.34 1.62-2.74 3.27-5.44 4.95-8.14 5.66-9.05 11.82-17.69 18-26.32 2.33-2.91 4.62-5.85 6.79-8.87a.06.06 0 0 0-.09-.09c-9.12 8.47-17.35 18.56-24.59 28.65-2.24 3.13-4.49 6.39-6.59 9.81-1.55 2.42-3 4.92-4.34 7.47-8.55 13.16-15.88 27.07-20.52 42.15-.2.58-.35 1.19-.52 1.79-4.06 10.16-5.6 21.41-6.83 32.2-1.32 11.47-3 23.7-1.86 35.23a.16.16 0 0 0 .05.11 164.58 164.58 0 0 0 2.16 25.13c.47 2.89.9 5.94 1.44 9 .09 1 .18 2.06.28 3.07A214.64 214.64 0 0 1 207 416.6c8.29-58.86 40.12-97.53 65.35-119.6zm-50.43 511.9c3.07 4.22 8.19 5.84 13.83 4.28a91.52 91.52 0 0 0 11.25-4.65l2-.93c-1.84 4.06-2.57 8.73-.07 12.12 3.83 5.25 12.6 5.57 18.32 4.43 6.89-1.39 13.51-5.69 16.83-12s1.28-13.44-5.29-16.45a204.74 204.74 0 0 1 54.85-10.3l5.77-.2a43 43 0 0 0 4.54-.06 247.09 247.09 0 0 1 37.5 2.4 12.49 12.49 0 0 0-1.1 1.34c-2.11 3.13-2.85 8.79.05 11.34 3.63 6.61 13.89 10.65 20.84 11.06 4.84.3 14.07.28 16.66-4.95a6.69 6.69 0 0 0 .65-2.33v-.13a12.09 12.09 0 0 0 .35-7.63c21 6.81 41.91 16.88 63.91 30.57 2.67 1.67 5.25 3.33 7.77 5a15.74 15.74 0 0 0-3.11.63 9.58 9.58 0 0 0-3.24 1.12 2.15 2.15 0 0 0-.91 1.13 9.33 9.33 0 0 0-2.78 4.15c-2.1 6.28 2.29 12.94 7 16.76s11.4 6.57 17.46 6.4a7.19 7.19 0 0 0 5-1.9.66.66 0 0 0 .89-.28c1.53-2.73 24.15 6 31.47 12.66 11 9.91 17.07 15.38 22.73 15.12a6.84 6.84 0 0 0 2.42-.5 7.42 7.42 0 0 0 4.28-4.27c2.85-6.81-.84-22.26-6.79-39.32a81.11 81.11 0 0 0-3.75-11.51c11.47 16 22.73 39.19 27.93 59.71-5.46-4.12-12.4-5.46-16.55 1.45-3.22 5.36-2.57 14-1.57 19.83a23.68 23.68 0 0 0 6.41 13 21.66 21.66 0 0 0 4.78 1l.65.06a.74.74 0 0 1 .62.67.13.13 0 0 1 .09.05 4.54 4.54 0 0 0 .39-.48 7.31 7.31 0 0 0 6.26-2.22c-2.5 7.49-5.55 8.66-8 8.77-9.07.39-26-13-49.37-31.57-13.85-11-31.06-24.63-51.18-39-45.17-32.24-91.77-47.53-138.48-45.48a179 179 0 0 0-34.68 5c-20.55 5.14-38.66 13.21-54.63 20.37-15.68 7-29.23 13.05-39.56 13.52-7.52.33-12.72-2.27-16.94-8.4-1.53-2.27-2.24-8.15.41-17.85 3.38-12.4 11.33-27.07 21.29-35.6-.67 5.7.28 10.58 2.8 14.06zm54.4 40.64c18-11.62 41.94-17.56 63-20 21.77-2.49 42.47 1 61.59 11.84.11 0 0 .23-.06.19-38.5-15.57-87.3-8.31-123.85 9.13a.68.68 0 0 1-.68-1.17zm304.8 70.89l-.67-.07a24.52 24.52 0 0 1-3.52-11.56c-.28-3.45-1.27-13 3.85-13.85 3.71-.62 7.43 3.27 9 6.23 2.16 4.12 1.56 9.07-.06 13.24-.58 1.49-2 5.23-3.37 6.33a17.39 17.39 0 0 1-4.65-9.31c-.51-3.44.05-7-.58-10.35a.14.14 0 0 0-.26 0 21.31 21.31 0 0 0 .26 19.33zm-33.76-91a20.84 20.84 0 0 0 .1-2.87c4.56 14.67 5.88 27.67-3.22 26.46-10.73-1.42-27.58-18.9-36.12-24.67-23.76-16-58.59-34.5-75.1-40.12s-32.21-10.5-49.54-11.6q-13.12-.81-26.29-.45c-5.23.15-11.47.1-17.05 1.33q3.21-9.52 6-19.2c2.2-4.58 3.44-10 4.93-14.67 1.23-3.85 2.52-7.74 3.65-11.65l.62-1.79c.59-1.21 1.17-2.4 1.73-3.59.35-.9.65-1.81 1-2.72 2.89-8.1 5.83-16.2 8.85-24.2.11-.3.63-.17.61.13 0 .72-.11 1.45-.17 2.16.15 0 .28.16.23.33-.15.56-.3 1.1-.43 1.66-1.12 9.42-4.08 18.93-6.48 28.07a286.18 286.18 0 0 1 114.59 25.71A287.88 287.88 0 0 0 390.83 720c25.71 2.29 40.59 5.34 63.5 12.81 22.49 7.37 40.27 19 54.83 36.28-1.79-5-3.78-9.9-5.9-14.76-1.56-3.54-3.09-7.13-4.64-10.71-5.28-9.42-10.89-18.65-16-28.09.29.37.59.74.87 1.12 7.71 11.78 16.4 23 23 35.59 4.73 9 9.63 18.06 13.48 27.46 3.71 9 5.85 18.62 9.38 27.72.13.34.73.34.69-.09a106.71 106.71 0 0 0-1.89-11.33c-1.1-5.21-2.64-12-2.85-17.22 4.56 5.79 20.26 47.34 6.28 48-5.61.26-13.35-7.19-17.82-10-6.46-4.13-12.92-8.3-19.38-12.38-13.37-8.45-25-10.57-25-10.57s8.44 4.84 12.12 7c4.3 2.51 8.47 5.19 12.55 8a190 190 0 0 1 23.57 19.38c5.38 5.18 13.63 15.79 21.67 16.25 8.52.47 9.25-8.95 8.07-15zm-170.68-119c.24 1.21 1.6 2.24 2.5 3.06.26.24.05.72-.3.61a6.76 6.76 0 0 1-4.43-3.57 11 11 0 0 1-.9-6.37c.82-3.28 4.1-5.08 7.3-4.9 5.18.28 12.2 5.16 10.82 11.1a5.73 5.73 0 0 1-2.57 3.44c-1.23.75-3.54 1.53-5 1a.34.34 0 0 1-.08-.5c.84-1.1 2.37-1.53 3.22-2.74a2.44 2.44 0 0 0 .45-1.15 2.67 2.67 0 0 0-.11-.88 6.86 6.86 0 0 0-1.23-1.93 14.11 14.11 0 0 0-1.51-1.25 2.82 2.82 0 0 0-.37-.26 7.56 7.56 0 0 0-.76-.45c-.51-.28-1.14-.54-1.16-.56a7.1 7.1 0 0 0-1-.26c-.09 0-.54-.07-.65-.09-.39 0-1.06.09-1 0a4.77 4.77 0 0 0-.57.2 2.71 2.71 0 0 0-.26.15c-.77.54-.51.23-1.1.88-.36.44-.77.85-1.1 1.28-.62 1.06-.43 2.08-.19 3.27zm-31.09 26.61a215.68 215.68 0 0 0-31.41-1.94 280.52 280.52 0 0 1 33.27-3c-.63 1.72-1.26 3.36-1.86 5.02zm61.25 62.76c-3.85.31-8.3.18-11.82-1.59s-5-4.56-6.22-7.89a13.66 13.66 0 0 1 2.76-.56 18 18 0 0 1 2.94 0c2.49.49 4.95 1 7.39 1.64a.11.11 0 0 1 .07 0 25.78 25.78 0 0 1 11 8.08c-.19 2.05-2 3.07-4.17 4.47a2.43 2.43 0 0 0-.8 1 31.46 31.46 0 0 1-4.3.11c-5.44-.08-14.39-1.66-17.07-7.21 6 4 16.55 5.81 20.49 2.48.16-.12-.03-.45-.27-.45zm93.72 51.6c-2.55-2.19-5.75-3.24-7.69-6.2-.78-1.17-1.95-3.59-1.38-5.06a2.61 2.61 0 0 1 .82-1 12.26 12.26 0 0 1 1.7.37 24.2 24.2 0 0 1 9.88 5.51 8.88 8.88 0 0 1 1.9 2.27c0 .09.11.17.15.26a6.55 6.55 0 0 1 .58 3.07c0 1.53-.19 4.19-1.81 5-2.25 1.08-8.67-2.16-10.37-3.14-3.14-1.81 1.14-.15 6-.56a.29.29 0 0 0 .22-.44zM275.29 806a.32.32 0 0 0-.59-.22c-3.34 5.1-8.31 9.83-15 9.23-1-.09-2.44-1-3.87-1.67a20.15 20.15 0 0 1 3.85-7.47c2.74-3.26 7.52-5 11.77-5.06a18.72 18.72 0 0 1 6.7 2.6c1.51 2.35.69 5.94-1.94 8.88a18.81 18.81 0 0 1-11.21 5.78 19.92 19.92 0 0 1-2.63.24 19.94 19.94 0 0 0 3.71-1.29c4.22-2.02 8.28-6.33 9.21-11.02zm-27.83-5.9A134.92 134.92 0 0 1 308 764.41a109.17 109.17 0 0 0-32.11 3.05 165.78 165.78 0 0 1 66-20.4c-.17.5-.36 1-.56 1.49q-2.74 7.29-5.53 14.61l-2.94 7.77c-.49 1.3-1 2.6-1.47 3.89-.1.15-.19.3-.28.46a10.1 10.1 0 0 1-.78 2.83c-37.05 2.2-65.82 14.32-82.87 21.99zm1.25-49.17c15.06-28.15 29.65-55.74 36.54-70.54 8.75-18.78 6.65-34.2-2-51.08q2.18 1.89 4.34 3.7c.13.22.24.45.35.67a24.84 24.84 0 0 1 2.38 3.82c.34.5.67 1 1 1.54s.11.3.18.43c2.11 3.82 3.43 8.25 4.75 12.14s2.55 7.63 4.73 10.95c7.89 7.13 18.67 11.84 28 15.54a208.74 208.74 0 0 0 31.39 9.31c10.26 2.29 21 3.11 31.13 5.94.48.13.43.91-.06.87-13.64-1.28-23-1.11-33.9-2.9-1.64-.26-3.29-.56-4.93-.89a205.3 205.3 0 0 1-30.18-4.92c-1.43-.35-2.85-.74-4.26-1.15-2.74-.43-5.48-.84-8.25-1.18-5.49-.67-10.37-.59-15.64 1.21-.5.17-1 .36-1.49.56-3.11 4.14-6.31 8.23-9.38 12.42-6.91 9.4-12.72 19.6-19 29.43-4 6.28-8.08 12.55-12.12 18.81-.53.95-1.98 3.98-3.58 5.32zm-29.62-262.61c-1-56.45 17.72-104.65 50.43-137.9-8.3 16.89-19.38 32.34-26.83 49.89-7.67 18.08-14.72 37.83-16.75 57.4-6.11 59 21.93 121 65.79 160.91 21.11 19.21 45.82 33.47 72.33 43.88a301.42 301.42 0 0 0 33.42 7.24 315.78 315.78 0 0 0 47.73 4.53c16.63.22 33.08-1.44 49.67-2.22a.43.43 0 0 1 .28.11c1 0 1.94-.11 2.92-.13.3 0 .41.47.1.54-14.23 3-28.64 5.7-43.12 7.34-13.35.54-26.25.46-38.33-.23C325 674.34 221 591.38 219.09 488.32zM557.27 677c-74.15-40.83-158.19-87.11-209.13-156.61-12.16-16.6-16.92-31.74-12.7-40.51 2.7-5.66 9.29-8.54 19.48-8.49 49.07.26 94.95-.54 136.39-2.38 78.3-3.46 136-10.43 167.46-20.18a33.45 33.45 0 0 1-.93 7.8c-.39.78-.8 1.56-1.25 2.31a2.14 2.14 0 0 0-1.08 1.08 15.23 15.23 0 0 1-.76 1.34c0 .05-.06.07-.08.11-.2.2-.35.39-.52.58a27.29 27.29 0 0 1-7.52 5.21 20.4 20.4 0 0 1-3.11 1.21c-2.23.48-4.45 1-6.63 1.38-1.67.26-3.35.48-5 .78-5.23.8-10.45 1.54-15.7 2.27-6.46.93-13 1.77-19.49 2.31-6.12.52-12.49.28-18.52 1.49v.05c6.38 1 13.2.19 19.62 0s13.05-.41 19.55-.82c6.12-.36 12.21-1.06 18.28-1.83 5.73 1.68 8.92 6.76 9.16 13a14.45 14.45 0 0 1-.09 2.2C624 560.33 591 603.91 568.61 633.4c-3.93 5.18-7.41 9.76-10.5 14.06a1.21 1.21 0 0 1-.25-.08c-10.42-4.54-19.25-8.6-29.41-13.66-9-4.47-27.37-11.77-37.31-18.69 1.08.44 18.45 7.29 23 9.14 5.21 2.12 10.5 3.87 15.62 6.2 5.72 2.62 11.49 5.08 17.28 7.52 3.09 1.17 6.2 2.31 9.18 3.7a4.49 4.49 0 0 0 1.13-.44c.52-.62 23.61-32.51 28-38.78-2.9-.64-5.86-1.14-8.82-1.6-1.88 2.55-3.8 5.06-5.81 7.52-4.82 5.92-10.39 13-17 17l.39-.82c39.62-46.69 67.94-107.55 73.45-142.29 0 0-29 2.14-33.18 2.18-11.13 35.28-24.61 63.3-40.14 87.93q-6.16-1-12.34-2.14c-1.77 2-3.65 3.85-5.53 5.68 4.67.89 9.33 1.73 14 2.44-1 1.58-2.09 3.18-3.15 4.74-4.84-.95-9.66-1.95-14.46-3-1.16 1.43-2.31 2.85-3.52 4.26l-.34.41q7.38 1.88 14.84 3.39c-1.43 2-2.85 4-4.3 6-3.31-.74-6.59-1.49-9.87-2.29l-5.47-1.34c-4.8 5.79-10 11.75-16 15.64 33.27-42.33 56.3-91 61.12-121.29 0 0-27.83 2.38-31.46 3.22-9.39 29.81-20 53.69-32.23 74.77l-3.35-.71c-3.37-.69-6.76-1.66-10.17-2.68q-1.39 1.92-2.86 3.8c4.41 1.36 8.82 2.6 12.9 4l.76.26c-.82 1.38-1.67 2.74-2.51 4.1-4.77-1.4-9.53-2.89-14.24-4.47-.64.8-1.31 1.58-2 2.38q7 2.94 14 5.57c-1.51 2.38-3.05 4.71-4.6 7l-3.16-1q-4.92-2.24-9.83-4.54c-.6-.3-1.21-.6-1.83-.88-2.27 2.55-4.63 5-7.09 7.38 1.69 1 3.37 1.93 5.1 2.83 3.46 1.86 7 3.59 10.52 5.25a.36.36 0 0 1-.11.16c-1.79-.63-3.58-1.26-5.35-2-3.94-1.51-7.83-3.15-11.69-4.84-1.17 1.08-3.42 1.67-5.47 1.95a2 2 0 0 0 .3-.28c26.12-31.53 44.81-70.72 50.47-96.86 0 0-19.77.37-22.38 1a221.36 221.36 0 0 1-30.66 67.23c-5.23-2.36-10.48-4.69-15.86-6.57-.21-.06-.28.24-.13.35a98.37 98.37 0 0 0 14.71 8.26c-1.25 1.83-2.5 3.65-3.8 5.46q-7.94-4.11-15.75-8.44c-13-7.24-25.36-15.82-38-23.68-.22-.13-.46.21-.26.39 11.73 10.37 24.22 19.5 36.75 28.86q6.29 4.7 12.74 9.1c-.9 1.23-1.83 2.48-2.78 3.71A285.24 285.24 0 0 1 424.6 560c-6.44-4.23-12.53-9-18.82-13.41-9.25-7.46-18.45-15-27.81-22.3-.06 0-.17 0-.1.11 13.48 16.42 29.23 31 45.22 45 12.55 10.95 25.62 21.15 38.84 31.26-15.88-8.14-30.53-18.49-44.42-29.66-13.33-10.72-28.34-21.76-38.56-35.58-2.94-3.94-7-8.88-8.34-13.66-1.08-3.69-.15-11.45 2-14.69 3.5-5.29 3.78-14.26-1.75-18.32-.05 0-.13 0-.11.06.13.35.23.7.34 1 0 0-.06-.11-.11-.15a.11.11 0 0 0-.19.06c.76 5.69 0 11.95-5.18 15.49a12.77 12.77 0 0 1-9.17 1.91 21.64 21.64 0 0 1-3.24-1.41 21.13 21.13 0 0 1-5.05-4 12.14 12.14 0 0 1-1.88-7.6 11.15 11.15 0 0 1 5.81-8.53c2.81-.93 5.88-1.15 8.9-1.69.89-.17.69-1.47-.06-1.66-11.45-2.73-22.52 5.07-19.45 16.72a20.84 20.84 0 0 0 .76 2.22c2.48 6.16 7.19 12 11.17 17.35 4.43 5.92 9.18 11.6 14.08 17.16a422.37 422.37 0 0 0 33.1 33.27c11.37 10.26 22.26 18.54 34.53 27.67 1.49 1.13 3 2.23 4.53 3.33 6.08 4.82 12.58 9.14 18.93 13.37 9.68 6.44 19.66 12.56 29.73 18.39C507.75 643 528 651.35 549.06 659c.2.08.33-.26.13-.35-20.39-8.34-40.14-19.31-58.65-31.22-5.32-3.41-10.48-7-15.58-10.69 8.42 4.47 18.51 9.7 27.05 14 32.62 16.44 41.5 17 52.45 25.12 1.49 1.3 3 4.33 3.94 7.28a28.19 28.19 0 0 1 .77 8.32 42.14 42.14 0 0 1-.9 6.16zm-67.34-75a141.2 141.2 0 0 0 13.48 9.33 131.18 131.18 0 0 1-18.15-8.75 236.93 236.93 0 0 0 16.29-22.49 379.47 379.47 0 0 0 26.69-48.7A391.41 391.41 0 0 0 543 493.51a188.21 188.21 0 0 1-5.28 19.49 286 286 0 0 1-19.47 45.26q-6.25 11.88-13.56 23.24a189.16 189.16 0 0 1-14.76 20.5zm-35.47-20.46a46.54 46.54 0 0 0 7.75 7.49 48.14 48.14 0 0 1-10.78-6.2c-.26-.21-.89-.54-1-.82s0-.37.31-.75c1-1.37 2-2.73 3-4.11a332.18 332.18 0 0 0 25.36-39.64c3.68-6.87 7.07-13.9 10.07-21.09s5.55-14.73 7.87-22.27c-.07.28-.13.51-.18.73a171.9 171.9 0 0 1-5.64 20.33c-8.42 24.12-21.64 45.92-36.76 66.34zM532 620.69c5.23 3.31 10.67 6.27 16.18 9.1a213.18 213.18 0 0 1-21-8c6.59-8.9 13.09-17.86 19.31-27A457.32 457.32 0 0 0 580.06 537a307.59 307.59 0 0 0 17.46-45.27c-.09.42-.15.76-.21 1.06a191 191 0 0 1-5.95 22.21A309.54 309.54 0 0 1 567 568.54a424.33 424.33 0 0 1-35 52.15zm-284-203a122.87 122.87 0 0 1 32.26-62.25q11.08-8.71 22.21-17.41c2.46-1.41 4.93-2.77 7.47-4 14.54-7.26 30.81-12.1 47.08-13A172.86 172.86 0 0 1 379 321a155.88 155.88 0 0 0-16.09 2.2c-18.95 3.59-39.09 11.78-53.54 24.92-.13.08 0 .28.15.23 9-3.39 17.63-7.17 26.94-9.87 6.4-1.84 12.86-3.57 19.38-5a155 155 0 0 1 24.24-.86c5.3.28 10.54.73 15.77 1.49-1.55 0-3.11.1-4.68.21-15.3 1.13-28.91 5.84-42.83 11.93a.18.18 0 0 0 .13.34c13.46-3.52 28.26-4.1 42.11-3.84a167 167 0 0 1 19.34 1.4 52.44 52.44 0 0 1-.59 7.59 155.32 155.32 0 0 1-3.93 17.8 253.49 253.49 0 0 1-28 64.94c-6.13 9.85-14.62 18.73-19.53 29.21a.15.15 0 0 0 .2.2 41.53 41.53 0 0 0 4-2.88L360 464h-5c-1 0-1.86 0-2.75.07-14.75.65-20.93 7.24-23.53 12.66s-2.87 12.46-.84 20.28c1.38 10.61 9 21.63 13.89 29.8 2.1 3.54 4.17 7.11 6 10.78 1.14 2.33 2.14 26.9 2.31 31 .34 8.1.37 16.16.43 24.24 0 7.91.35 15.8.71 23.68.33 6.92 1.69 13.68 2.16 20.55h-.06a34.38 34.38 0 0 1-3.13-10c-2.9-7.77-6.61-31.26-9.08-46.92-1.29-8.21-3.52-29.12-3.43-31.18-4.63-3.5-9.08-7.17-13.61-10.78-1.82-1.88-3.53-3.84-5.19-5.83a257.91 257.91 0 0 1-14.24-23.48c-.06-.11-.21 0-.19.08a99.55 99.55 0 0 0 9.16 22.1 155.09 155.09 0 0 0 11.64 19.27c1.52 2.21 3.05 4.43 4.63 6.62a160.21 160.21 0 0 1-18.65-21.07 181.22 181.22 0 0 1-19.81-34.44c-5.21-11.86-8-24.63-10.76-37.24-.06-.33-.52-.2-.52.11 0 2.54 0 5.12.18 7.69-.28 14.95 2.81 30.52 6.89 44.7.67 2.31 1.42 4.6 2.22 6.85-20.8-28.74-33.42-63.74-31.5-99.52a.18.18 0 0 0-.34 0 108.62 108.62 0 0 0-2 41.2c.63 16.4 4.45 33.14 9.34 48.72a6.32 6.32 0 0 0-.09.73c-.71-1.31-1.43-2.61-2.1-4-14.63-28.61-20.53-61.28-14.74-92.99zm.31 109.86c4 9.93 7.28 20.11 13.22 29.14 5.27 8 9.85 16.42 15.6 24.11 11.77 15.82 26.44 30.64 41.41 43.43.09.08 0 .26-.13.19-8.92-5.51-18-10.2-25.88-17.24a155 155 0 0 1-20.2-22.18c-5.62-7.43-11.6-15.71-14.43-24.65-3.42-10.76-8-21.5-10.35-32.54a.42.42 0 0 1 .8-.27zM313.14 319a174.56 174.56 0 0 1 69-17c5.64-.26 11.45-.26 17.22 0a257.23 257.23 0 0 1 46.93 6.14c-10.14 29.14-24.79 58.37-39.78 84.38.45-1.34.93-2.67 1.45-4a.91.91 0 0 1-.11-.76c2-6.07 5.27-11.67 8.06-17.39.06-.17.15-.35.22-.5 2.22-5.08 4.45-10.13 6.58-15.25 5.86-14.15 10.87-28.56 16.47-42.8-3-1.25-14.07-3.78-16.47-4a263.87 263.87 0 0 0-41.87-1.82 244.88 244.88 0 0 0-45.11 6.2c-7.73 1.73-15.14 4.3-22.59 6.8zm150.61-46.3c69.76 13.35 114.67 79.4 120.42 122.93l.11.89.52.73c.08.15 9.85 14.35 19.59 28.41 8.71 12.55 13.74 19.79 16.83 24-30.72 5.21-72.27 9.14-123 11.56-.89 0-1.78 0-2.64-.08-5.68-.26-11.36-.54-17-.7-10.47-.28-21-.51-31.43-.88 2.85-.5 5.7-1 8.56-1.47 6.15-1.06 12.63-1.4 18.6-3.28.26-.07.15-.39-.07-.41-6.93-.46-14 .88-20.93 1.27-6.27.32-12.56.71-18.82 1.32-4 .36-8 .8-11.95 1.23 6.31-1.45 12.6-2.83 18.93-4.17 6.5-1.36 14.06-2 20.13-4.8.18-.08.24-.41 0-.43-6.42-.6-13.29 1.19-19.64 2-6.87.93-13.72 1.82-20.59 2.55q-8.1.92-16.13 2.1c.79-.31 1.59-.59 2.35-.85 9.07-3.09 18.08-6.39 27.16-9.46a.38.38 0 0 0-.24-.71c-9.42 2-18.93 3.76-28.35 5.77-1.42.3-2.93.56-4.53.84a5.31 5.31 0 0 1-1.54-.58c-2.14-1.21-2.89-3.07-3.41-5.21A442.44 442.44 0 0 0 439 365.22a.26.26 0 1 0-.47-.23c-19.62 33.83-38.55 67.77-62.63 98.75l-.13.2h-6.55c27.87-38.94 80.48-119.53 94.53-191.21zM361.38 627a12.34 12.34 0 0 0 1.23 3.61c.18.41-.32.74-.67.56-1.57-.73-2.26-2.7-3-4.21a13.2 13.2 0 0 1-1.25-6.76c.78-4.76 7.41-6.48 11.39-5.38 4.21 1.16 8.31 5.31 7.8 10a11.66 11.66 0 0 1-6.51 8.66.18.18 0 0 1-.19-.28c1.81-1.86 3.65-4.26 3.24-7a6.92 6.92 0 0 0-5.25-5.72 5.06 5.06 0 0 0-5.55 2.18 7.68 7.68 0 0 0-1.24 4.34zm.05-40.64a.08.08 0 0 1-.13.07c-.61-.95-1.47-1.86-2-2.83a10.75 10.75 0 0 1-.67-2.53c-.54-1.73-1.08-3.13-.2-4.9a7.74 7.74 0 0 1 6.66-4.09c5.05-.21 10.69 3.94 10.76 9.23 0 3.56-2.29 5.88-5.06 7.69a.17.17 0 0 1-.22-.26c1.62-1.9 3.24-5 2-7.47a7.58 7.58 0 0 0-4.5-3.61c-1.81-.48-3.39-.46-4.47.5-.2.15-.24.28-.56.77a19.47 19.47 0 0 1-1.36 1.69c-1.05 1.29-.68 3.97-.25 5.74z"/><path class="cls-1" d="M479.8 300.84c.75.3 11.27 5.33 15.62 7.87 9.37 5.45 17.75 12.2 26.28 18.84.25.19.44-.38.44-.38s-14.61-16.58-23.55-23l-.21-.14c3.65 2 11.16 6.68 14.68 8.95 10 6.46 19 11.78 35 28.31.26.28.7-.09.5-.42-8.34-13.93-22-25.55-35.06-35a185 185 0 0 0-20.15-12.72c-3.88-2.11-7.88-4-11.92-5.82a83.43 83.43 0 0 0-10.43-3.2s-1.2.42-2.26 3.47c-1 2.87-13.17 41-19 57.12-.05.12.13.2.21.11a58.47 58.47 0 0 0 6.25-9c3.57-5.27 6.59-11 9.9-16.42m-56.52 128.94c-3.94 1.11-7.92-2.61-7.58-6.56.3-3.4 4.3-6.12 7.57-4.69.92.41 1.71 1.66.47 2.19-.56.25-1.23 0-1.8.17a3.89 3.89 0 0 0-2.05 1.34 2.62 2.62 0 0 0 2.11 4.2c2.33-.11 2.55-2.69 3.9-4 1.54.55 1.5 2.37 1.1 3.75a5.65 5.65 0 0 1-3.72 3.6z"/><path class="cls-1" d="M470.52 341.38s0-.05 0 0a4.41 4.41 0 0 1 3.27 5.55c-.74 3.15-4.25 4.95-7.27 4.84s-6.61-2-7.17-5.28a5.71 5.71 0 0 1 4.33-6.55.39.39 0 0 1 .24.75c-2.33.88-2.67 3.57-1.43 5.44a5.78 5.78 0 0 0 4.53 2.47c1.76.07 3.86-.52 4.83-2.09a3.75 3.75 0 0 0-1.33-5.13zM435.15 401c-2.68-.09-5.86-1.78-6.27-4.68a5 5 0 0 1 3.86-5.56.39.39 0 0 1 .24.75c-3.69 1.46-.73 5.71 1.92 6.22a5.09 5.09 0 0 0 4.06-.9 3 3 0 0 0-.48-4.77 3.75 3.75 0 0 1 2.89 4.7c-.58 2.73-3.6 4.36-6.22 4.24zm59.66 12.9c11.81-3.22 23.77-6 35.67-8.8 5.79-1.38 11.62-2.58 17.4-4s11.63-3.47 17.51-3.8c.23 0 .25.28.07.36-5.3 2.45-11.43 3.5-17.07 5-6.08 1.62-12 3.59-18.07 5.35-11.73 3.43-23.31 7.34-35 10.83-11.43 3.41-22.78 6.79-34.46 9.22s-22.73 7.61-34.43 9.4c-.1 0-.15-.15-.06-.19 10.16-5.23 21.93-7.53 32.59-11.67a356.58 356.58 0 0 1 35.85-11.7zm36.88 63.39a98.29 98.29 0 0 1 22.73.87.23.23 0 0 1 0 .44 98.69 98.69 0 0 1-22.58 2.45c-7.41 0-15.4.24-22.71-1a.13.13 0 0 1 0-.24c7.23-1.69 15.17-2.01 22.56-2.52zm-79.94 5.41c12.26-2.37 25.72-.83 38 .63.22 0 .16.35 0 .37-12.25 1.36-25.75 2.81-37.94.33-.63-.13-.75-1.2-.06-1.33zm-33.08-.07c4.22 0 8.49-.38 12.46 1.23.31.13.22.59-.06.69-4.53 1.57-9.62.73-14.33.46a135 135 0 0 1-14.34-1.47c-.12 0-.09-.19 0-.21a146.8 146.8 0 0 1 16.27-.7zM376.62 481a10.08 10.08 0 0 1 3.94.69.59.59 0 0 1-.09 1.07 9.85 9.85 0 0 1-4 0 12 12 0 0 1-4.17-1 .28.28 0 0 1 0-.5 12.36 12.36 0 0 1 4.32-.26zm189.13-12.51a.74.74 0 0 1-.12 1.34c-1.6.51-3.28.76-4.18 2.4-.77 1.41-.08 3.38 1 4.5a3.91 3.91 0 0 0 4.35.83c1.39-.55 1.89-1.92 3.11-2.6 1.44 1.79-1.21 4.54-2.69 5.38a6.17 6.17 0 0 1-7.74-1.55 6.09 6.09 0 0 1-.28-7.74c1.37-1.98 4.19-3.65 6.55-2.56zm-71.23 3.92a5.5 5.5 0 0 1 4.33-1.29.5.5 0 0 1 0 1 5.92 5.92 0 0 0-3.26 1.45 2.94 2.94 0 0 0-.95 2.75 4.18 4.18 0 0 0 2.87 4.24 4 4 0 0 0 4.49-1.27c1.58-1.75.89-3.16.8-5.19a.38.38 0 0 1 .55-.35c2.19 1.3 1.91 5.51 1 7.49-1.54 3.25-5.25 4.25-8.48 3.05-3-1.12-5.58-4.7-4.58-8 .49-1.56 2.01-2.86 3.23-3.88zm-56.68 5.03a5.51 5.51 0 0 1 4.33-1.29.5.5 0 0 1 .05 1 6 6 0 0 0-3.22 1.45 2.94 2.94 0 0 0-.95 2.75 4.2 4.2 0 0 0 2.87 4.24 4.06 4.06 0 0 0 4.5-1.27c1.58-1.75.88-3.16.79-5.19a.38.38 0 0 1 .55-.35c2.19 1.3 1.92 5.51 1 7.49-1.54 3.25-5.25 4.25-8.48 3.05-3-1.12-5.58-4.7-4.58-8 .41-1.56 1.92-2.86 3.14-3.88zM363.42 491a.37.37 0 0 1 .55-.34c2.18 1.29 1.91 5.5 1 7.48-1.54 3.25-5.25 4.25-8.48 3.05-3-1.12-5.58-4.7-4.58-8 .48-1.57 2-2.87 3.22-3.89a5.52 5.52 0 0 1 4.32-1.29.5.5 0 0 1 .05 1 6 6 0 0 0-3.27 1.45 2.94 2.94 0 0 0-.95 2.75 4.2 4.2 0 0 0 2.87 4.24 4.06 4.06 0 0 0 4.5-1.27c1.55-1.79.85-3.18.77-5.18zm22.82-12.92a5.55 5.55 0 0 1 4.33-1.3.5.5 0 0 1 0 1 6 6 0 0 0-3.26 1.45 3 3 0 0 0-1 2.76 4.18 4.18 0 0 0 2.87 4.24 4.06 4.06 0 0 0 4.49-1.27c1.58-1.76.89-3.17.8-5.19a.38.38 0 0 1 .55-.35c2.19 1.3 1.91 5.5 1 7.49-1.54 3.25-5.25 4.25-8.48 3-3-1.12-5.58-4.7-4.58-8 .54-1.52 2.04-2.82 3.28-3.83zm206.04 112.05c-.29.53-.57 1.07-.83 1.61a25.37 25.37 0 0 0-1.58 2.84c-2.76-.25-5.52-.53-8.27-.82.53-.75 1-1.5 1.56-2.25.86-1 1.71-2 2.55-3.08 1.86.16 3.72.31 5.57.43a3 3 0 0 1 1.46.47zm7.15-9.53a40.84 40.84 0 0 1-8.06.4c.51-.74 1-1.49 1.48-2.24a43.06 43.06 0 0 1 6.62 1.3.28.28 0 0 1-.04.54zM295.32 307.58c3.81-2.74 7.66-5.33 11.47-7.75A231.71 231.71 0 0 1 343.57 281a134.72 134.72 0 0 0 13.07-8.3 63.6 63.6 0 0 0 13.62-13.81 276.29 276.29 0 0 0 .73 28.91c-.08.54-.15 1.08-.23 1.62l-1.15.06.39-.16a.15.15 0 0 0 0-.29c-9.08-1.85-20.55 1.56-29.36 3.81a157.3 157.3 0 0 0-29 10.6q-4.25 2-8.39 4.3c-6.66 4.09-13.24 8.29-19.7 12.66-1.32 1-2.65 2-4 3l-.67.48c-3.58 2.81-7.13 5.66-10.76 8.43-3.25 3.31-6.4 6.74-9.73 10.09-.27.28-.82-.05-.59-.42 5.11-7.84 12.67-14.42 19.61-20.61a186.74 186.74 0 0 1 17.91-13.79zM357 745.34c.63-2 1.24-4 1.81-6.05A214.79 214.79 0 0 1 400 751.87a163.45 163.45 0 0 0-43.28-5.57c.11-.3.16-.64.28-.96zm131.9-310.19l10.1 15.49a4.34 4.34 0 0 0 4 2l87-7.84a3 3 0 0 0 2.4-4.5l-16.34-29.85a4.35 4.35 0 0 0-5-2.1l-80.5 22.24a3.05 3.05 0 0 0-1.66 4.56zm5-1.58h.06c2.23 2 4.25 4.41 6.32 6.62 1.37 1.47 3.47 3.24 4.37 5.2 11.66-2.16 23.72-3.06 35.52-4 13.18-1.08 26.36-1.87 39.58-1.19.06 0 .06.09 0 .1-13.1 1.84-26.31 2.21-39.48 3.48-6.19.59-12.38 1.42-18.52 2.45-5.76 1-11.8 2.7-17.64 1.86a1.18 1.18 0 0 1-.94-.88c-1.93-1.63-3.2-4.65-4.68-6.68a40.68 40.68 0 0 1-4.58-6.96zM359.62 753c1.75-1.24 4.22-1 6.26-.75 1.37.18 1.1 2.25-.19 2.35-2.34.18-3.66 3.28-2.61 5.1a7 7 0 0 0 4.88 2.81c4 .51 8.27-4.27 5-7.94a.41.41 0 0 1 .47-.66 7.29 7.29 0 0 1 4.49 9.12c-1.69 5.07-7.56 7.3-12.48 6.1s-9.68-5.31-8.89-10.73a7.92 7.92 0 0 1 3.07-5.4zM523.5 884.22c7.44 4.07 13.92 10 20.57 15.24 7 5.55 15.12 10.65 21 17.37a.25.25 0 0 1-.28.4c-8.08-3.21-15.39-9.44-22.19-14.78s-14.18-11-19.34-18a.15.15 0 0 1 .24-.23zm-16.71-13.82c3 2.14 5.77 4.32 7.12 7.83a.34.34 0 0 1-.39.43c-3.2-1.13-5.39-3.23-7.93-5.41-2.36-2-6.14-4.28-7.5-7.11 0 0 0-.13.07-.13 3.03.05 6.25 2.69 8.63 4.39zM413 819.55c4.94.63 9.63 2.91 14.21 4.77 5.49 2.23 10.92 4.61 16.31 7 9.67 4.36 20.33 9.09 28.4 16.08.21.18 0 .6-.26.5-9.81-3.58-19-9.39-28.36-14q-7.08-3.49-14.35-6.57c-5.34-2.27-11.33-3.9-16.22-7.06a.39.39 0 0 1 .27-.72zM318.36 810a109.56 109.56 0 0 1 22.25-3.55c13.5-.94 30.51-.37 42.86 5.78a.14.14 0 0 1-.06.27c-6.88-.22-13.74-1.67-20.65-2.08a166.07 166.07 0 0 0-22 .15 186.6 186.6 0 0 0-22.16 3.34c-6.62 1.3-12.94 3.87-19.64 4.74-.27 0-.32-.32-.15-.46 5.64-4.26 12.85-6.29 19.55-8.19zM281 824.61a.29.29 0 0 1 .25.52c-2 1.34-4.34 2.85-6.76 3.25a.31.31 0 0 1-.24-.52c1.81-1.64 4.46-2.53 6.75-3.25zm-41.49 13.58c4.58-1.44 8.93-3.83 13.52-5.2a19.23 19.23 0 0 1 3.85-1.48.17.17 0 0 1 .17.27 16.48 16.48 0 0 1-2.94 2.83c-4.9 4.63-12.4 7.89-18.37 10.29-6.33 2.54-14.35 5-21.19 3.29-4.8-1.17-8.24-5-10.09-9.77a14 14 0 0 1-1.56-5.95.66.66 0 0 1 .1-.36c-.39-4.54.55-9.12 3-12.46.16-.22.48 0 .37.26-2.67 5.52-1.44 11.62 1.6 16.71 3.6 6.07 9.64 6.75 16.06 5.65a121.43 121.43 0 0 0 15.48-4.08z"/></g></g></g></svg>