<svg xmlns="http://www.w3.org/2000/svg" viewBox="0 0 795 800"><defs><style>.a{fill:none;}.b{fill:#434d5c;}</style></defs><title>Artboard 1</title><path class="a" d="M191.66,755.78c.14-.58.34-3.57.39-4.32,0-.31-.52-.45-.63-.13-3.15,8.32-6.21,16.75-9.22,25.18-.36,1-.68,1.89-1,2.83-.58,1.24-1.19,2.48-1.79,3.74-.23.63-.43,1.23-.66,1.86-1.17,4.07-2.51,8.12-3.8,12.12-.15.47-.29,1-.44,1.44h95A299.35,299.35,0,0,0,184.92,785C187.42,775.48,190.5,765.58,191.66,755.78Z"/><path class="a" d="M73.78,653.65l-.4-.48c-3.54-4-20.63-23.81-36.21-55.51C21.38,565.53,4.33,514.7,12.72,455c7.85-55.86,35.14-95,58.56-119.22a52.14,52.14,0,0,1-10.68,0C49,334.48,39.24,329.34,30,322.37c-9-6.82-17.94-13.11-29.61-13.7H0v69.07a12.52,12.52,0,0,0,3,1.67c5.67,2.18,12.5-1.21,13.47-7.38.92-5.75-2.63-9.12-6.45-12.63-.16-.14-.07-.43.13-.41,11.31.54,12.44,16.42,6,22.92-5.16,5.19-10.85,5.52-16.1,3.38V798.5H57.6C73.14,769.43,88.14,741,95.16,726,106.15,702.4,96.61,685,73.78,653.65Z"/><path class="a" d="M104.51,748.88c3.2-4.36,6.52-8.61,9.76-12.93.52-.2,1-.41,1.55-.59,5.49-1.86,10.57-2,16.28-1.25,2.88.36,5.74.78,8.59,1.23,1.46.43,2.95.83,4.43,1.19,10.23,2.63,57.63,7.74,71.82,9.07.51,0,.56-.77.06-.9-10.52-3-21.72-3.8-32.4-6.19a217.25,217.25,0,0,1-32.67-9.69c-9.66-3.84-20.88-8.74-29.09-16.16-2.27-3.47-3.62-7.51-4.92-11.4-1.38-4-12.06-21.9-13.56-23.21,9,17.56,11.15,33.62,2,53.16-6.67,14.32-20.27,40.17-34.75,67.29h1.08c3.92-6,9.34-14.74,12-19C91.27,769.27,97.32,758.66,104.51,748.88Z"/><path class="a" d="M19.75,124.48c-6.88-.41-13.25.6-19.75,1.76v8a91.26,91.26,0,0,1,27.77-8.92A74.19,74.19,0,0,0,19.75,124.48Z"/><path class="a" d="M6.46,112.34c5.21.24,10.41.69,15.58,1.39a23.86,23.86,0,0,0-1.3-2.34c-3.51-5.35-8.48-8.79-13-13.15a.42.42,0,0,1,.38-.7c5.94,1.33,11.2,5.46,15.72,9.38a57.56,57.56,0,0,1,5.08,4.81c2.54,1.64,5.1,3.24,7.8,4.63.65.14,1.28.25,1.91.41.34.06.68.15,1,.24-.43-.63-.86-1.26-1.31-1.84A99.44,99.44,0,0,0,26.9,102.62,92.34,92.34,0,0,0,0,85.35v21.81C2.57,108.54,5.12,110.19,6.46,112.34Z"/><path class="a" d="M42.88,110.24c.23.27.45.54.7.81A114.22,114.22,0,0,0,57.5,121.51c.56.34,1.15.63,1.71.94,3.08.84,6.16,1.74,9.24,2.75-4.21-7.13-8.79-14.21-12.55-21.54a.33.33,0,0,1,.5-.43c6.72,5.1,12.95,11.74,18.46,18.12,1.32,1.53,2.76,3.15,4.11,4.86,1.26,1,2.52,1.93,3.82,2.85.5.36,1,.7,1.51,1-.25-.47-.52-.92-.76-1.37A132.51,132.51,0,0,0,65,103.48C50.66,88.19,33.91,77.39,14.93,68.69c-.26-.11-.11-.54.18-.47,20,4.9,39.15,16.59,54.1,30.67.63.58,1.22,1.17,1.82,1.75l-.6-1.08c-.09-.13.09-.31.22-.2a162.54,162.54,0,0,1,11.09,12.89c1.26,1.5,2.47,3,3.66,4.58A177.54,177.54,0,0,0,97,130.37a169.9,169.9,0,0,0,14.46,13.42c.76.63,1.55,1.22,2.34,1.8-2.34-6.83-4.84-13.87-6.26-20.78a.28.28,0,0,1,.5-.24c5.58,6.61,10,15.42,13.69,23.2.74,1.53,1.55,3.15,2.32,4.81.83.57,1.62,1.15,2.43,1.73a100.87,100.87,0,0,0-3.67-16.5c-3.17-10-8.52-18.71-13.76-27.74a.44.44,0,0,1,.65-.57c17,13.45,26.27,37,28.31,58a5.13,5.13,0,0,1-.92,3.19,3.78,3.78,0,0,0,.29.36,34.1,34.1,0,0,0,8.12-11.67,58.51,58.51,0,0,0,0-21.07c-.06-.36.45-.47.63-.2,4.12,6.5,5.08,13.85,4.48,21.45a25,25,0,0,1-.81,6.93c-.23,1.32-.45,2.65-.77,4-.18,1.77-.33,3.55-.45,5.33a55.49,55.49,0,0,0,3.35,14.3,71.85,71.85,0,0,1,6,10.14,62.61,62.61,0,0,1,4.09,11.4,77.2,77.2,0,0,1,3.74,9.51,37.91,37.91,0,0,0,3.33-9.13,44.23,44.23,0,0,0,1.07-11.4,33.68,33.68,0,0,0-1.37-6.48,90.92,90.92,0,0,1-4.38-10.3c-.11-.29.29-.45.47-.22,1.33,1.93,2.61,3.91,3.82,5.94,3,2.09,4.19,6.29,5.33,9.6a38.54,38.54,0,0,1,2.43,13.53,44.16,44.16,0,0,1-2,13,42.6,42.6,0,0,0,9.87-13.22c3.37-6.88,4.79-14.86,5.21-22.44.3-5.24-.18-10.52-.29-15.76,0-.16,0-.29,0-.45-1-6.92-2.77-13.76-4.37-20.57,0-.14.16-.25.23-.11a72.8,72.8,0,0,1,6.25,16.66c2.56,7.57,3.44,16.34,3.76,24.12a65.78,65.78,0,0,1-.3,9.42c.43,11.9-7,22.53-13.17,32.13A147,147,0,0,0,173,250c-.58,1.91-1.16,3.82-1.66,5.8-.72,2.9-1.33,5.82-1.87,8.79,2.07-3,4.21-6,6.48-8.92,4.18-5.38,8.52-10.62,12.93-15.83,4.88-5.76,9-12.1,13.83-17.92a.13.13,0,0,1,.22.15c-6.25,12.6-13.06,25-19.58,37.49-.9,1.7-1.87,3.41-2.84,5.1,6.26-4.81,13.52-9.31,21.14-11.29a.79.79,0,0,1,.81,1.28c-4.68,5.2-9.83,9.87-14.44,15.16a57.15,57.15,0,0,0,13.45-7.69c10.52-8.46,15.07-20.46,19.31-32.83a.41.41,0,0,1,.81.07c1.11,13.49-5.89,26.87-14.3,37-1.3,1.58-2.76,3.15-4.29,4.7a55.61,55.61,0,0,0,12-8.14,56.65,56.65,0,0,0,10.7-13,63.44,63.44,0,0,0,3.1-10.79A97.44,97.44,0,0,0,230,208.84c-1.29-10.58-5-19.87-9-29.63a98.17,98.17,0,0,1-.11,15.8c-1.53,16.78-7.13,34.16-18.51,46.91a.33.33,0,0,1-.54-.36c7-13.32,11.6-27.17,12-42.3a110.75,110.75,0,0,0-7.8-42.36c-10.64-27.54-33.53-48.36-60-60.51a141.24,141.24,0,0,0-19.25-7.17,145.29,145.29,0,0,1,13.26,13.67c16.17,19,28.72,43.56,31.75,68.47.09.76-1.08.94-1.3.25-7.33-21.25-16.73-40.43-30.92-58a154.54,154.54,0,0,0-29.77-28.26c-1.37-.95-2.56-1.71-3.66-2.41,1.1,1.1,2.2,2.2,3.28,3.37,13.2,14.15,24.26,31,30.36,49.45.08.24-.3.45-.43.2-8.79-17.43-19.59-33.21-33.91-46.57A166.13,166.13,0,0,0,82.79,71.5c-2.4-1.55-4.85-3-7.33-4.36a163.69,163.69,0,0,0-39.68-9.08,119.77,119.77,0,0,1,16.3,7.64c20.42,11.51,38.7,28.92,49.06,50.17a.42.42,0,0,1-.7.45c-14.36-18-31.56-32.76-52.52-42.73A150.46,150.46,0,0,0,17.05,62.82c-5.4-1.21-11.29-1.61-17-2.37V69.8a90,90,0,0,1,19.12,9c.29.18.15.74-.23.61C12.68,77.18,6.4,75.1,0,73.49v11.4A82.18,82.18,0,0,1,29.73,98.26,76.64,76.64,0,0,1,42.88,110.24Z"/><path class="a" d="M216.29,772.46a300.19,300.19,0,0,1,65.7,26h28.34a132.66,132.66,0,0,0-28-12.7C258.53,778,243,774.85,216.29,772.46Z"/><path class="a" d="M34.09,264.47a67.63,67.63,0,0,1,23.7,6c12.41,5.69,25.32,15.92,29.52,29.37.07.22-.24.45-.42.27-6.48-6.5-12.64-13-20-17.92a65.92,65.92,0,0,0-16-6.73,65,65,0,0,0-9-1.71,71.26,71.26,0,0,0-26.62,2.95c2.14-.18,4.25-.29,6.37-.34a82,82,0,0,1,24.8,3.24c6.63,2,15.08,4.86,19.6,10.34.12.16-.06.38-.24.34-3.44-.94-6.57-2.81-9.94-4A65.52,65.52,0,0,0,44,283.33a84.24,84.24,0,0,0-22.82-.18A86.22,86.22,0,0,0,5.9,286.43l1.91-.26c12.68-1.58,29.7.18,39.53,9.15a.24.24,0,0,1-.23.4c-13-4.07-25.25-4-38.58-1.3-1.13.24-2.23.49-3.35.76,8.43-.27,17.26,1.58,23.56,7.13.18.16,0,.52-.22.45-6.1-2.14-12.28-3.89-18.78-3a37.28,37.28,0,0,0-4.45.9A34.45,34.45,0,0,1,20.38,304c11,5.53,18.77,15.76,30.22,20.62a52,52,0,0,0,18.75,3.82c5.6.18,11.24-.81,16.79-.63.57-.52,1.15-1,1.71-1.53,1.08-.94,2.18-1.86,3.29-2.81-8.12.86-17.3-.34-23.14-5.73a.41.41,0,0,1,.36-.7c7.94,2.27,14.79,2.63,21.94.72a35.67,35.67,0,0,1-11.87-3.55c-4.2-2.07-11.47-5.83-12.79-10.68,0-.05,0-.09.07-.09,2.69.72,4.56,2.72,7,4a25.59,25.59,0,0,0,10.19,2.86c7,.54,13.35-1.11,19.83-3.56,6.09-2.29,11.78-5.48,18-7.53a21.85,21.85,0,0,1,8.23-1.35c2.66-1.41,5.33-2.76,8-4-2-2.72-3.57-6-5.62-8.48a44.43,44.43,0,0,0-12.7-10.61.61.61,0,0,1,.25-1.13,31.23,31.23,0,0,1,16.95,5.13,43.86,43.86,0,0,1,4.79,3.73c.11-.42.22-.83.34-1.23a48.47,48.47,0,0,0-7.78-14.35c-5.71-7.1-13.38-11-21.45-14.88a.53.53,0,0,1,.22-1c12-.27,23.9,6.79,32.06,16.55.14-1.53.23-3.09.25-4.64a63.58,63.58,0,0,0-1.68-15.35c-.18-.36-.36-.72-.57-1.08-10-18-27.47-26.18-47.08-29.26-.27,0-.2-.4,0-.42,20.13-2.34,41.6,9.78,53.49,25.52.34.42.66.87,1,1.3-.65-2-1.37-4-2.18-5.91a66.55,66.55,0,0,0-9.92-16.57c-3.84-4.68-8.9-8.19-12.74-12.75-.16-.18.06-.41.24-.36,12.62,2.07,24.85,16.1,30.33,26.87.34.63.63,1.28.93,1.91a113.15,113.15,0,0,0-4.25-17.79c-1.26-1.89-2.3-4-3.62-5.8a38.66,38.66,0,0,0-9.78-9.31c-9.24-6.16-19.52-5.75-30-4.45a.27.27,0,0,1-.14-.49c9.49-6,22.51-4.72,32.24,0q.59.27,1.2.6a106.2,106.2,0,0,0-13-10.38c-10.21-6.64-22.08-10.86-34.33-11a49.86,49.86,0,0,0-31.68,10.2c-8.84,6.88-13.22,15.29-17.72,25.25-.14.34-.61.18-.65-.13-1.4-10.66,5.24-22.24,12.68-29.41,9.38-9,22.21-13.76,35.1-14.35a67.62,67.62,0,0,1,21,2.45c-2.47-1.39-4.94-2.74-7.44-3.86a96,96,0,0,0-32.47-7.62c-.27,0-.38-.43-.09-.52a66.16,66.16,0,0,1,32.81-.32,42.34,42.34,0,0,0-3.67-3.57c-.85-.72-1.73-1.42-2.61-2.12a1.89,1.89,0,0,1-2-.62c-.11-.14-.2-.27-.32-.41a54.74,54.74,0,0,0-10.43-2.36,61.68,61.68,0,0,0-34,6c-.45.2-1-.31-.6-.74,7.64-7.89,18.37-12.46,29.29-13.33-1.19-.66-2.36-1.29-3.55-1.89a67.38,67.38,0,0,0-14.14-.3c-11.24,1.2-20.78,5.09-31.1,9.43-.54.22-.85-.52-.56-.9,5.24-6.86,13.4-11.65,21.86-14.39a116.29,116.29,0,0,0-14-.39C26.38,134.78,12.89,138,1,144.8l-1,.62V271.24a63.42,63.42,0,0,1,6.48-3A58.76,58.76,0,0,1,34.09,264.47Z"/><path class="a" d="M0,119.12v3.46a57.14,57.14,0,0,1,10.3-2.42C6.88,119.73,3.44,119.39,0,119.12Z"/><path class="a" d="M348.9,604.05A299.28,299.28,0,0,0,369.16,557a195.41,195.41,0,0,0,5.44-20.24,407.44,407.44,0,0,1-15.31,39.44,394.66,394.66,0,0,1-27.77,50.68,247.11,247.11,0,0,1-16.95,23.41,136,136,0,0,0,18.88,9.1,145.42,145.42,0,0,1-14-9.71,194.77,194.77,0,0,0,15.36-21.34Q342.34,616.45,348.9,604.05Z"/><path class="a" d="M333.22,488.46a1.23,1.23,0,0,0,1,.91c6.08.88,12.37-.92,18.36-1.93,6.39-1.08,12.83-1.94,19.27-2.56,13.71-1.31,27.46-1.7,41.09-3.61a.06.06,0,0,0,0-.11c-13.75-.7-27.47.12-41.2,1.24-12.28,1-24.83,2-37,4.19-.94-2-3.12-3.88-4.54-5.4-2.15-2.31-4.26-4.78-6.59-6.9,0,0-.08,0-.06,0a42.21,42.21,0,0,0,4.78,7.17C329.89,483.61,331.2,486.76,333.22,488.46Z"/><path class="a" d="M98,627.55c-6-8-25.88-45.08-30-55.42a.43.43,0,0,0-.83.24c2.47,11.49,19.94,51.79,25.79,59.52,6.27,8.32,38.72,35.32,48,41.06.11.06.23-.12.14-.21C125.51,659.43,110.25,644,98,627.55Z"/><path class="a" d="M200.55,506l.13-.2c25.07-32.25,44.77-67.57,65.18-102.78a.28.28,0,0,1,.5.25,461.48,461.48,0,0,1-44.05,83.3c.54,2.23,1.33,4.16,3.55,5.42a5.76,5.76,0,0,0,1.6.61c1.66-.3,3.24-.56,4.72-.88,9.81-2.09,19.7-3.93,29.5-6a.39.39,0,0,1,.25.74c-9.44,3.19-18.82,6.63-28.26,9.85-.79.27-1.62.56-2.45.87,5.57-.81,11.17-1.55,16.79-2.18,7.15-.76,14.28-1.68,21.43-2.65,6.61-.88,13.76-2.74,20.44-2.11.27,0,.2.36,0,.45-6.32,2.92-14.19,3.57-21,5q-9.87,2.08-19.69,4.34c4.14-.45,8.29-.9,12.43-1.28,6.52-.63,13.07-1,19.59-1.38,7.21-.4,14.57-1.79,21.78-1.32.23,0,.34.36.07.42-6.2,2-12.95,2.32-19.36,3.42-3,.5-5.93,1-8.9,1.53,10.9.38,21.81.63,32.71.92,5.92.16,11.83.45,17.74.72.9.05,1.83.07,2.75.09,52.79-2.52,96-6.61,128-12-3.21-4.38-8.45-11.91-17.51-25-10.14-14.63-20.31-29.41-20.4-29.56l-.54-.77-.11-.92c-6-45.31-52.73-114-125.33-127.94C277.56,381.55,222.81,465.41,193.73,506ZM239.71,486a5.91,5.91,0,0,1-3.91,3.77c-4.11,1.15-8.25-2.73-7.89-6.84.31-3.54,4.48-6.36,7.88-4.87,1,.42,1.78,1.72.49,2.28-.59.26-1.28,0-1.88.18a4.15,4.15,0,0,0-2.12,1.38,2.73,2.73,0,0,0,2.19,4.33c2.42-.12,2.66-2.8,4.05-4.13a0,0,0,0,1,0,0C240.17,482.62,240.13,484.51,239.71,486Zm169.41-35.72,17,31.07a3.17,3.17,0,0,1-2.49,4.68L333,494.14a4.51,4.51,0,0,1-4.19-2L318.35,476a3.18,3.18,0,0,1,1.82-4.79L404,448.05A4.5,4.5,0,0,1,409.12,450.23ZM398,436.93c-5.52,2.55-11.9,3.64-17.77,5.21-6.32,1.69-12.52,3.74-18.8,5.57C349.25,451.28,337.2,455.35,325,459c-11.9,3.55-23.71,7.07-35.86,9.6s-23.66,7.92-35.84,9.78c-.1,0-.16-.15-.06-.2,10.58-5.44,22.82-7.84,33.92-12.15a373.75,373.75,0,0,1,37.33-12.15c12.29-3.35,24.74-6.21,37.13-9.16,6-1.43,12.09-2.68,18.1-4.19s12.11-3.61,18.23-4C398.19,436.54,398.21,436.84,398,436.93ZM290.88,383.29a6,6,0,0,0,4.71,2.57c1.83.07,4-.54,5-2.17a3.91,3.91,0,0,0-1.39-5.31s0,0,0,0a4.61,4.61,0,0,1,3.4,5.79c-.78,3.27-4.43,5.15-7.57,5s-6.88-2.1-7.46-5.49a6,6,0,0,1,4.5-6.82.41.41,0,0,1,.26.78C289.94,378.55,289.59,381.34,290.88,383.29Zm6.44-60.88c1.12-3.17,2.36-3.61,2.36-3.61a88.1,88.1,0,0,1,10.85,3.38c4.2,1.87,8.36,3.86,12.4,6.06a193.53,193.53,0,0,1,21,13.23c13.54,9.83,27.81,21.93,36.49,36.41.21.35-.25.73-.52.45-16.59-17.21-26-22.75-36.37-29.46-3.67-2.37-11.49-7.2-15.28-9.32l.22.15c9.3,6.65,24.51,23.9,24.51,23.9s-.2.59-.47.39c-8.87-6.91-17.59-13.93-27.34-19.61-4.53-2.64-15.48-7.87-16.26-8.18l-14.32,19.31c-3.44,5.63-6.59,11.61-10.3,17.09a60.93,60.93,0,0,1-6.51,9.38.13.13,0,0,1-.22-.12C283.62,365.11,296.27,325.4,297.32,322.41ZM268.9,436c-.62,2.85-3.77,4.54-6.49,4.45s-6.1-1.84-6.52-4.86a5.17,5.17,0,0,1,4-5.79.41.41,0,0,1,.25.79c-3.84,1.51-.75,5.94,2,6.47a5.31,5.31,0,0,0,4.23-.95,3.16,3.16,0,0,0-.51-5s0,0,0,0A3.92,3.92,0,0,1,268.9,436Z"/><path class="a" d="M164.48,626.83c2.56,16.3,11,56.06,12.7,59.27,0,0,.07,0,.07,0-.49-7.15-1.91-14.19-2.25-21.38-.38-8.21-.69-16.42-.74-24.65-.07-8.41-.09-16.79-.45-25.23-.18-4.29-1.21-29.86-2.4-32.28-1.87-3.83-4-7.54-6.21-11.22-5.06-8.5-13-20-14.46-31-2.11-8.14-1.89-15.36.88-21.11s9.13-12.5,24.49-13.18C177,506,178,506,179,506a8.21,8.21,0,0,0,3.06-.29c5.1-10.9,13.94-20.15,20.32-30.4a248.42,248.42,0,0,0,16.94-32.78,250.51,250.51,0,0,0,12.18-34.81,162.71,162.71,0,0,0,4.09-18.52,54,54,0,0,0,.61-7.9A171.68,171.68,0,0,0,216,379.79c-14.41-.27-29.82.34-43.82,4a.19.19,0,0,1-.14-.36c14.48-6.34,28.65-11.24,44.57-12.41,1.64-.11,3.26-.18,4.87-.22-5.44-.79-10.9-1.26-16.41-1.55a160.22,160.22,0,0,0-25.23.9c-6.79,1.46-13.51,3.26-20.17,5.17-9.69,2.81-18.64,6.74-28,10.27-.16.05-.3-.15-.16-.24,15-13.68,36-22.2,55.72-25.93A160.48,160.48,0,0,1,204,357.13a179.61,179.61,0,0,0-22.85,0c-16.93.92-33.86,6-49,13.52-2.66,1.32-5.22,2.74-7.78,4.2q-11.57,9-23.12,18.12a127.89,127.89,0,0,0-33.57,64.78c-6.07,33,.07,67,15.27,96.75.7,1.4,1.44,2.75,2.18,4.12,0-.25.05-.52.09-.77-5.08-16.21-9.06-33.63-9.71-50.7a113.13,113.13,0,0,1,2-42.88.19.19,0,0,1,.36.05C75.91,501.59,89,538,110.7,567.92c-.83-2.34-1.62-4.72-2.32-7.13-4.25-14.75-7.46-31-7.17-46.52-.16-2.67-.23-5.35-.18-8,0-.32.47-.45.54-.11,2.83,13.13,5.78,26.42,11.2,38.76a188.44,188.44,0,0,0,20.61,35.84,166.42,166.42,0,0,0,19.41,21.92c-1.64-2.27-3.24-4.58-4.81-6.88a162.1,162.1,0,0,1-12.12-20,104,104,0,0,1-9.54-23c0-.11.14-.2.21-.09a266.65,266.65,0,0,0,14.81,24.44c1.74,2.07,3.51,4.12,5.4,6.08,4.72,3.75,9.35,7.57,14.17,11.22C160.82,596.52,163.13,618.29,164.48,626.83Z"/><path class="a" d="M195.42,636.09c2.88-1.88,5.31-4.29,5.26-8-.07-5.51-5.93-9.83-11.2-9.6a8,8,0,0,0-6.92,4.25c-.92,1.84-.36,3.3.2,5.1a12,12,0,0,0,.7,2.63c.56,1,1.46,2,2.09,2.95a.07.07,0,0,0,.13-.07c-.4-1.84-.83-4.63.3-6a19.32,19.32,0,0,0,1.41-1.75c.34-.52.38-.66.59-.81,1.12-1,2.76-1,4.65-.52a7.87,7.87,0,0,1,4.68,3.76c1.26,2.6-.43,5.8-2.11,7.77A.17.17,0,0,0,195.42,636.09Z"/><path class="a" d="M327.9,722.5c-1,0-2,.09-3,.14a.46.46,0,0,0-.29-.11c-17.27.81-34.38,2.54-51.69,2.31a328.4,328.4,0,0,1-49.67-4.72,311.32,311.32,0,0,1-34.78-7.53c-27.59-10.84-53.31-25.68-75.28-45.67-45.65-41.57-74.83-106-68.47-167.46,2.12-20.38,9.45-40.93,17.43-59.75C69.86,421.46,81.4,405.38,90,387.8c-34,34.6-53.55,84.76-52.48,143.52,2,107.25,110.22,193.59,205.69,199.14,12.57.72,26,.81,39.89.25,15.07-1.71,30.06-4.54,44.88-7.64C328.33,723,328.21,722.5,327.9,722.5Z"/><path class="a" d="M0-1.5V45.81c3.52.76,7.06,1.41,10.62,2,34.49-.56,68.4,8.09,96.77,26.44,5-.38,10,1.08,15.13,2.34a160.71,160.71,0,0,1,23.25,7.6c2,.85,4.07,1.75,6.1,2.7a36.23,36.23,0,0,1-7.81-18.44c-1.55-14,9.25-27.84,24.06-26.29a20.34,20.34,0,0,1,15.63,10.46c2.27,4.18,3.64,10.75.52,14.82a.2.2,0,0,1-.34-.07c-2.29-5.67-3.26-11.42-9.15-14.68a14.75,14.75,0,0,0-16.57,2c-10.32,9.51.33,24.62,7.78,31.83,9,8.75,19,16.42,26.33,26.76a79.18,79.18,0,0,1,5.08,8.14,106.73,106.73,0,0,1,16.67,28.13c4.83,6.09,8.53,13.53,11.84,20.14a106.32,106.32,0,0,1,5.48,12.42c.38.92.77,1.83,1.13,2.72-.29-5.85-1.87-11.66-1.4-17.55a23,23,0,0,1,2.16-8.31c1.49-5.35,5.23-10.3,11.18-10.21a.35.35,0,0,1,.2.65c-10.21,8-6.27,19.72-2.56,30.11a80.07,80.07,0,0,1,4.83,27.66,96.1,96.1,0,0,1-4.13,28c-1.22,4-2.57,8.77-4.79,12.82a66.63,66.63,0,0,1-8.62,18.51,47.63,47.63,0,0,0,12.46-1.21c9-2.31,12.55-8.46,19.12-14,.35-.65.72-1.26,1-1.93a.26.26,0,0,1,.49.11c.7,12.46-9.93,23.11-20.37,28.2-7,3.39-15,4.67-22.71,5.06-1.86.09-3.86.22-5.91.26l-.2.12s-1.23,4.94,0,4.9c39.43-2.09,77.11,6.05,77.11,6.05,46.59,7.6,78.83,34.46,97.68,55.65,21.91,24.65,37.32,55,41.39,81.48,11.95,17.42,30.2,43.8,37.1,53.31A222.56,222.56,0,0,0,495.75,477l9.15-3.18,2,9.49c1.75,8.43.36,25.18-10.41,37.52-21.64,85-59.9,135.5-85.3,169-3.63,4.78-6.83,9-9.68,12.93a53.24,53.24,0,0,1-.63,34.21l-3.44,9.25-13.88-7.65L369.78,731c-6,1.69-12.59,3.25-19.6,4.63a182.43,182.43,0,0,0-21.44,7.13l-2.63,1c-5.88,2.25-9.07,4.15-9.47,5.64,0,.14-.88,3.68,6.91,13.39C328,768.36,337.7,781.54,349,798.5H800V-1.5Z"/><path class="a" d="M158.9,347.93a254.33,254.33,0,0,1,46.95-6.45,272.45,272.45,0,0,1,43.58,1.89c2.49.27,14,2.9,17.13,4.2-5.82,14.82-11,29.82-17.13,44.54-2.23,5.33-4.54,10.59-6.86,15.88a4.88,4.88,0,0,0-.22.51c-2.91,6-6.3,11.79-8.39,18.1a1,1,0,0,0,.11.79c-.54,1.4-1,2.79-1.51,4.18,15.61-27.07,30.85-57.49,41.4-87.82a268.59,268.59,0,0,0-48.84-6.39c-6-.24-12.05-.24-17.92,0-26.28,1.16-50.43,7.35-71.77,17.74C143.19,352.5,150.92,349.82,158.9,347.93Z"/><path class="a" d="M61.93,382.26c2.18-3.55,4.52-6.94,6.86-10.2,7.53-10.5,16.09-21,25.58-29.82.07,0,.14,0,.09.09-2.25,3.15-4.63,6.21-7.06,9.24-6.47,9-12.88,18-18.77,27.39-1.76,2.81-3.46,5.62-5.15,8.48-.38.81-.81,1.59-1.17,2.42a237.21,237.21,0,0,0-10.88,28.2q-3.75,11.88-6.3,24A182.05,182.05,0,0,1,78.61,388c30.56-34,73.77-54.46,122.18-58l.18-44.05q-2.92-.06-5.95.07c-32,1.41-71.12,19.11-102,46.18-26.26,23-59.38,63.23-68,124.48a223.39,223.39,0,0,0,5.55,88.09c-.11-1-.2-2.13-.29-3.19-.56-3.17-1-6.34-1.51-9.35a174.17,174.17,0,0,1-2.25-26.15.28.28,0,0,1,0-.12c-1.19-12,.56-24.73,1.93-36.67,1.28-11.22,2.88-22.93,7.11-33.5.18-.63.34-1.26.54-1.87C40.88,418.22,48.5,403.74,57.41,390,58.8,387.39,60.31,384.78,61.93,382.26Zm55-39.05c4-2.85,8-5.54,11.93-8.07a242.2,242.2,0,0,1,38.28-19.58,140,140,0,0,0,13.61-8.63,66.69,66.69,0,0,0,14.17-14.37c-.44,10-.12,31.4-.28,31.37-9.45-1.93-21.39,1.62-30.56,4a164.19,164.19,0,0,0-30.15,11q-4.41,2.1-8.73,4.48-10.41,6.38-20.5,13.18-2.07,1.55-4.14,3.15l-.69.5c-3.73,2.92-7.43,5.89-11.2,8.77-3.38,3.45-6.66,7-10.13,10.5-.28.29-.85-.06-.61-.43,5.32-8.17,13.18-15,20.41-21.45A193.44,193.44,0,0,1,116.89,343.21Z"/><path class="a" d="M205.9,750.92c-3.33-.18-6.75,1.69-7.6,5.11a11.39,11.39,0,0,0,.94,6.63,7,7,0,0,0,4.61,3.71.37.37,0,0,0,.32-.63c-.95-.85-2.36-1.93-2.61-3.19s-.45-2.29.31-3.33c.34-.45.77-.88,1.15-1.33.61-.67.34-.36,1.15-.92l.27-.16c.18-.08.38-.13.58-.2-.07.07.63,0,1,0l.67.09a9.1,9.1,0,0,1,1,.27s.67.29,1.21.58a8.34,8.34,0,0,1,.79.48,2.22,2.22,0,0,1,.38.27,15.16,15.16,0,0,1,1.58,1.3,7.24,7.24,0,0,1,1.28,2,2.9,2.9,0,0,1,.11.92,2.65,2.65,0,0,1-.47,1.2c-.88,1.25-2.48,1.7-3.35,2.85a.35.35,0,0,0,.09.52c1.46.58,3.87-.23,5.15-1a6,6,0,0,0,2.67-3.58C218.6,756.3,211.29,751.22,205.9,750.92Z"/><path class="a" d="M195,682.35a12.16,12.16,0,0,0,6.77-9c.53-4.83-3.74-9.15-8.12-10.37-4.14-1.14-11,.66-11.85,5.6a13.63,13.63,0,0,0,1.3,7c.72,1.57,1.44,3.62,3.08,4.38.36.18.88-.15.7-.58a12.81,12.81,0,0,1-1.28-3.75A7.9,7.9,0,0,1,187,671.1a5.27,5.27,0,0,1,5.77-2.27,7.22,7.22,0,0,1,5.47,6c.42,2.83-1.49,5.33-3.37,7.26A.19.19,0,0,0,195,682.35Z"/><path class="a" d="M311.78,767.81c5.35,9.83,11.2,19.43,16.68,29.23l.63,1.46h3.26c-6.12-10.15-13.21-19.66-19.67-29.52C312.39,768.57,312.07,768.19,311.78,767.81Z"/><path class="a" d="M169.2,790.25c.63-1.73,1.28-3.44,1.94-5.15a290.82,290.82,0,0,0-34.63,3.13A223.35,223.35,0,0,1,169.2,790.25Z"/><path class="a" d="M178.92,513.73c-10.62,0-17.47,2.95-20.29,8.84-4.38,9.13.57,24.89,13.23,42.16,53,72.33,140.48,120.49,217.65,163l1,.56a44.23,44.23,0,0,0,.95-6.41,29.42,29.42,0,0,0-.81-8.65c-.92-3.08-2.54-6.23-4.1-7.58-11.39-8.48-20.64-9-54.59-26.15-8.88-4.45-19.38-9.89-28.15-14.55,5.31,3.83,10.68,7.58,16.21,11.13,19.27,12.39,39.82,23.81,61.05,32.49.2.09.07.45-.14.36-22-7.93-43-16.66-63.25-28.42-10.47-6.07-20.86-12.43-30.93-19.13-6.62-4.41-13.38-8.91-19.7-13.92-1.6-1.15-3.17-2.29-4.72-3.46-12.77-9.51-24.11-18.13-35.93-28.81A437.86,437.86,0,0,1,192,580.56c-5.1-5.78-10-11.69-14.66-17.86-4.14-5.53-9-11.64-11.62-18.05a18.7,18.7,0,0,1-.79-2.32c-3.19-12.12,8.32-20.23,20.23-17.4.79.2,1,1.55.07,1.73-3.15.56-6.34.79-9.26,1.76a11.61,11.61,0,0,0-6,8.88,12.64,12.64,0,0,0,2,7.91,22,22,0,0,0,5.26,4.16,21.34,21.34,0,0,0,3.37,1.46,13.27,13.27,0,0,0,9.53-2c5.44-3.68,5.42-17.2,5.47-17.15,5.75,4.23,5.46,13.56,1.82,19.07-2.23,3.37-3.19,11.44-2.07,15.28,1.44,5,5.62,10.12,8.68,14.22,10.63,14.39,26.26,25.88,40.13,37,14.46,11.62,29.71,22.39,46.23,30.87-13.76-10.52-27.36-21.14-40.42-32.54-16.64-14.54-33-29.72-47.07-46.81-.06-.07.05-.16.12-.11,9.73,7.62,19.31,15.44,28.93,23.2,6.55,4.61,12.89,9.56,19.59,14a299.68,299.68,0,0,0,26.33,15.51c1-1.28,1.95-2.59,2.9-3.87-4.48-3.06-8.9-6.2-13.27-9.46-13-9.74-26-19.25-38.24-30-.21-.18,0-.54.27-.41,13.17,8.19,26,17.11,39.57,24.65q8.13,4.51,16.39,8.79c1.35-1.89,2.65-3.78,4-5.69a101.37,101.37,0,0,1-15.25-8.55c-.15-.11-.09-.42.14-.36,5.6,2,11.06,4.39,16.5,6.84a230.09,230.09,0,0,0,31.91-70c2.72-.65,23.29-1,23.29-1-5.89,27.21-25.34,68-52.52,100.8a1.78,1.78,0,0,1-.32.29c2.14-.29,4.48-.9,5.69-2,4,1.75,8.07,3.46,12.17,5,1.84.72,3.71,1.37,5.57,2a.31.31,0,0,0,.11-.16c-3.68-1.73-7.35-3.53-10.95-5.46-1.79-.94-3.55-1.93-5.3-2.95,2.56-2.45,5-5,7.37-7.69.66.3,1.29.61,1.91.93q5.1,2.38,10.24,4.72l3.28,1c1.62-2.41,3.21-4.83,4.79-7.31-4.93-1.82-9.78-3.75-14.62-5.8.7-.83,1.4-1.64,2.07-2.47q7.35,2.46,14.82,4.65c.87-1.41,1.75-2.83,2.61-4.27l-.79-.27c-4.25-1.42-8.84-2.7-13.42-4.11,1-1.31,2-2.64,3-4,3.56,1.05,7.09,2.07,10.59,2.79l3.49.74C348.36,586.85,359.45,562,369.23,531c3.77-.88,32.73-3.35,32.73-3.35-5,31.54-29,82.18-63.6,126.23,6.27-4.05,11.66-10.26,16.66-16.28,1.88.47,3.8.94,5.68,1.39q5.13,1.24,10.28,2.39c1.51-2.07,3-4.16,4.47-6.28q-7.76-1.58-15.44-3.53l.36-.42c1.26-1.47,2.45-3,3.66-4.43,5,1.14,10,2.18,15,3.17,1.11-1.62,2.21-3.29,3.29-4.93-4.88-.74-9.74-1.62-14.59-2.54,2-1.91,3.91-3.89,5.75-5.91,4.27.76,8.57,1.5,12.84,2.22,16.17-25.63,30.2-54.79,41.78-91.51,4.34,0,34.53-2.27,34.53-2.27-5.73,36.16-35.21,99.5-76.44,148.08l-.41.86a0,0,0,0,0,0,0c6.84-4.23,12.64-11.56,17.65-17.72q3.13-3.84,6.05-7.82c3.08.47,6.16,1,9.18,1.66-4.55,6.52-28.58,39.71-29.12,40.36a4.42,4.42,0,0,1-1.17.45c-3.1-1.44-6.34-2.63-9.56-3.84-6-2.54-12-5.11-18-7.83-5.32-2.43-10.83-4.25-16.25-6.45-4.75-1.93-22.82-9.06-23.95-9.51,10.35,7.19,29.5,14.79,38.83,19.45,10.57,5.26,19.77,9.49,30.6,14.21l.27.09c3.22-4.48,6.84-9.24,10.93-14.64,23.3-30.69,57.65-76,79.17-150a15.86,15.86,0,0,0,.09-2.3c-.25-6.45-3.57-11.74-9.53-13.49-6.32.81-12.66,1.53-19,1.91-6.77.43-13.56.63-20.35.86s-13.79,1.05-20.42,0v0c6.27-1.25,12.91-1,19.27-1.55,6.79-.56,13.56-1.44,20.28-2.4,5.46-.77,10.91-1.53,16.35-2.36,1.73-.32,3.48-.54,5.21-.81,2.27-.41,4.59-.95,6.91-1.44a21.59,21.59,0,0,0,3.23-1.26,28.63,28.63,0,0,0,7.83-5.42,38.45,38.45,0,0,0,3.84-5.64c.68-1.63,1-5.69,1-8.12-32.78,10.14-92.79,17.4-174.28,21C277.74,513.17,230,514,178.92,513.73Zm10.42,27.75c-1.6,3.38-5.46,4.43-8.82,3.17-3.11-1.16-5.81-4.89-4.77-8.31.5-1.63,2.07-3,3.35-4a5.71,5.71,0,0,1,4.5-1.35.52.52,0,0,1,.05,1,6.24,6.24,0,0,0-3.4,1.51,3.06,3.06,0,0,0-1,2.86,4.37,4.37,0,0,0,3,4.42,4.24,4.24,0,0,0,4.67-1.32c1.65-1.83.92-3.3.83-5.41a.4.4,0,0,1,.58-.36C190.61,535,190.32,539.42,189.34,541.48Zm236.6,95.79,0,.05q-.45.82-.87,1.68a26.44,26.44,0,0,0-1.64,3q-4.31-.39-8.6-.85l1.62-2.34c.89-1.06,1.78-2.13,2.66-3.21q2.9.26,5.79.45a3.15,3.15,0,0,1,1.52.49Zm7.44-9.92a42.55,42.55,0,0,1-8.38.42c.53-.77,1-1.55,1.54-2.33a44.18,44.18,0,0,1,6.89,1.35A.29.29,0,0,1,433.38,627.35ZM205.5,525.51a10.46,10.46,0,0,1-4.17,0,12.67,12.67,0,0,1-4.34-1.05.28.28,0,0,1,0-.51,12.79,12.79,0,0,1,4.45-.24,10.54,10.54,0,0,1,4.11.72A.62.62,0,0,1,205.5,525.51Zm16.26,4.33c-1.61,3.38-5.47,4.43-8.83,3.17-3.11-1.17-5.8-4.89-4.77-8.31.5-1.64,2.07-3,3.35-4.05A5.82,5.82,0,0,1,216,519.3a.53.53,0,0,1,0,1.05,6.3,6.3,0,0,0-3.4,1.5,3.08,3.08,0,0,0-1,2.87,4.37,4.37,0,0,0,3,4.42,4.25,4.25,0,0,0,4.68-1.32c1.64-1.83.92-3.3.83-5.41a.39.39,0,0,1,.57-.36C223,523.4,222.73,527.78,221.76,529.84Zm36.4-2.45c-4.71,1.64-10,.76-14.91.48a143.08,143.08,0,0,1-14.92-1.53c-.13,0-.1-.2,0-.22a153.85,153.85,0,0,1,16.91-.73c4.39,0,8.84-.39,13,1.28C258.55,526.8,258.45,527.29,258.16,527.39Zm17.3,1.79c-1.6,3.38-5.46,4.43-8.82,3.17-3.12-1.17-5.81-4.89-4.77-8.31.5-1.64,2.07-3,3.35-4a5.79,5.79,0,0,1,4.5-1.35.52.52,0,0,1,0,1,6.24,6.24,0,0,0-3.4,1.51,3.07,3.07,0,0,0-1,2.87,4.37,4.37,0,0,0,3,4.42,4.22,4.22,0,0,0,4.67-1.33c1.65-1.82.92-3.29.83-5.4a.4.4,0,0,1,.58-.36C276.72,522.74,276.44,527.12,275.46,529.18Zm43.77-2.67c-12.76,1.41-26.8,2.92-39.49.34-.65-.14-.77-1.25-.06-1.38,12.76-2.47,26.77-.87,39.58.65C319.49,526.15,319.43,526.48,319.23,526.51Zm72.32-13.16c1.39-2.08,4.32-3.81,6.78-2.67a.76.76,0,0,1-.12,1.39c-1.67.53-3.42.79-4.35,2.49-.81,1.47-.09,3.53,1,4.69a4.07,4.07,0,0,0,4.53.87c1.45-.58,2-2,3.23-2.71h0c1.5,1.87-1.26,4.73-2.8,5.6a6.43,6.43,0,0,1-8.05-1.61A6.35,6.35,0,0,1,391.55,513.35Zm-52.14,9.14c7.51-1.79,15.78-2.12,23.47-2.65a101.87,101.87,0,0,1,23.66.9.24.24,0,0,1,0,.46,102.73,102.73,0,0,1-23.5,2.54c-7.71,0-16,.26-23.63-1A.13.13,0,0,1,339.41,522.49Zm-15.21-7.73a5.75,5.75,0,0,1,4.51-1.35.52.52,0,0,1,0,1,6.27,6.27,0,0,0-3.4,1.51,3.07,3.07,0,0,0-1,2.87,4.37,4.37,0,0,0,3,4.41,4.23,4.23,0,0,0,4.68-1.32c1.64-1.83.92-3.29.83-5.4a.4.4,0,0,1,.57-.37c2.28,1.36,2,5.73,1,7.79-1.6,3.39-5.47,4.43-8.82,3.17-3.12-1.16-5.81-4.88-4.77-8.31C321.35,517.17,322.93,515.81,324.2,514.76Z"/><path class="a" d="M425,559A200.49,200.49,0,0,0,431.17,536c.07-.32.14-.68.23-1.1A321.07,321.07,0,0,1,413.23,582,477.6,477.6,0,0,1,378.33,642c-6.47,9.56-13.24,18.89-20.1,28.15a222.13,222.13,0,0,0,21.86,8.37c-5.74-2.95-11.4-6-16.84-9.47a442.23,442.23,0,0,0,36.33-54.28A322.5,322.5,0,0,0,425,559Z"/><path class="a" d="M326.62,538.15c0-.22.11-.47.18-.76-2.41,7.84-5,15.58-8.19,23.18s-6.65,14.79-10.47,21.94a345.73,345.73,0,0,1-26.4,41.26l-3.15,4.28c-.29.4-.45.45-.31.78s.81.63,1.08.86a50.38,50.38,0,0,0,11.21,6.45,49.21,49.21,0,0,1-8.07-7.8c15.74-21.25,29.5-43.94,38.25-69A180.19,180.19,0,0,0,326.62,538.15Z"/><path class="b" d="M316.64,749.4c.4-1.49,3.59-3.39,9.47-5.64l2.63-1a182.43,182.43,0,0,1,21.44-7.13c7-1.38,13.59-2.94,19.6-4.63l13.75,7.58,13.88,7.65,3.44-9.25a53.24,53.24,0,0,0,.63-34.21c2.85-3.93,6-8.15,9.68-12.93,25.4-33.49,63.66-83.94,85.3-169,10.77-12.34,12.16-29.09,10.41-37.52l-2-9.49L495.75,477a222.56,222.56,0,0,1-29.15,7.49c-6.9-9.51-25.15-35.89-37.1-53.31-4.07-26.46-19.48-56.83-41.39-81.48-18.85-21.19-51.09-48-97.68-55.65,0,0-37.68-8.14-77.11-6.05-1.23,0,0-4.9,0-4.9l.2-.12c2,0,4-.17,5.91-.26,7.74-.39,15.7-1.67,22.71-5.06,10.44-5.09,21.07-15.74,20.37-28.2a.26.26,0,0,0-.49-.11c-.33.67-.7,1.28-1,1.93-6.57,5.54-10.1,11.69-19.12,14a47.63,47.63,0,0,1-12.46,1.21A66.63,66.63,0,0,0,238,248c2.22-4.05,3.57-8.84,4.79-12.82a96.1,96.1,0,0,0,4.13-28,80.07,80.07,0,0,0-4.83-27.66c-3.71-10.39-7.65-22.1,2.56-30.11a.35.35,0,0,0-.2-.65c-6-.09-9.69,4.86-11.18,10.21a23,23,0,0,0-2.16,8.31c-.47,5.89,1.11,11.7,1.4,17.55-.36-.89-.75-1.8-1.13-2.72a106.32,106.32,0,0,0-5.48-12.42c-3.31-6.61-7-14.05-11.84-20.14a106.73,106.73,0,0,0-16.67-28.13,79.18,79.18,0,0,0-5.08-8.14C185,102.94,175,95.27,166,86.52c-7.45-7.21-18.1-22.32-7.78-31.83a14.75,14.75,0,0,1,16.57-2c5.89,3.26,6.86,9,9.15,14.68a.2.2,0,0,0,.34.07c3.12-4.07,1.75-10.64-.52-14.82a20.34,20.34,0,0,0-15.63-10.46c-14.81-1.55-25.61,12.33-24.06,26.29a36.23,36.23,0,0,0,7.81,18.44c-2-1-4.05-1.85-6.1-2.7a160.71,160.71,0,0,0-23.25-7.6c-5.1-1.26-10.16-2.72-15.13-2.34C79,55.92,45.11,47.27,10.62,47.83c-3.56-.61-7.1-1.26-10.62-2V60.45c5.76.76,11.65,1.16,17.05,2.37A150.46,150.46,0,0,1,47.92,73.59c21,10,38.16,24.72,52.52,42.73a.42.42,0,0,0,.7-.45C90.78,94.62,72.5,77.21,52.08,65.7a119.77,119.77,0,0,0-16.3-7.64,163.69,163.69,0,0,1,39.68,9.08c2.48,1.4,4.93,2.81,7.33,4.36a166.13,166.13,0,0,1,22.69,17.92c14.32,13.36,25.12,29.14,33.91,46.57.13.25.51,0,.43-.2-6.1-18.42-17.16-35.3-30.36-49.45-1.08-1.17-2.18-2.27-3.28-3.37,1.1.7,2.29,1.46,3.66,2.41a154.54,154.54,0,0,1,29.77,28.26c14.19,17.54,23.59,36.72,30.92,58,.22.69,1.39.51,1.3-.25-3-24.91-15.58-49.51-31.75-68.47a145.29,145.29,0,0,0-13.26-13.67,141.24,141.24,0,0,1,19.25,7.17c26.46,12.15,49.35,33,60,60.51a110.75,110.75,0,0,1,7.8,42.36c-.39,15.13-5,29-12,42.3a.33.33,0,0,0,.54.36c11.38-12.75,17-30.13,18.51-46.91a98.17,98.17,0,0,0,.11-15.8c4,9.76,7.69,19,9,29.63a97.44,97.44,0,0,1-1.16,30.22,63.44,63.44,0,0,1-3.1,10.79,56.65,56.65,0,0,1-10.7,13A55.61,55.61,0,0,1,203,271c1.53-1.55,3-3.12,4.29-4.7,8.41-10.09,15.41-23.47,14.3-37a.41.41,0,0,0-.81-.07c-4.24,12.37-8.79,24.37-19.31,32.83A57.15,57.15,0,0,1,188,269.82c4.61-5.29,9.76-10,14.44-15.16a.79.79,0,0,0-.81-1.28c-7.62,2-14.88,6.48-21.14,11.29,1-1.69,1.94-3.4,2.84-5.1,6.52-12.48,13.33-24.89,19.58-37.49a.13.13,0,0,0-.22-.15c-4.81,5.82-8.95,12.16-13.83,17.92-4.41,5.21-8.75,10.45-12.93,15.83-2.27,2.9-4.41,5.89-6.48,8.92.54-3,1.15-5.89,1.87-8.79.5-2,1.08-3.89,1.66-5.8a147,147,0,0,1,8.53-14.62c6.13-9.6,13.6-20.23,13.17-32.13a65.78,65.78,0,0,0,.3-9.42c-.32-7.78-1.2-16.55-3.76-24.12A72.8,72.8,0,0,0,185,153.06c-.07-.14-.27,0-.23.11,1.6,6.81,3.33,13.65,4.37,20.57,0,.16,0,.29,0,.45.11,5.24.59,10.52.29,15.76-.42,7.58-1.84,15.56-5.21,22.44a42.6,42.6,0,0,1-9.87,13.22,44.16,44.16,0,0,0,2-13A38.54,38.54,0,0,0,174,199.13c-1.14-3.31-2.36-7.51-5.33-9.6-1.21-2-2.49-4-3.82-5.94-.18-.23-.58-.07-.47.22a90.92,90.92,0,0,0,4.38,10.3,33.68,33.68,0,0,1,1.37,6.48,44.23,44.23,0,0,1-1.07,11.4,37.91,37.91,0,0,1-3.33,9.13,77.2,77.2,0,0,0-3.74-9.51,62.61,62.61,0,0,0-4.09-11.4,71.85,71.85,0,0,0-6-10.14,55.49,55.49,0,0,1-3.35-14.3c.12-1.78.27-3.56.45-5.33.32-1.33.54-2.66.77-4a25,25,0,0,0,.81-6.93c.6-7.6-.36-14.95-4.48-21.45-.18-.27-.69-.16-.63.2a58.51,58.51,0,0,1,0,21.07A34.1,34.1,0,0,1,137.34,171a3.78,3.78,0,0,1-.29-.36,5.13,5.13,0,0,0,.92-3.19c-2-21-11.29-44.52-28.31-58a.44.44,0,0,0-.65.57c5.24,9,10.59,17.69,13.76,27.74a100.87,100.87,0,0,1,3.67,16.5c-.81-.58-1.6-1.16-2.43-1.73-.77-1.66-1.58-3.28-2.32-4.81C118,140,113.58,131.18,108,124.57a.28.28,0,0,0-.5.24c1.42,6.91,3.92,13.95,6.26,20.78-.79-.58-1.58-1.17-2.34-1.8A169.9,169.9,0,0,1,97,130.37,177.54,177.54,0,0,1,85.4,116.83c-1.19-1.55-2.4-3.08-3.66-4.58A162.54,162.54,0,0,0,70.65,99.36c-.13-.11-.31.07-.22.2l.6,1.08c-.6-.58-1.19-1.17-1.82-1.75C54.26,84.81,35.15,73.12,15.11,68.22c-.29-.07-.44.36-.18.47,19,8.7,35.73,19.5,50.08,34.79a132.51,132.51,0,0,1,18.53,25.25c.24.45.51.9.76,1.37-.52-.34-1-.68-1.51-1-1.3-.92-2.56-1.86-3.82-2.85-1.35-1.71-2.79-3.33-4.11-4.86-5.51-6.38-11.74-13-18.46-18.12a.33.33,0,0,0-.5.43c3.76,7.33,8.34,14.41,12.55,21.54-3.08-1-6.16-1.91-9.24-2.75-.56-.31-1.15-.6-1.71-.94a114.22,114.22,0,0,1-13.92-10.46c-.25-.27-.47-.54-.7-.81a76.64,76.64,0,0,0-13.15-12A82.18,82.18,0,0,0,0,84.89v.46a92.34,92.34,0,0,1,26.9,17.27,99.44,99.44,0,0,1,11.46,12.55c.45.58.88,1.21,1.31,1.84-.36-.09-.7-.18-1-.24-.63-.16-1.26-.27-1.91-.41-2.7-1.39-5.26-3-7.8-4.63a57.56,57.56,0,0,0-5.08-4.81c-4.52-3.92-9.78-8-15.72-9.38a.42.42,0,0,0-.38.7c4.52,4.36,9.49,7.8,13,13.15a23.86,23.86,0,0,1,1.3,2.34c-5.17-.7-10.37-1.15-15.58-1.39-1.34-2.15-3.89-3.8-6.46-5.18v12c3.44.27,6.88.61,10.3,1A57.14,57.14,0,0,0,0,122.58v3.66c6.5-1.16,12.87-2.17,19.75-1.76a74.19,74.19,0,0,1,8,.87A91.26,91.26,0,0,0,0,134.27v11.15l1-.62c11.85-6.81,25.34-10,38.94-10.5a116.29,116.29,0,0,1,14,.39c-8.46,2.74-16.62,7.53-21.86,14.39-.29.38,0,1.12.56.9,10.32-4.34,19.86-8.23,31.1-9.43a67.38,67.38,0,0,1,14.14.3c1.19.6,2.36,1.23,3.55,1.89-10.92.87-21.65,5.44-29.29,13.33-.43.43.15.94.6.74a61.68,61.68,0,0,1,34-6,54.74,54.74,0,0,1,10.43,2.36c.12.14.21.27.32.41a1.89,1.89,0,0,0,2,.62c.88.7,1.76,1.4,2.61,2.12a42.34,42.34,0,0,1,3.67,3.57,66.16,66.16,0,0,0-32.81.32c-.29.09-.18.49.09.52a96,96,0,0,1,32.47,7.62c2.5,1.12,5,2.47,7.44,3.86a67.62,67.62,0,0,0-21-2.45c-12.89.59-25.72,5.31-35.1,14.35-7.44,7.17-14.08,18.75-12.68,29.41,0,.31.51.47.65.13,4.5-10,8.88-18.37,17.72-25.25a49.86,49.86,0,0,1,31.68-10.2c12.25.18,24.12,4.4,34.33,11a106.2,106.2,0,0,1,13,10.38q-.62-.33-1.2-.6c-9.73-4.72-22.75-6-32.24,0a.27.27,0,0,0,.14.49c10.52-1.3,20.8-1.71,30,4.45a38.66,38.66,0,0,1,9.78,9.31c1.32,1.85,2.36,3.91,3.62,5.8A113.15,113.15,0,0,1,156,236.88c-.3-.63-.59-1.28-.93-1.91-5.48-10.77-17.71-24.8-30.33-26.87-.18,0-.4.18-.24.36,3.84,4.56,8.9,8.07,12.74,12.75a66.55,66.55,0,0,1,9.92,16.57c.81,1.95,1.53,3.93,2.18,5.91-.31-.43-.63-.88-1-1.3-11.89-15.74-33.36-27.86-53.49-25.52-.22,0-.29.38,0,.42C114.5,220.37,132,228.56,142,246.55c.21.36.39.72.57,1.08A63.58,63.58,0,0,1,144.22,263c0,1.55-.11,3.11-.25,4.64-8.16-9.76-20.1-16.82-32.06-16.55a.53.53,0,0,0-.22,1c8.07,3.84,15.74,7.78,21.45,14.88a48.47,48.47,0,0,1,7.78,14.35c-.12.4-.23.81-.34,1.23a43.86,43.86,0,0,0-4.79-3.73,31.23,31.23,0,0,0-16.95-5.13.61.61,0,0,0-.25,1.13,44.43,44.43,0,0,1,12.7,10.61c2.05,2.52,3.62,5.76,5.62,8.48-2.65,1.26-5.32,2.61-8,4a21.85,21.85,0,0,0-8.23,1.35c-6.18,2.05-11.87,5.24-18,7.53-6.48,2.45-12.86,4.1-19.83,3.56a25.59,25.59,0,0,1-10.19-2.86c-2.45-1.28-4.32-3.28-7-4,0,0-.07,0-.07.09,1.32,4.85,8.59,8.61,12.79,10.68A35.67,35.67,0,0,0,90.3,317.8c-7.15,1.91-14,1.55-21.94-.72a.41.41,0,0,0-.36.7c5.84,5.39,15,6.59,23.14,5.73-1.11.95-2.21,1.87-3.29,2.81-.56.5-1.14,1-1.71,1.53-5.55-.18-11.19.81-16.79.63a52,52,0,0,1-18.75-3.82C39.15,319.8,31.39,309.57,20.38,304a34.45,34.45,0,0,0-15.09-3.42,37.28,37.28,0,0,1,4.45-.9c6.5-.85,12.68.9,18.78,3,.24.07.4-.29.22-.45-6.3-5.55-15.13-7.4-23.56-7.13,1.12-.27,2.22-.52,3.35-.76,13.33-2.72,25.56-2.77,38.58,1.3a.24.24,0,0,0,.23-.4c-9.83-9-26.85-10.73-39.53-9.15l-1.91.26a86.22,86.22,0,0,1,15.24-3.28,84.24,84.24,0,0,1,22.82.18,65.52,65.52,0,0,1,11.9,2.95c3.37,1.19,6.5,3.06,9.94,4,.18,0,.36-.18.24-.34-4.52-5.48-13-8.36-19.6-10.34a82,82,0,0,0-24.8-3.24c-2.12.05-4.23.16-6.37.34a71.26,71.26,0,0,1,26.62-2.95,65,65,0,0,1,9,1.71,65.92,65.92,0,0,1,16,6.73c7.4,5,13.56,11.42,20,17.92.18.18.49-.05.42-.27-4.2-13.45-17.11-23.68-29.52-29.37a67.63,67.63,0,0,0-23.7-6,58.76,58.76,0,0,0-27.61,3.77,63.42,63.42,0,0,0-6.48,3v37.43H.41c11.67.59,20.57,6.88,29.61,13.7,9.22,7,18.93,12.11,30.58,13.35a52.14,52.14,0,0,0,10.68,0C47.86,359.93,20.57,399.09,12.72,455,4.33,514.7,21.38,565.53,37.17,597.66c15.58,31.7,32.67,51.55,36.21,55.51l.4.48C96.61,685,106.15,702.4,95.16,726c-7,15.07-22,43.46-37.56,72.53H71.65c14.48-27.12,28.08-53,34.75-67.29,9.11-19.54,6.93-35.6-2-53.16,1.5,1.31,12.18,19.16,13.56,23.21,1.3,3.89,2.65,7.93,4.92,11.4,8.21,7.42,19.43,12.32,29.09,16.16a217.25,217.25,0,0,0,32.67,9.69c10.68,2.39,21.88,3.24,32.4,6.19.5.13.45.94-.06.9-14.19-1.33-61.59-6.44-71.82-9.07-1.48-.36-3-.76-4.43-1.19-2.85-.45-5.71-.87-8.59-1.23-5.71-.7-10.79-.61-16.28,1.25-.51.18-1,.39-1.55.59-3.24,4.32-6.56,8.57-9.76,12.93-7.19,9.78-13.24,20.39-19.74,30.62-2.7,4.26-8.12,13-12,19H174.47c.15-.48.29-1,.44-1.44,1.29-4,2.63-8,3.8-12.12.23-.63.43-1.23.66-1.86.6-1.26,1.21-2.5,1.79-3.74.36-.94.68-1.88,1-2.83,3-8.43,6.07-16.86,9.22-25.18.11-.32.65-.18.63.13-.05.75-.25,3.74-.39,4.32-1.16,9.8-4.24,19.7-6.74,29.21a299.35,299.35,0,0,1,84.6,13.51H282a300.19,300.19,0,0,0-65.7-26c26.75,2.39,42.24,5.56,66.08,13.34a132.66,132.66,0,0,1,28,12.7h18.76l-.63-1.46c-5.48-9.8-11.33-19.4-16.68-29.23.29.38.61.76.9,1.17,6.46,9.86,13.55,19.37,19.67,29.52H349c-11.29-17-21-30.14-25.44-35.71C315.76,753.08,316.6,749.54,316.64,749.4ZM169.2,790.25a223.35,223.35,0,0,0-32.69-2,290.82,290.82,0,0,1,34.63-3.13C170.48,786.81,169.83,788.52,169.2,790.25Zm48-27.77a6,6,0,0,1-2.67,3.58c-1.28.78-3.69,1.59-5.15,1a.35.35,0,0,1-.09-.52c.87-1.15,2.47-1.6,3.35-2.85a2.65,2.65,0,0,0,.47-1.2,2.9,2.9,0,0,0-.11-.92,7.24,7.24,0,0,0-1.28-2,15.16,15.16,0,0,0-1.58-1.3,2.22,2.22,0,0,0-.38-.27,8.34,8.34,0,0,0-.79-.48c-.54-.29-1.19-.56-1.21-.58a9.1,9.1,0,0,0-1-.27l-.67-.09c-.41,0-1.11.09-1,0-.2.07-.4.12-.58.2l-.27.16c-.81.56-.54.25-1.15.92-.38.45-.81.88-1.15,1.33-.76,1-.56,2.09-.31,3.33s1.66,2.34,2.61,3.19a.37.37,0,0,1-.32.63,7,7,0,0,1-4.61-3.71,11.39,11.39,0,0,1-.94-6.63c.85-3.42,4.27-5.29,7.6-5.11C211.29,751.22,218.6,756.3,217.16,762.48Zm278-272.22c0,2.43-.29,6.49-1,8.12a38.45,38.45,0,0,1-3.84,5.64,28.63,28.63,0,0,1-7.83,5.42,21.59,21.59,0,0,1-3.23,1.26c-2.32.49-4.64,1-6.91,1.44-1.73.27-3.48.49-5.21.81-5.44.83-10.89,1.59-16.35,2.36-6.72,1-13.49,1.84-20.28,2.4-6.36.54-13,.3-19.27,1.55v0c6.63,1,13.74.2,20.42,0s13.58-.43,20.35-.86c6.36-.38,12.7-1.1,19-1.91,6,1.75,9.28,7,9.53,13.49a15.86,15.86,0,0,1-.09,2.3c-21.52,74-55.87,119.3-79.17,150-4.09,5.4-7.71,10.16-10.93,14.64l-.27-.09c-10.83-4.72-20-9-30.6-14.21-9.33-4.66-28.48-12.26-38.83-19.45,1.13.45,19.2,7.58,23.95,9.51,5.42,2.2,10.93,4,16.25,6.45,6,2.72,12,5.29,18,7.83,3.22,1.21,6.46,2.4,9.56,3.84a4.42,4.42,0,0,0,1.17-.45c.54-.65,24.57-33.84,29.12-40.36-3-.67-6.1-1.19-9.18-1.66q-2.93,4-6.05,7.82c-5,6.16-10.81,13.49-17.65,17.72a0,0,0,0,1,0,0l.41-.86c41.23-48.58,70.71-111.92,76.44-148.08,0,0-30.19,2.23-34.53,2.27-11.58,36.72-25.61,65.88-41.78,91.51-4.27-.72-8.57-1.46-12.84-2.22-1.84,2-3.8,4-5.75,5.91,4.85.92,9.71,1.8,14.59,2.54-1.08,1.64-2.18,3.31-3.29,4.93-5-1-10.05-2-15-3.17-1.21,1.48-2.4,3-3.66,4.43l-.36.42q7.68,2,15.44,3.53c-1.48,2.12-3,4.21-4.47,6.28q-5.16-1.15-10.28-2.39c-1.88-.45-3.8-.92-5.68-1.39-5,6-10.39,12.23-16.66,16.28C373,609.81,397,559.17,402,527.63c0,0-29,2.47-32.73,3.35-9.78,31-20.87,55.87-33.55,77.82l-3.49-.74c-3.5-.72-7-1.74-10.59-2.79-1,1.32-2,2.65-3,4,4.58,1.41,9.17,2.69,13.42,4.11l.79.27c-.86,1.44-1.74,2.86-2.61,4.27q-7.46-2.19-14.82-4.65c-.67.83-1.37,1.64-2.07,2.47,4.84,2,9.69,4,14.62,5.8-1.58,2.48-3.17,4.9-4.79,7.31l-3.28-1q-5.13-2.32-10.24-4.72c-.62-.32-1.25-.63-1.91-.93-2.36,2.66-4.81,5.24-7.37,7.69,1.75,1,3.51,2,5.3,2.95,3.6,1.93,7.27,3.73,10.95,5.46a.31.31,0,0,1-.11.16c-1.86-.65-3.73-1.3-5.57-2-4.1-1.58-8.14-3.29-12.17-5-1.21,1.12-3.55,1.73-5.69,2a1.78,1.78,0,0,0,.32-.29c27.18-32.8,46.63-73.59,52.52-100.8,0,0-20.57.39-23.29,1a230.09,230.09,0,0,1-31.91,70c-5.44-2.45-10.9-4.88-16.5-6.84-.23-.06-.29.25-.14.36a101.37,101.37,0,0,0,15.25,8.55c-1.31,1.91-2.61,3.8-4,5.69q-8.26-4.29-16.39-8.79c-13.54-7.54-26.4-16.46-39.57-24.65-.23-.13-.48.23-.27.41,12.21,10.79,25.2,20.3,38.24,30,4.37,3.26,8.79,6.4,13.27,9.46-1,1.28-1.91,2.59-2.9,3.87a299.68,299.68,0,0,1-26.33-15.51c-6.7-4.41-13-9.36-19.59-14-9.62-7.76-19.2-15.58-28.93-23.2-.07-.05-.18,0-.12.11,14,17.09,30.43,32.27,47.07,46.81,13.06,11.4,26.66,22,40.42,32.54-16.52-8.48-31.77-19.25-46.23-30.87-13.87-11.15-29.5-22.64-40.13-37-3.06-4.1-7.24-9.25-8.68-14.22-1.12-3.84-.16-11.91,2.07-15.28,3.64-5.51,3.93-14.84-1.82-19.07-.05-.05,0,13.47-5.47,17.15a13.27,13.27,0,0,1-9.53,2,21.34,21.34,0,0,1-3.37-1.46,22,22,0,0,1-5.26-4.16,12.64,12.64,0,0,1-2-7.91,11.61,11.61,0,0,1,6-8.88c2.92-1,6.11-1.2,9.26-1.76.92-.18.72-1.53-.07-1.73-11.91-2.83-23.42,5.28-20.23,17.4a18.7,18.7,0,0,0,.79,2.32c2.58,6.41,7.48,12.52,11.62,18.05,4.61,6.17,9.56,12.08,14.66,17.86a437.86,437.86,0,0,0,34.45,34.62c11.82,10.68,23.16,19.3,35.93,28.81,1.55,1.17,3.12,2.31,4.72,3.46,6.32,5,13.08,9.51,19.7,13.92,10.07,6.7,20.46,13.06,30.93,19.13C338,692.26,359,701,381,708.92c.21.09.34-.27.14-.36-21.23-8.68-41.78-20.1-61.05-32.49-5.53-3.55-10.9-7.3-16.21-11.13,8.77,4.66,19.27,10.1,28.15,14.55,33.95,17.11,43.2,17.67,54.59,26.15,1.56,1.35,3.18,4.5,4.1,7.58a29.42,29.42,0,0,1,.81,8.65,44.23,44.23,0,0,1-.95,6.41l-1-.56c-77.17-42.5-164.64-90.66-217.65-163-12.66-17.27-17.61-33-13.23-42.16,2.82-5.89,9.67-8.88,20.29-8.84,51.06.27,98.82-.56,141.94-2.47C402.35,507.66,462.36,500.4,495.14,490.26ZM333.45,659.34a136,136,0,0,1-18.88-9.1,247.11,247.11,0,0,0,16.95-23.41,394.66,394.66,0,0,0,27.77-50.68,407.44,407.44,0,0,0,15.31-39.44A195.41,195.41,0,0,1,369.16,557a299.28,299.28,0,0,1-20.26,47.1q-6.54,12.42-14.12,24.24a194.77,194.77,0,0,1-15.36,21.34A145.42,145.42,0,0,0,333.45,659.34Zm46.64,19.21a222.13,222.13,0,0,1-21.86-8.37c6.86-9.26,13.63-18.59,20.1-28.15A477.6,477.6,0,0,0,413.23,582a321.07,321.07,0,0,0,18.17-47.1c-.09.42-.16.78-.23,1.1A200.49,200.49,0,0,1,425,559a322.5,322.5,0,0,1-25.41,55.76,442.23,442.23,0,0,1-36.33,54.28C368.69,672.52,374.35,675.6,380.09,678.55Zm-89.52-42.41a50.38,50.38,0,0,1-11.21-6.45c-.27-.23-.93-.57-1.08-.86s0-.38.31-.78l3.15-4.28a345.73,345.73,0,0,0,26.4-41.26c3.82-7.15,7.35-14.45,10.47-21.94s5.78-15.34,8.19-23.18c-.07.29-.14.54-.18.76a180.19,180.19,0,0,1-5.87,21.16c-8.75,25.09-22.51,47.78-38.25,69A49.21,49.21,0,0,0,290.57,636.14Zm-92.36,38.65a7.22,7.22,0,0,0-5.47-6A5.27,5.27,0,0,0,187,671.1a7.9,7.9,0,0,0-1.33,4.55,12.81,12.81,0,0,0,1.28,3.75c.18.43-.34.76-.7.58-1.64-.76-2.36-2.81-3.08-4.38a13.63,13.63,0,0,1-1.3-7c.81-4.94,7.71-6.74,11.85-5.6,4.38,1.22,8.65,5.54,8.12,10.37a12.16,12.16,0,0,1-6.77,9,.19.19,0,0,1-.2-.3C196.72,680.12,198.63,677.62,198.21,674.79Zm-.9-46.74a7.87,7.87,0,0,0-4.68-3.76c-1.89-.49-3.53-.47-4.65.52-.21.15-.25.29-.59.81a19.32,19.32,0,0,1-1.41,1.75c-1.13,1.35-.7,4.14-.3,6a.07.07,0,0,1-.13.07c-.63-1-1.53-1.93-2.09-2.95a12,12,0,0,1-.7-2.63c-.56-1.8-1.12-3.26-.2-5.1a8,8,0,0,1,6.92-4.25c5.27-.23,11.13,4.09,11.2,9.6,0,3.71-2.38,6.12-5.26,8a.17.17,0,0,1-.22-.27C196.88,633.85,198.57,630.65,197.31,628.05Zm-50.57-44.88c-1.89-2-3.66-4-5.4-6.08a266.65,266.65,0,0,1-14.81-24.44c-.07-.11-.23,0-.21.09a104,104,0,0,0,9.54,23,162.1,162.1,0,0,0,12.12,20c1.57,2.3,3.17,4.61,4.81,6.88a166.42,166.42,0,0,1-19.41-21.92,188.44,188.44,0,0,1-20.61-35.84c-5.42-12.34-8.37-25.63-11.2-38.76-.07-.34-.54-.21-.54.11,0,2.65,0,5.33.18,8-.29,15.56,2.92,31.77,7.17,46.52.7,2.41,1.49,4.79,2.32,7.13C89,538,75.91,501.59,77.91,464.36a.19.19,0,0,0-.36-.05,113.13,113.13,0,0,0-2,42.88c.65,17.07,4.63,34.49,9.71,50.7,0,.25-.07.52-.09.77-.74-1.37-1.48-2.72-2.18-4.12-15.2-29.74-21.34-63.74-15.27-96.75A127.89,127.89,0,0,1,101.25,393q11.53-9.08,23.12-18.12c2.56-1.46,5.12-2.88,7.78-4.2,15.13-7.56,32.06-12.6,49-13.52a179.61,179.61,0,0,1,22.85,0,160.48,160.48,0,0,0-16.75,2.29c-19.72,3.73-40.68,12.25-55.72,25.93-.14.09,0,.29.16.24,9.39-3.53,18.34-7.46,28-10.27,6.66-1.91,13.38-3.71,20.17-5.17a160.22,160.22,0,0,1,25.23-.9c5.51.29,11,.76,16.41,1.55-1.61,0-3.23.11-4.87.22-15.92,1.17-30.09,6.07-44.57,12.41a.19.19,0,0,0,.14.36c14-3.66,29.41-4.27,43.82-4a171.68,171.68,0,0,1,20.12,1.46,54,54,0,0,1-.61,7.9,162.71,162.71,0,0,1-4.09,18.52,250.51,250.51,0,0,1-12.18,34.81,248.42,248.42,0,0,1-16.94,32.78c-6.38,10.25-15.22,19.5-20.32,30.4A8.21,8.21,0,0,1,179,506c-1,0-1.93,0-2.85.07-15.36.68-21.79,7.53-24.49,13.18s-3,13-.88,21.11c1.44,11,9.4,22.51,14.46,31,2.18,3.68,4.34,7.39,6.21,11.22,1.19,2.42,2.22,28,2.4,32.28.36,8.44.38,16.82.45,25.23.05,8.23.36,16.44.74,24.65.34,7.19,1.76,14.23,2.25,21.38,0,0-.07,0-.07,0-1.68-3.21-10.14-43-12.7-59.27-1.35-8.54-3.66-30.31-3.57-32.44C156.09,590.74,151.46,586.92,146.74,583.17ZM141,673c-9.28-5.74-41.73-32.74-48-41.06-5.85-7.73-23.32-48-25.79-59.52a.43.43,0,0,1,.83-.24c4.11,10.34,24,47.42,30,55.42,12.26,16.46,27.52,31.88,43.11,45.19C141.19,672.83,141.07,673,141,673Zm151.21-366c72.6,13.9,119.35,82.63,125.33,127.94l.11.92.54.77c.09.15,10.26,14.93,20.4,29.56,9.06,13.07,14.3,20.6,17.51,25-32,5.42-75.21,9.51-128,12-.92,0-1.85,0-2.75-.09-5.91-.27-11.82-.56-17.74-.72-10.9-.29-21.81-.54-32.71-.92,3-.52,5.93-1,8.9-1.53,6.41-1.1,13.16-1.46,19.36-3.42.27-.06.16-.4-.07-.42-7.21-.47-14.57.92-21.78,1.32-6.52.34-13.07.75-19.59,1.38-4.14.38-8.29.83-12.43,1.28q9.84-2.26,19.69-4.34c6.77-1.42,14.64-2.07,21-5,.18-.09.25-.43,0-.45-6.68-.63-13.83,1.23-20.44,2.11-7.15,1-14.28,1.89-21.43,2.65-5.62.63-11.22,1.37-16.79,2.18.83-.31,1.66-.6,2.45-.87,9.44-3.22,18.82-6.66,28.26-9.85a.39.39,0,0,0-.25-.74c-9.8,2.07-19.69,3.91-29.5,6-1.48.32-3.06.58-4.72.88a5.76,5.76,0,0,1-1.6-.61c-2.22-1.26-3-3.19-3.55-5.42a461.48,461.48,0,0,0,44.05-83.3.28.28,0,0,0-.5-.25c-20.41,35.21-40.11,70.53-65.18,102.78l-.13.2h-6.82C222.81,465.41,277.56,381.55,292.17,306.94Zm-85,30.45c5.87-.27,11.92-.27,17.92,0A268.59,268.59,0,0,1,274,343.75c-10.55,30.33-25.79,60.75-41.4,87.82.48-1.39,1-2.78,1.51-4.18a1,1,0,0,1-.11-.79c2.09-6.31,5.48-12.14,8.39-18.1a4.88,4.88,0,0,1,.22-.51c2.32-5.29,4.63-10.55,6.86-15.88,6.09-14.72,11.31-29.72,17.13-44.54-3.1-1.3-14.64-3.93-17.13-4.2a272.45,272.45,0,0,0-43.58-1.89,254.33,254.33,0,0,0-46.95,6.45c-8,1.89-15.71,4.57-23.47,7.2C156.77,344.74,180.92,338.55,207.2,337.39ZM36.05,433.91c-.2.61-.36,1.24-.54,1.87-4.23,10.57-5.83,22.28-7.11,33.5C27,481.22,25.28,494,26.47,506a.28.28,0,0,0,0,.12,174.17,174.17,0,0,0,2.25,26.15c.5,3,.95,6.18,1.51,9.35.09,1.06.18,2.14.29,3.19A223.39,223.39,0,0,1,25,456.67c8.59-61.25,41.71-101.5,68-124.48,30.92-27.07,70-44.77,102-46.18q3-.13,5.95-.07L200.79,330c-48.41,3.55-91.62,24-122.18,58a182.05,182.05,0,0,0-33.48,54.07q2.57-12.13,6.3-24a237.21,237.21,0,0,1,10.88-28.2c.36-.83.79-1.61,1.17-2.42,1.69-2.86,3.39-5.67,5.15-8.48,5.89-9.42,12.3-18.42,18.77-27.39,2.43-3,4.81-6.09,7.06-9.24.05-.07,0-.13-.09-.09-9.49,8.82-18.05,19.32-25.58,29.82-2.34,3.26-4.68,6.65-6.86,10.2-1.62,2.52-3.13,5.13-4.52,7.78C48.5,403.74,40.88,418.22,36.05,433.91Zm247.08,296.8c-13.89.56-27.32.47-39.89-.25-95.47-5.55-203.71-91.89-205.69-199.14C36.48,472.56,56,422.4,90,387.8c-8.63,17.58-20.17,33.66-27.92,51.91-8,18.82-15.31,39.37-17.43,59.75-6.36,61.42,22.82,125.89,68.47,167.46,22,20,47.69,34.83,75.28,45.67a311.32,311.32,0,0,0,34.78,7.53,328.4,328.4,0,0,0,49.67,4.72c17.31.23,34.42-1.5,51.69-2.31a.46.46,0,0,1,.29.11c1,0,2-.11,3-.14.31,0,.43.5.11.57C313.19,726.17,298.2,729,283.13,730.71Z"/><path class="b" d="M19.12,78.79A90,90,0,0,0,0,69.8v3.69c6.4,1.61,12.68,3.69,18.89,5.91C19.27,79.53,19.41,79,19.12,78.79Z"/><path class="b" d="M16.1,381.91c6.46-6.5,5.33-22.38-6-22.92-.2,0-.29.27-.13.41,3.82,3.51,7.37,6.88,6.45,12.63-1,6.17-7.8,9.56-13.47,7.38a12.52,12.52,0,0,1-3-1.67v7.55C5.25,387.43,10.94,387.1,16.1,381.91Z"/><path class="b" d="M277.75,382a60.93,60.93,0,0,0,6.51-9.38c3.71-5.48,6.86-11.46,10.3-17.09l14.32-19.31c.78.31,11.73,5.54,16.26,8.18,9.75,5.68,18.47,12.7,27.34,19.61.27.2.47-.39.47-.39s-15.21-17.25-24.51-23.9l-.22-.15c3.79,2.12,11.61,6.95,15.28,9.32,10.41,6.71,19.78,12.25,36.37,29.46.27.28.73-.1.52-.45-8.68-14.48-22.95-26.58-36.49-36.41a193.53,193.53,0,0,0-21-13.23c-4-2.2-8.2-4.19-12.4-6.06a88.1,88.1,0,0,0-10.85-3.38s-1.24.44-2.36,3.61c-1.05,3-13.7,42.7-19.79,59.45A.13.13,0,0,0,277.75,382Z"/><path class="b" d="M238.57,482a0,0,0,0,0,0,0c-1.39,1.33-1.63,4-4.05,4.13a2.73,2.73,0,0,1-2.19-4.33,4.15,4.15,0,0,1,2.12-1.38c.6-.15,1.29.08,1.88-.18,1.29-.56.47-1.86-.49-2.28-3.4-1.49-7.57,1.33-7.88,4.87-.36,4.11,3.78,8,7.89,6.84a5.91,5.91,0,0,0,3.91-3.77C240.13,484.51,240.17,482.62,238.57,482Z"/><path class="b" d="M292.37,377.63a.41.41,0,0,0-.26-.78,6,6,0,0,0-4.5,6.82c.58,3.39,4.27,5.37,7.46,5.49s6.79-1.76,7.57-5a4.61,4.61,0,0,0-3.4-5.79s0,0,0,0a3.91,3.91,0,0,1,1.39,5.31c-1,1.63-3.19,2.24-5,2.17a6,6,0,0,1-4.71-2.57C289.59,381.34,289.94,378.55,292.37,377.63Z"/><path class="b" d="M265.87,431.17a3.16,3.16,0,0,1,.51,5,5.31,5.31,0,0,1-4.23.95c-2.75-.53-5.84-5-2-6.47a.41.41,0,0,0-.25-.79,5.17,5.17,0,0,0-4,5.79c.42,3,3.73,4.77,6.52,4.86s5.87-1.6,6.49-4.45a3.92,3.92,0,0,0-3-4.89S265.85,431.16,265.87,431.17Z"/><path class="b" d="M361.63,444.7c-12.39,2.95-24.84,5.81-37.13,9.16A373.75,373.75,0,0,0,287.17,466c-11.1,4.31-23.34,6.71-33.92,12.15-.1,0,0,.21.06.2,12.18-1.86,23.75-7.26,35.84-9.78s24-6.05,35.86-9.6c12.19-3.63,24.24-7.7,36.45-11.27,6.28-1.83,12.48-3.88,18.8-5.57,5.87-1.57,12.25-2.66,17.77-5.21.18-.09.16-.39-.07-.38-6.12.35-12.3,2.47-18.23,4S367.65,443.27,361.63,444.7Z"/><path class="b" d="M339.43,522.74c7.61,1.26,15.92,1,23.63,1a102.73,102.73,0,0,0,23.5-2.54.24.24,0,0,0,0-.46,101.87,101.87,0,0,0-23.66-.9c-7.69.53-16,.86-23.47,2.65A.13.13,0,0,0,339.43,522.74Z"/><path class="b" d="M319.26,526.12c-12.81-1.52-26.82-3.12-39.58-.65-.71.13-.59,1.24.06,1.38,12.69,2.58,26.73,1.07,39.49-.34C319.43,526.48,319.49,526.15,319.26,526.12Z"/><path class="b" d="M258.22,526.67c-4.12-1.67-8.57-1.28-13-1.28a153.85,153.85,0,0,0-16.91.73c-.12,0-.15.2,0,.22a143.08,143.08,0,0,0,14.92,1.53c4.91.28,10.2,1.16,14.91-.48C258.45,527.29,258.55,526.8,258.22,526.67Z"/><path class="b" d="M201.49,523.67a12.79,12.79,0,0,0-4.45.24.28.28,0,0,0,0,.51,12.67,12.67,0,0,0,4.34,1.05,10.46,10.46,0,0,0,4.17,0,.62.62,0,0,0,.1-1.12A10.54,10.54,0,0,0,201.49,523.67Z"/><path class="b" d="M399.89,523c1.54-.87,4.3-3.73,2.8-5.6h0c-1.27.71-1.78,2.13-3.23,2.71a4.07,4.07,0,0,1-4.53-.87c-1.13-1.16-1.85-3.22-1-4.69.93-1.7,2.68-2,4.35-2.49a.76.76,0,0,0,.12-1.39c-2.46-1.14-5.39.59-6.78,2.67a6.35,6.35,0,0,0,.29,8.06A6.43,6.43,0,0,0,399.89,523Z"/><path class="b" d="M325.63,527.11c3.35,1.26,7.22.22,8.82-3.17,1-2.06,1.26-6.43-1-7.79a.4.4,0,0,0-.57.37c.09,2.11.81,3.57-.83,5.4a4.23,4.23,0,0,1-4.68,1.32,4.37,4.37,0,0,1-3-4.41,3.07,3.07,0,0,1,1-2.87,6.27,6.27,0,0,1,3.4-1.51.52.52,0,0,0,0-1,5.75,5.75,0,0,0-4.51,1.35c-1.27,1-2.85,2.41-3.34,4C319.82,522.23,322.51,526,325.63,527.11Z"/><path class="b" d="M274.45,521.39a.4.4,0,0,0-.58.36c.09,2.11.82,3.58-.83,5.4a4.22,4.22,0,0,1-4.67,1.33,4.37,4.37,0,0,1-3-4.42,3.07,3.07,0,0,1,1-2.87,6.24,6.24,0,0,1,3.4-1.51.52.52,0,0,0,0-1,5.79,5.79,0,0,0-4.5,1.35c-1.28,1.06-2.85,2.41-3.35,4-1,3.42,1.65,7.14,4.77,8.31,3.36,1.26,7.22.21,8.82-3.17C276.44,527.12,276.72,522.74,274.45,521.39Z"/><path class="b" d="M188.33,533.69a.4.4,0,0,0-.58.36c.09,2.11.82,3.58-.83,5.41a4.24,4.24,0,0,1-4.67,1.32,4.37,4.37,0,0,1-3-4.42,3.06,3.06,0,0,1,1-2.86,6.24,6.24,0,0,1,3.4-1.51.52.52,0,0,0-.05-1,5.71,5.71,0,0,0-4.5,1.35c-1.28,1.05-2.85,2.41-3.35,4-1,3.42,1.66,7.15,4.77,8.31,3.36,1.26,7.22.21,8.82-3.17C190.32,539.42,190.61,535,188.33,533.69Z"/><path class="b" d="M220.74,522.05a.39.39,0,0,0-.57.36c.09,2.11.81,3.58-.83,5.41a4.25,4.25,0,0,1-4.68,1.32,4.37,4.37,0,0,1-3-4.42,3.08,3.08,0,0,1,1-2.87,6.3,6.3,0,0,1,3.4-1.5.53.53,0,0,0,0-1.05,5.82,5.82,0,0,0-4.51,1.35c-1.28,1.06-2.85,2.41-3.35,4.05-1,3.42,1.66,7.14,4.77,8.31,3.36,1.26,7.22.21,8.83-3.17C222.73,527.78,223,523.4,220.74,522.05Z"/><path class="b" d="M419.08,635.55c-.88,1.08-1.77,2.15-2.66,3.21l-1.62,2.34q4.29.46,8.6.85a26.44,26.44,0,0,1,1.64-3q.42-.86.87-1.68l0-.05.45-.78a3.15,3.15,0,0,0-1.52-.49Q422,635.81,419.08,635.55Z"/><path class="b" d="M433.43,626.79a44.18,44.18,0,0,0-6.89-1.35c-.5.78-1,1.56-1.54,2.33a42.55,42.55,0,0,0,8.38-.42A.29.29,0,0,0,433.43,626.79Z"/><path class="b" d="M77.89,379.07c-.24.37.33.72.61.43C82,376,85.25,372.45,88.63,369c3.77-2.88,7.47-5.85,11.2-8.77l.69-.5q2.07-1.61,4.14-3.15,10.08-6.82,20.5-13.18,4.32-2.37,8.73-4.48a164.19,164.19,0,0,1,30.15-11c9.17-2.34,21.11-5.89,30.56-4,.16,0-.16-21.36.28-31.37a66.69,66.69,0,0,1-14.17,14.37,140,140,0,0,1-13.61,8.63,242.2,242.2,0,0,0-38.28,19.58c-4,2.53-8,5.22-11.93,8.07A193.44,193.44,0,0,0,98.3,357.62C91.07,364.06,83.21,370.9,77.89,379.07Z"/><path class="b" d="M318.35,476l10.49,16.12a4.51,4.51,0,0,0,4.19,2L423.64,486a3.17,3.17,0,0,0,2.49-4.68l-17-31.07a4.5,4.5,0,0,0-5.16-2.18l-83.79,23.14A3.18,3.18,0,0,0,318.35,476Zm5.27-1.69c2.33,2.12,4.44,4.59,6.59,6.9,1.42,1.52,3.6,3.36,4.54,5.4,12.13-2.24,24.68-3.18,37-4.19,13.73-1.12,27.45-1.94,41.2-1.24a.06.06,0,0,1,0,.11c-13.63,1.91-27.38,2.3-41.09,3.61-6.44.62-12.88,1.48-19.27,2.56-6,1-12.28,2.81-18.36,1.93a1.23,1.23,0,0,1-1-.91c-2-1.7-3.33-4.85-4.88-7a42.21,42.21,0,0,1-4.78-7.17S323.6,474.27,323.62,474.29Z"/></svg>