<svg viewBox="0 0 160 50" xmlns="http://www.w3.org/2000/svg"><g fill="#454c5b"><path d="m35.36 9.07a7.72 7.72 0 0 1 -.24 2.06 2.23 2.23 0 0 0 -1.7.63 4 4 0 0 0 -.87 2.09 25.14 25.14 0 0 0 -.26 4.1v23.71a6.08 6.08 0 0 1 -2.07.29l-19.82-25.87v16.61a24.14 24.14 0 0 0 .29 4.31 3.73 3.73 0 0 0 1 2.13 2.86 2.86 0 0 0 2 .65 6.88 6.88 0 0 1 .31 2.03c-1.44-.1-3-.15-4.75-.15q-3 0-4.8.15a6.88 6.88 0 0 1 .24-2.07 2.89 2.89 0 0 0 2-.65 3.8 3.8 0 0 0 1-2.13 24.33 24.33 0 0 0 .31-4.27v-19.83l-.19-.24a4 4 0 0 0 -1.27-1.1 5.68 5.68 0 0 0 -1.85-.39 7.72 7.72 0 0 1 -.29-2.06 35.47 35.47 0 0 0 3.6.14 29.18 29.18 0 0 0 3.22-.14l18.62 24.77v-15.84a21.74 21.74 0 0 0 -.29-4.13 3.54 3.54 0 0 0 -1-2.06 3 3 0 0 0 -2-.63 13.31 13.31 0 0 1 -.24-2.06c1.37.1 2.88.14 4.51.14s3.23-.09 4.54-.19z"/><path d="m45.34 41.35a23.22 23.22 0 0 1 -4.75-2.35 44 44 0 0 0 .41-6.79 10 10 0 0 1 2.6-.29 9.34 9.34 0 0 0 1.94 5.85c1.17 1.35 3 2 5.45 2a6.74 6.74 0 0 0 4.63-1.37 4.64 4.64 0 0 0 1.51-3.62 5.17 5.17 0 0 0 -1-3.17 8.15 8.15 0 0 0 -2.35-2.14 41.73 41.73 0 0 0 -3.89-2 48.85 48.85 0 0 1 -4.55-2.47 10 10 0 0 1 -3-3 8.24 8.24 0 0 1 -1.22-4.63 8 8 0 0 1 2.59-6.33 10.23 10.23 0 0 1 7.06-2.31 16.81 16.81 0 0 1 4.51.6 12.05 12.05 0 0 1 3.5 1.51 50.75 50.75 0 0 0 .29 6.34 7.11 7.11 0 0 1 -2.69.43c-.45-2.62-1.12-4.41-2-5.35a4.83 4.83 0 0 0 -3.65-1.42 5.9 5.9 0 0 0 -4 1.25 4.39 4.39 0 0 0 -1.44 3.51 5.26 5.26 0 0 0 1 3.21 8.17 8.17 0 0 0 2.4 2.21c.94.58 2.25 1.28 3.91 2.11a40.76 40.76 0 0 1 4.54 2.45 10.32 10.32 0 0 1 2.9 2.88 7.62 7.62 0 0 1 1.2 4.37 9.11 9.11 0 0 1 -1.18 4.58 8.52 8.52 0 0 1 -3.64 3.36 13.27 13.27 0 0 1 -6.12 1.27 15.55 15.55 0 0 1 -4.96-.69z"/><path d="m92 12.41q5.16 3.29 5.16 12.21 0 10.13-5.78 13.59a23.91 23.91 0 0 1 -12.46 3.45q-8.84 0-12.43.15a6.62 6.62 0 0 1 .24-2.07 4.92 4.92 0 0 0 2-.48 2.24 2.24 0 0 0 1-1.37 9.84 9.84 0 0 0 .38-2.89v-19.69a5.39 5.39 0 0 0 -.69-3.24 3.57 3.57 0 0 0 -2.62-.94 6.5 6.5 0 0 1 -.24-2.06c1.47.1 3.71.14 6.72.14h2.83c.64 0 1.59-.05 2.83-.05q7.92-.04 13.06 3.25zm-3.29 23.85q3.53-3.26 3.53-10.92a15.65 15.65 0 0 0 -1.95-8.18 11.68 11.68 0 0 0 -5.11-4.73 16.28 16.28 0 0 0 -7-1.49 16.52 16.52 0 0 0 -1.89.12 10.57 10.57 0 0 0 -1.66.31v23.63a8.66 8.66 0 0 0 .37 2.82 2.17 2.17 0 0 0 1.25 1.3 7.52 7.52 0 0 0 2.73.38q6.2 0 9.73-3.24z"/><path d="m107.91 40a14.55 14.55 0 0 1 -5.42-6 19.13 19.13 0 0 1 -1.95-8.78 17.07 17.07 0 0 1 2.24-9 14.49 14.49 0 0 1 5.9-5.57 17.25 17.25 0 0 1 7.9-1.87 23.2 23.2 0 0 1 5.42.6 26.69 26.69 0 0 1 5.23 1.9 38.87 38.87 0 0 0 -.53 7.44 6.65 6.65 0 0 1 -2.54.43c-.13-3.2-.78-5.4-2-6.6a7 7 0 0 0 -5.23-1.8 10.79 10.79 0 0 0 -6.43 1.82 10.73 10.73 0 0 0 -3.75 4.8 17.32 17.32 0 0 0 -1.2 6.53 19.86 19.86 0 0 0 1.47 7.8 12.44 12.44 0 0 0 4.24 5.47 10.94 10.94 0 0 0 6.53 2 15.3 15.3 0 0 0 4.66-.77 19.11 19.11 0 0 0 4.46-2.07 2.6 2.6 0 0 1 .56.7 2.36 2.36 0 0 1 .31.79 21.65 21.65 0 0 1 -5.69 3.27 18.41 18.41 0 0 1 -6.31 1 14.82 14.82 0 0 1 -7.87-2.09z"/><path d="m141 11.13v14.12h3.31a7.66 7.66 0 0 0 4.15-.8c.75-.52 1.15-1.56 1.18-3.09a8 8 0 0 1 2.3-.34c-.06 1.09-.09 2.83-.09 5.23 0 2.63 0 4.48.09 5.57a8.7 8.7 0 0 1 -2.2-.24 4.61 4.61 0 0 0 -1.32-3.38c-.76-.59-2.13-.89-4.11-.89h-3.31v7.3a8.81 8.81 0 0 0 .43 3.14 2.62 2.62 0 0 0 1.32 1.49 7.19 7.19 0 0 0 2.52.5 6.62 6.62 0 0 1 .24 2.07q-2.21-.15-6.05-.15c-3.1 0-5.28.05-6.52.15a6.67 6.67 0 0 1 .23-2.07 3.51 3.51 0 0 0 2.62-.93 5.37 5.37 0 0 0 .7-3.24v-20.26a5.37 5.37 0 0 0 -.7-3.24 3.55 3.55 0 0 0 -2.62-.94 6.56 6.56 0 0 1 -.23-2.06c2.11.1 4.78.14 8 .14q8.59 0 13.34-.14a64.2 64.2 0 0 0 1 7.58 3.37 3.37 0 0 1 -2.16.58 6.86 6.86 0 0 0 -1.94-4.39c-1.14-1.14-3.11-1.71-5.93-1.71z"/></g></svg>