<svg viewBox="0 0 443 64" xmlns="http://www.w3.org/2000/svg"><g fill="#454c5b"><path d="m31.6 1.56a7.87 7.87 0 0 1 -.24 2.06c-2.11 0-2.83 1.59-2.83 6.82v23.71a7 7 0 0 1 -2.07.29l-19.82-25.88v16.61c0 5.43.72 7.06 3.31 7.06a6.28 6.28 0 0 1 .24 2.06c-1.44-.09-3.36-.14-4.75-.14s-3.6.05-4.8.14a6.66 6.66 0 0 1 .24-2.06c2.59 0 3.31-1.63 3.31-7.06v-19.82l-.19-.24a3.55 3.55 0 0 0 -3.12-1.49 8.37 8.37 0 0 1 -.24-2.06c1 .09 2.35.14 3.55.14s2.35-.05 3.22-.14l18.67 24.77v-15.89c0-5.23-.72-6.82-3.31-6.82a10.84 10.84 0 0 1 -.24-2.06c1.39.09 3.17.14 4.51.14s3.26-.05 4.56-.14z"/><path d="m32.81 23.16c0-6.53 4.47-11.43 10.85-11.43 6.82 0 10.85 4.61 10.85 11.43 0 6.58-4.37 11.42-10.85 11.42s-10.85-4.51-10.85-11.42zm16.9.57c0-5.95-3-9.69-6.53-9.69-3.7 0-5.52 3.31-5.52 8.11 0 6.48 2.5 10.13 6.38 10.13s5.67-3.5 5.67-8.55z"/><path d="m73.06 13.32a43.68 43.68 0 0 0 -.34 5.68 9.69 9.69 0 0 1 -2.74.43c-.14-3.07-1.1-3.74-2.35-3.74-1.68 0-4.08 3.07-4.08 6.82v4.6c0 4.18 1.25 5 4.27 5.14a6 6 0 0 1 .24 2.06c-1.48-.09-3.79-.14-6.05-.14s-5.08.05-6.33.14a6.28 6.28 0 0 1 .24-2.06c2.54-.14 3.31-1 3.31-4.18v-9.5c0-2.26-.43-3.31-3.6-3.41a3.07 3.07 0 0 1 .43-1.77 20.58 20.58 0 0 0 6.44-1.64c.57.2 1 .72 1 2.12a22.88 22.88 0 0 1 -.62 4.7 11.71 11.71 0 0 1 1-2.5c1.39-2.2 3.31-3.88 5.8-3.88a5.16 5.16 0 0 1 3.38 1.13z"/><path d="m109.85 12a4.82 4.82 0 0 1 -.38 2.11c-1.44.39-2 1.35-3.55 6l-4.85 14a4.3 4.3 0 0 1 -2.21.43c-2.06-5.24-4.51-11.14-6.72-16.13l-6.29 15.74a3.54 3.54 0 0 1 -2.11.43c-2.16-6.19-4.27-11.85-6.63-17.58-.72-1.78-1.29-2.4-2.68-2.84a6.26 6.26 0 0 1 -.29-2.06c1.25 0 2.59.1 4.7.1s3.65-.05 5.28-.15a7 7 0 0 1 -.24 2.11c-2.69.29-2.78 1.11-2.06 2.88 1.39 3.46 2.93 7.83 4.18 11.43l6.28-16.27a7.6 7.6 0 0 1 1.92-.2c2 4.61 4.47 10.66 6.77 16.52l2.74-8.16c1.49-4.66.43-5.91-1.92-6.2a5.49 5.49 0 0 1 -.43-2.11c1.2.1 2.88.15 4.27.15 1.73-.03 3.12-.08 4.22-.2z"/><path d="m111.56 32.23c2.54 0 3.31-1 3.31-4.18v-9.5c0-2.26-.33-3.41-3.6-3.41a3.07 3.07 0 0 1 .43-1.77c1.44 0 5.28-.82 6.44-1.64.57.2 1 .72 1 1.92v14.4c0 3.22.77 4.18 2.83 4.18a8.35 8.35 0 0 1 .24 2.06c-1.68-.09-3.6-.14-5.42-.14s-3.94.05-5.52.14a7.68 7.68 0 0 1 .29-2.06zm2.26-28.71a2.85 2.85 0 0 1 2.83-2.92 2.76 2.76 0 0 1 2.88 2.92 2.88 2.88 0 0 1 -2.88 2.79 2.77 2.77 0 0 1 -2.83-2.79z"/><path d="m149.34 34.29c-1.4-.09-3.27-.14-5.24-.14s-4.22.1-5.71.14a6.28 6.28 0 0 1 .24-2.06c2.31 0 3.31-1 3.31-4.18v-7.29c0-4.51-1.87-5.86-4.46-5.86s-5.43 2.16-5.43 8v5.13c0 3.22.82 4.18 3.32 4.18a6.47 6.47 0 0 1 .24 2.06c-1.35 0-3.75-.14-5.72-.14s-4.32.05-5.71.14a6.28 6.28 0 0 1 .24-2.06c2.5 0 3.31-1 3.31-4.18v-9.5c0-2.26-.43-3.31-3.6-3.41a3 3 0 0 1 .44-1.77 20.58 20.58 0 0 0 6.43-1.62c.58.2 1.05.72 1.05 2.12a10.87 10.87 0 0 1 -.33 2.83 8.69 8.69 0 0 1 .72-1.25 8.76 8.76 0 0 1 7-3.46c3.65 0 6.86 2 6.86 7.83v8.25c0 3.32.92 4.18 2.84 4.18a6.47 6.47 0 0 1 .2 2.06z"/><path d="m161.53 31.51a45.59 45.59 0 0 0 .43-6.82 11.36 11.36 0 0 1 2.59-.28c.24 4.89 2.26 7.87 7.39 7.87 4.42 0 6.15-2.21 6.15-5 0-8.5-16-6.24-16-17.38 0-5.38 3.7-8.64 9.65-8.64a15.58 15.58 0 0 1 8 2.11 54.58 54.58 0 0 0 .29 6.34 8.07 8.07 0 0 1 -2.69.43c-1-5.52-2.79-6.77-5.67-6.77-3.41 0-5.42 1.73-5.42 4.75 0 8.5 15.94 6.68 15.94 17.24 0 4.8-3.32 9.21-10.95 9.21-3.95.01-6.64-1.19-9.71-3.06z"/><path d="m184.53 23.25c0-5.76 3.51-11.52 10-11.52a11.5 11.5 0 0 1 7.24 2.16 36.38 36.38 0 0 0 -.33 5.48 5.64 5.64 0 0 1 -2.21.38c-.38-3.7-2.3-5.76-5.09-5.76-3.14.01-5.14 3.07-5.14 8.54 0 4.8 2.4 9.32 6.86 9.32a6.6 6.6 0 0 0 5.33-2.79 2.54 2.54 0 0 1 1.2 1.35 8.6 8.6 0 0 1 -7.87 4.17c-4.9 0-9.99-3.79-9.99-11.33z"/><path d="m229 34.29c-1.39-.09-3.26-.14-5.23-.14s-4.23.1-5.71.14a6 6 0 0 1 .24-2.06c2.3 0 3.31-1 3.31-4.18v-7.29c0-4.51-1.87-5.86-4.47-5.86s-5.42 2.16-5.42 8v5.13c0 3.22.82 4.18 3.31 4.18a6.47 6.47 0 0 1 .24 2.06c-1.34 0-3.74-.14-5.71-.14s-4.32.05-5.71.14a6.28 6.28 0 0 1 .24-2.06c2.49 0 3.31-1 3.31-4.18v-21.48c0-2.26-.34-3.41-3.6-3.41a3.12 3.12 0 0 1 .43-1.78c1.44 0 5.28-.81 6.43-1.63.58.19 1.06.72 1.06 1.92v12.2a10.94 10.94 0 0 1 -.34 2.83 11.16 11.16 0 0 1 .72-1.25 8.78 8.78 0 0 1 6.9-3.43c3.65 0 6.87 2 6.87 7.83v8.25c0 3.32.91 4.18 2.83 4.18a6.47 6.47 0 0 1 .3 2.03z"/><path d="m230 23.16c0-6.53 4.47-11.43 10.85-11.43 6.82 0 10.85 4.61 10.85 11.43 0 6.58-4.37 11.42-10.85 11.42s-10.85-4.51-10.85-11.42zm16.9.57c0-5.95-3-9.69-6.53-9.69s-5.52 3.31-5.52 8.11c0 6.48 2.5 10.13 6.39 10.13s5.61-3.5 5.61-8.55z"/><path d="m253.77 23.16c0-6.53 4.47-11.43 10.85-11.43 6.82 0 10.85 4.61 10.85 11.43 0 6.58-4.37 11.42-10.85 11.42s-10.85-4.51-10.85-11.42zm16.9.57c0-5.95-3-9.69-6.53-9.69s-5.52 3.31-5.52 8.11c0 6.48 2.5 10.13 6.39 10.13s5.66-3.5 5.66-8.55z"/><path d="m276.56 32.23c2.55 0 3.31-1 3.31-4.18v-21.5c0-2.26-.33-3.41-3.6-3.41a3 3 0 0 1 .44-1.78c1.44 0 5.28-.81 6.43-1.63.57.19 1.05.72 1.05 1.92v26.4c0 3.22.77 4.18 2.84 4.18a8.86 8.86 0 0 1 .24 2.06c-1.68-.09-3.6-.14-5.43-.14s-3.93.05-5.52.14a7.68 7.68 0 0 1 .24-2.06z"/><path d="m329.51 17.11c0 15.55-12.82 17-18.25 17-3.55 0-10 .05-12.43.14a6.28 6.28 0 0 1 .24-2.06c2.55-.14 3.36-1 3.36-4.7v-19.69c0-3.22-.77-4-3.31-4.18a6.66 6.66 0 0 1 -.24-2.06c1.49.09 4.61.14 6.72.14 1.87 0 3.79-.1 5.66-.1 8.5 0 18.25 2.31 18.25 15.51zm-4.95.72c0-10.42-6.86-14.4-14.06-14.4a15.35 15.35 0 0 0 -3.56.43v23.67c0 3.55.73 4.46 4.32 4.46 7.64.01 13.3-3.31 13.3-14.16z"/><path d="m331.62 32.23c2.54 0 3.31-1 3.31-4.18v-9.5c0-2.26-.34-3.41-3.6-3.41a3 3 0 0 1 .43-1.77c1.44 0 5.28-.82 6.43-1.64.58.2 1.06.72 1.06 1.92v14.4c0 3.22.77 4.18 2.83 4.18a8.86 8.86 0 0 1 .24 2.06c-1.68-.09-3.6-.14-5.42-.14s-3.94.05-5.52.14a7.3 7.3 0 0 1 .24-2.06zm2.25-28.71a2.86 2.86 0 0 1 2.83-2.92 2.76 2.76 0 0 1 2.88 2.92 2.87 2.87 0 0 1 -2.88 2.79 2.77 2.77 0 0 1 -2.83-2.79z"/><path d="m357.12 19a5.54 5.54 0 0 0 -5.37-5.28c-2 0-3.27 1.06-3.27 2.64s.58 2.45 5.72 4.47 6.81 3.6 6.81 7c0 4.09-3.79 6.77-8.78 6.77a14.79 14.79 0 0 1 -7.92-1.77 34.86 34.86 0 0 0 0-6 4.77 4.77 0 0 1 2.5-.52c.48 4 2.55 6 5.86 6 2.59 0 4.13-1.3 4.13-3.08s-.92-2.49-5.19-4.22c-5.18-2.06-7.1-3.41-7.1-7.3 0-4.08 4.75-6 8-6a13.32 13.32 0 0 1 6.91 1.68 24.76 24.76 0 0 0 .09 5 4.69 4.69 0 0 1 -2.39.61z"/><path d="m365.28 28.39v-13a11.74 11.74 0 0 0 -3.46-.62 4.67 4.67 0 0 1 .43-2.11h3v-6.35a9.8 9.8 0 0 0 3.55-1.92c.63.29.77.48.77 2.49v5.77h6.24a5.88 5.88 0 0 1 -.43 2.11 35.77 35.77 0 0 0 -5.81.62v12c0 3.22 1.06 4.61 2.78 4.61a4.5 4.5 0 0 0 3.17-1.15 3 3 0 0 1 .72 1.58 8 8 0 0 1 -5.42 2.16c-3.77 0-5.54-1.82-5.54-6.19z"/><path d="m395.43 13.32a43.68 43.68 0 0 0 -.34 5.66 9.61 9.61 0 0 1 -2.73.43c-.15-3.07-1.11-3.74-2.36-3.74-1.68 0-4.08 3.07-4.08 6.82v4.6c0 4.18 1.25 5 4.28 5.14a6.28 6.28 0 0 1 .24 2.06c-1.49-.09-3.8-.14-6.05-.14s-5.09.05-6.34.14a6.28 6.28 0 0 1 .24-2.06c2.54-.14 3.31-1 3.31-4.18v-9.5c0-2.26-.43-3.31-3.6-3.41a3.07 3.07 0 0 1 .43-1.77 20.58 20.58 0 0 0 6.44-1.64c.57.2 1.05.72 1.05 2.12a22.22 22.22 0 0 1 -.62 4.7 11.71 11.71 0 0 1 1-2.5c1.39-2.2 3.31-3.88 5.81-3.88a5.15 5.15 0 0 1 3.32 1.15z"/><path d="m397.25 32.23c2.54 0 3.31-1 3.31-4.18v-9.5c0-2.26-.33-3.41-3.6-3.41a3.07 3.07 0 0 1 .43-1.77c1.44 0 5.28-.82 6.44-1.64.57.2 1.05.72 1.05 1.92v14.4c0 3.22.77 4.18 2.83 4.18a8.35 8.35 0 0 1 .24 2.06c-1.68-.09-3.6-.14-5.42-.14s-3.94.05-5.52.14a7.68 7.68 0 0 1 .24-2.06zm2.26-28.71a2.85 2.85 0 0 1 2.83-2.92 2.76 2.76 0 0 1 2.88 2.92 2.88 2.88 0 0 1 -2.88 2.79 2.77 2.77 0 0 1 -2.83-2.79z"/><path d="m409 23.25c0-5.76 3.5-11.52 10-11.52a11.51 11.51 0 0 1 7.25 2.16 35.12 35.12 0 0 0 -.33 5.48 5.64 5.64 0 0 1 -2.21.38c-.39-3.7-2.3-5.76-5.09-5.76-3.17 0-5.14 3.07-5.14 8.54 0 4.8 2.4 9.32 6.87 9.32a6.61 6.61 0 0 0 5.33-2.79 2.54 2.54 0 0 1 1.2 1.35 8.61 8.61 0 0 1 -7.88 4.17c-4.88 0-10-3.79-10-11.33z"/><path d="m431.54 28.39v-13a11.73 11.73 0 0 0 -3.45-.62 4.54 4.54 0 0 1 .43-2.11h3v-6.35a9.84 9.84 0 0 0 3.56-1.92c.62.29.77.48.77 2.49v5.77h6.24a5.91 5.91 0 0 1 -.44 2.11 35.76 35.76 0 0 0 -5.8.62v12c0 3.22 1.05 4.61 2.78 4.61a4.51 4.51 0 0 0 3.17-1.15 3 3 0 0 1 .72 1.58 8 8 0 0 1 -5.43 2.16c-3.77 0-5.55-1.82-5.55-6.19z"/><path d="m5.34 61.82a9 9 0 0 1 -3.45-3.37 9.92 9.92 0 0 1 0-9.64 9.08 9.08 0 0 1 3.45-3.37 10 10 0 0 1 4.91-1.22 10.32 10.32 0 0 1 3.71.65 7.71 7.71 0 0 1 2.89 1.92l-.84.88a7.77 7.77 0 0 0 -5.7-2.2 8.53 8.53 0 0 0 -4.24 1.06 7.82 7.82 0 0 0 -3 2.93 8.59 8.59 0 0 0 0 8.34 7.75 7.75 0 0 0 3 2.93 8.53 8.53 0 0 0 4.24 1.06 7.81 7.81 0 0 0 5.69-2.22l.84.87a7.8 7.8 0 0 1 -2.84 1.94 10.18 10.18 0 0 1 -3.7.66 10 10 0 0 1 -4.96-1.22z"/><path d="m27.9 61.81a9 9 0 0 1 -3.45-3.38 9.77 9.77 0 0 1 0-9.6 9 9 0 0 1 3.45-3.37 9.84 9.84 0 0 1 4.93-1.24 10 10 0 0 1 4.93 1.22 9 9 0 0 1 3.46 3.37 9.85 9.85 0 0 1 0 9.64 9 9 0 0 1 -3.46 3.37 10 10 0 0 1 -4.93 1.18 9.94 9.94 0 0 1 -4.93-1.19zm9.15-1.08a7.71 7.71 0 0 0 3-2.93 8.52 8.52 0 0 0 0-8.34 7.78 7.78 0 0 0 -3-2.93 8.93 8.93 0 0 0 -8.44 0 7.79 7.79 0 0 0 -3 2.93 8.59 8.59 0 0 0 0 8.34 7.72 7.72 0 0 0 3 2.93 8.93 8.93 0 0 0 8.44 0z"/><path d="m68.69 62.91v-15.88l-7.79 13.41h-.67l-7.76-13.35v15.82h-1.33v-18.55h1.14l8.3 14.33 8.29-14.33h1.13v18.55z"/><path d="m98 62.91v-15.91l-7.8 13.44h-.66l-7.76-13.35v15.82h-1.33v-18.55h1.14l8.3 14.33 8.29-14.33h1.11v18.55z"/><path d="m111.55 61a8.31 8.31 0 0 1 -2-6v-10.64h1.45v10.64a7.35 7.35 0 0 0 1.57 5.12 6.88 6.88 0 0 0 9 0 7.3 7.3 0 0 0 1.55-5.12v-10.64h1.35v10.64a8.27 8.27 0 0 1 -2 6 8.38 8.38 0 0 1 -11 0z"/><path d="m149.86 44.36v18.55h-1.12l-12.64-16.12v16.12h-1.35v-18.55h1.14l12.61 16.11v-16.11z"/><path d="m160.3 44.36h1.35v18.55h-1.35z"/><path d="m175.64 45.58h-6.64v-1.22h14.71v1.22h-6.71v17.33h-1.35z"/><path d="m196.63 56.52v6.39h-1.35v-6.39l-7.48-12.16h1.49l6.71 10.91 6.71-10.91h1.4z"/><path d="m223.58 45.58v7.92h9.88v1.22h-9.88v8.19h-1.35v-18.55h12.4v1.22z"/><path d="m245.63 61.81a9.06 9.06 0 0 1 -3.46-3.38 9.77 9.77 0 0 1 0-9.6 9 9 0 0 1 3.46-3.37 9.81 9.81 0 0 1 4.93-1.24 10 10 0 0 1 4.93 1.22 9.08 9.08 0 0 1 3.45 3.37 9.85 9.85 0 0 1 0 9.64 9 9 0 0 1 -3.45 3.37 10 10 0 0 1 -4.93 1.18 9.91 9.91 0 0 1 -4.93-1.19zm9.14-1.08a7.81 7.81 0 0 0 3-2.93 8.59 8.59 0 0 0 0-8.34 7.88 7.88 0 0 0 -3-2.93 8.93 8.93 0 0 0 -8.44 0 7.77 7.77 0 0 0 -3 2.93 8.52 8.52 0 0 0 0 8.34 7.7 7.7 0 0 0 3 2.93 8.93 8.93 0 0 0 8.44 0z"/><path d="m270.66 61a8.31 8.31 0 0 1 -2-6v-10.64h1.35v10.64a7.35 7.35 0 0 0 1.56 5.12 5.89 5.89 0 0 0 4.54 1.69 5.81 5.81 0 0 0 4.5-1.69 7.35 7.35 0 0 0 1.61-5.12v-10.64h1.36v10.64a8.31 8.31 0 0 1 -2 6 8.38 8.38 0 0 1 -11 0z"/><path d="m309 44.36v18.55h-1.11l-12.68-16.12v16.12h-1.35v-18.55h1.14l12.61 16.11v-16.11z"/><path d="m319.41 44.36h7.33a10.67 10.67 0 0 1 5.13 1.19 8.61 8.61 0 0 1 3.49 3.3 9.83 9.83 0 0 1 0 9.56 8.61 8.61 0 0 1 -3.49 3.3 10.68 10.68 0 0 1 -5.13 1.2h-7.33zm7.23 17.33a9.69 9.69 0 0 0 4.53-1 7.23 7.23 0 0 0 3-2.85 8.81 8.81 0 0 0 0-8.38 7.27 7.27 0 0 0 -3-2.84 9.69 9.69 0 0 0 -4.53-1h-5.88v16.07z"/><path d="m356.48 57.69h-10.76l-2.36 5.22h-1.46l8.54-18.55h1.35l8.53 18.55h-1.46zm-.48-1.14-4.9-10.71-4.85 10.71z"/><path d="m370.28 45.58h-6.67v-1.22h14.7v1.22h-6.67v17.33h-1.36z"/><path d="m385.63 44.36h1.37v18.55h-1.35z"/><path d="m400.36 61.81a9.06 9.06 0 0 1 -3.46-3.38 9.77 9.77 0 0 1 0-9.6 9 9 0 0 1 3.46-3.37 9.84 9.84 0 0 1 4.93-1.24 10 10 0 0 1 4.93 1.22 9 9 0 0 1 3.46 3.37 9.85 9.85 0 0 1 0 9.64 9 9 0 0 1 -3.46 3.37 10 10 0 0 1 -4.93 1.18 9.94 9.94 0 0 1 -4.93-1.19zm9.14-1.08a7.67 7.67 0 0 0 3-2.93 8.52 8.52 0 0 0 0-8.34 7.74 7.74 0 0 0 -3-2.93 8.39 8.39 0 0 0 -4.21-1.06 8.52 8.52 0 0 0 -4.23 1.06 7.84 7.84 0 0 0 -3 2.93 8.52 8.52 0 0 0 0 8.34 7.77 7.77 0 0 0 3 2.93 8.52 8.52 0 0 0 4.23 1.06 8.39 8.39 0 0 0 4.21-1.06z"/><path d="m438.71 44.36v18.55h-1.12l-12.59-16.12v16.12h-1.4v-18.55h1.14l12.62 16.11v-16.11z"/></g></svg>