<svg viewBox="0 0 419 78" xmlns="http://www.w3.org/2000/svg"><g fill="#454c5b"><path d="m31.88 2.44a7.94 7.94 0 0 1 -.24 2.07c-2.12 0-2.83 1.58-2.83 6.81v23.68a7.05 7.05 0 0 1 -2.07.28l-19.82-25.83v16.61c0 5.42.72 7.06 3.31 7.06a6.25 6.25 0 0 1 .24 2.06c-1.47-.1-3.36-.18-4.75-.18s-3.61 0-4.8.14a6.61 6.61 0 0 1 .23-2.06c2.6 0 3.32-1.64 3.32-7.06v-19.79l-.2-.23c-.91-1.16-1.53-1.35-3.12-1.49a8.39 8.39 0 0 1 -.23-2.07c1 .1 2.35.15 3.55.15a29.58 29.58 0 0 0 3.21-.15l18.68 24.77v-15.89c0-5.23-.72-6.81-3.32-6.81a10.92 10.92 0 0 1 -.24-2.07c1.4.1 3.17.15 4.52.15s3.26-.05 4.56-.15z"/><path d="m33.09 24c0-6.53 4.46-11.42 10.85-11.42 6.81 0 10.85 4.61 10.85 11.42 0 6.58-4.37 11.43-10.85 11.43s-10.85-4.43-10.85-11.43zm16.9.58c0-5.95-3-9.7-6.53-9.7-3.7 0-5.52 3.31-5.52 8.12 0 6.48 2.49 10.12 6.38 10.12s5.68-3.46 5.68-8.5z"/><path d="m73.33 14.2a44 44 0 0 0 -.33 5.67 9.69 9.69 0 0 1 -2.74.43c-.14-3.07-1.1-3.75-2.35-3.75-1.68 0-4.08 3.08-4.08 6.82v4.63c0 4.18 1.25 5 4.27 5.14a6.25 6.25 0 0 1 .24 2.06c-1.49-.1-3.79-.14-6.05-.14s-5.09 0-6.33.14a6 6 0 0 1 .24-2.06c2.54-.15 3.31-1 3.31-4.18v-9.53c0-2.25-.43-3.31-3.6-3.4a3 3 0 0 1 .43-1.78 20.24 20.24 0 0 0 6.43-1.63c.58.19 1.06.72 1.06 2.11a22.09 22.09 0 0 1 -.63 4.7 12.47 12.47 0 0 1 1-2.49c1.39-2.21 3.31-3.89 5.81-3.89a5.11 5.11 0 0 1 3.32 1.15z"/><path d="m110.13 12.91a5 5 0 0 1 -.38 2.11c-1.44.38-2 1.34-3.56 6.05l-4.84 14a4.41 4.41 0 0 1 -2.21.43c-2.07-5.28-4.52-11.19-6.72-16.18l-6.29 15.68a3.62 3.62 0 0 1 -2.11.43c-2.16-6.19-4.28-11.86-6.63-17.62-.72-1.78-1.29-2.4-2.69-2.83a6.33 6.33 0 0 1 -.28-1.98c1.24.05 2.59.1 4.7.1s3.65-.05 5.28-.14a7.37 7.37 0 0 1 -.24 2.04c-2.69.29-2.78 1.1-2.06 2.88 1.39 3.45 2.92 7.82 4.17 11.42l6.29-16.27a8.11 8.11 0 0 1 1.92-.19c2 4.61 4.46 10.66 6.77 16.51l2.75-8.14c1.48-4.66.43-5.9-1.92-6.19a5.51 5.51 0 0 1 -.44-2.11c1.2.09 2.88.14 4.28.14 1.71 0 3.08-.05 4.21-.14z"/><path d="m111.84 33.12c2.54 0 3.31-1 3.31-4.18v-9.51c0-2.25-.34-3.4-3.6-3.4a3 3 0 0 1 .43-1.78c1.44 0 5.28-.82 6.43-1.63.58.19 1.06.72 1.06 1.92v14.4c0 3.22.77 4.18 2.83 4.18a8.86 8.86 0 0 1 .24 2.06c-1.68-.1-3.6-.14-5.42-.14s-3.94 0-5.52.14a7.25 7.25 0 0 1 .24-2.06zm2.25-28.71a2.86 2.86 0 0 1 2.84-2.93 2.76 2.76 0 0 1 2.88 2.93 2.87 2.87 0 0 1 -2.88 2.78 2.76 2.76 0 0 1 -2.84-2.78z"/><path d="m149.61 35.18c-1.39-.1-3.26-.14-5.23-.14s-4.22.09-5.71.14a6.25 6.25 0 0 1 .24-2.06c2.3 0 3.31-1 3.31-4.18v-7.3c0-4.51-1.87-5.85-4.46-5.85s-5.43 2.16-5.43 8v5.14c0 3.22.82 4.18 3.31 4.18a6.16 6.16 0 0 1 .24 2.06c-1.34 0-3.74-.14-5.71-.14s-4.32 0-5.71.14a6.25 6.25 0 0 1 .24-2.06c2.5 0 3.31-1 3.31-4.18v-9.5c0-2.25-.43-3.31-3.6-3.4a3.12 3.12 0 0 1 .43-1.78 20.3 20.3 0 0 0 6.44-1.63c.57.19 1.05.72 1.05 2.11a11.22 11.22 0 0 1 -.33 2.83 9.26 9.26 0 0 1 .72-1.25 8.77 8.77 0 0 1 7-3.45c3.65 0 6.86 2 6.86 7.82v8.26c0 3.31.91 4.18 2.83 4.18a6.16 6.16 0 0 1 .2 2.06z"/><path d="m191.13 35.18c-1 0-3.93-.14-5.47-.14s-4.46.09-5.42.14a4.61 4.61 0 0 1 .33-2.06c2.64-.29 3-.82 1.73-3.75l-2.11-4.89c-4 0-8.88 0-12.68.19l-1.29 3.33c-1.44 3.79-.91 4.94 1.73 5.14a5.43 5.43 0 0 1 .33 2.06c-1.1-.1-3-.14-4.56-.14s-3.07.09-4 .14a5.79 5.79 0 0 1 .34-2c1.72-.33 2.35-1.39 3.84-5.18l9.93-25.49a7.74 7.74 0 0 1 1.87-.19l11.43 26.21c1.58 3.6 2.21 4.37 3.7 4.61a6.24 6.24 0 0 1 .3 2.02zm-11.85-12.86-3.65-8.55c-.82-1.87-1.35-3-2.11-5.23-.72 2.25-1.3 3.74-1.83 5.18l-3.31 8.6z"/><path d="m193 33.12c2.54 0 3.31-1 3.31-4.18v-21.51c0-2.25-.34-3.4-3.6-3.4a3.12 3.12 0 0 1 .43-1.78c1.44 0 5.28-.82 6.44-1.63.57.19 1 .72 1 1.92v26.4c0 3.22.77 4.18 2.83 4.18a8.35 8.35 0 0 1 .24 2.06c-1.68-.1-3.6-.14-5.42-.14s-3.94 0-5.52.14a7.63 7.63 0 0 1 .29-2.06z"/><path d="m227.85 31.77a7 7 0 0 1 -.29 2.21 15 15 0 0 0 -5.47 1.49c-.67-.29-1.2-.58-1.2-2.79a11.82 11.82 0 0 1 .15-2 7 7 0 0 1 -1.54 2.11 7.72 7.72 0 0 1 -6 2.45c-4.32 0-6.87-2.16-6.87-8.55v-7.26c0-2.25-.24-3.31-3.16-3.4a3.57 3.57 0 0 1 .33-1.78 18.25 18.25 0 0 0 6.1-1.63c.57.19 1 .72 1 2.11v10.9c0 4.32 1 6.67 4 6.67 3.17 0 5.62-2.64 5.62-8.21v-4.9c0-2.25-.44-3.31-3.61-3.4a3.1 3.1 0 0 1 .34-1.78 20 20 0 0 0 6.53-1.39c.58.19 1.06.72 1.06 2.11v13.78c.04 2.25.37 3.26 3.01 3.26z"/><path d="m268.84 35.18c-1.44-.1-3.32-.14-5.24-.14s-4.12 0-5.71.14a6.25 6.25 0 0 1 .24-2.06c2.55-.15 3.31-1 3.31-4.18v-7.3c0-4.51-1.82-5.85-4.41-5.85s-5.33 2.16-5.33 8v5.14c0 3.31.91 4 3.36 4.18a6.43 6.43 0 0 1 .24 2.06c-1.63-.1-3.84-.14-5.71-.14s-4 0-5.72.14a6.25 6.25 0 0 1 .24-2.06c2.55-.15 3.32-1 3.32-4.18v-7.53c0-4.51-1.83-5.85-4.42-5.85s-5.33 2.16-5.33 8v5.38c0 3.22.82 4 3.36 4.18a6.43 6.43 0 0 1 .24 2.06c-1.63-.1-4-.14-5.71-.14s-4.18 0-5.71.14a6.25 6.25 0 0 1 .24-2.06c2.54-.15 3.31-1 3.31-4.18v-9.5c0-2.25-.43-3.31-3.6-3.4a3.12 3.12 0 0 1 .43-1.78 19.73 19.73 0 0 0 6.19-1.63c.58.19 1.06.72 1.06 1.92a30.55 30.55 0 0 1 -.19 3.07 6.28 6.28 0 0 1 .77-1.54 8.55 8.55 0 0 1 6.86-3.45c2.69 0 5.14 1.1 6.15 4a4.79 4.79 0 0 1 .19 1.2 5.41 5.41 0 0 1 .81-1.54 8.67 8.67 0 0 1 6.92-3.42c3.6 0 6.77 2 6.77 7.82v8.26c0 3.31.91 4 2.88 4.18a6.43 6.43 0 0 1 .19 2.06z"/><path d="m296 35.18c-1.39-.1-3.26-.14-5.23-.14s-4.22.09-5.71.14a6 6 0 0 1 .24-2.06c2.3 0 3.31-1 3.31-4.18v-7.3c0-4.51-1.87-5.85-4.46-5.85s-5.43 2.16-5.43 8v5.14c0 3.22.82 4.18 3.31 4.18a6.16 6.16 0 0 1 .24 2.06c-1.34 0-3.74-.14-5.71-.14s-4.32 0-5.71.14a6.25 6.25 0 0 1 .24-2.06c2.49 0 3.31-1 3.31-4.18v-9.5c0-2.25-.43-3.31-3.6-3.4a3.12 3.12 0 0 1 .43-1.78 20.17 20.17 0 0 0 6.43-1.63c.58.19 1.06.72 1.06 2.11a10.84 10.84 0 0 1 -.34 2.83 12.13 12.13 0 0 1 .72-1.25 8.81 8.81 0 0 1 7-3.45c3.64 0 6.86 2 6.86 7.82v8.26c0 3.31.91 4.18 2.83 4.18a6.43 6.43 0 0 1 .21 2.06z"/><path d="m298.24 33.12c2.54 0 3.31-1 3.31-4.18v-9.51c0-2.25-.34-3.4-3.6-3.4a3 3 0 0 1 .43-1.78c1.44 0 5.28-.82 6.43-1.63.58.19 1.06.72 1.06 1.92v14.4c0 3.22.77 4.18 2.83 4.18a8.86 8.86 0 0 1 .24 2.06c-1.68-.1-3.6-.14-5.42-.14s-3.94 0-5.52.14a7.25 7.25 0 0 1 .24-2.06zm2.25-28.71a2.86 2.86 0 0 1 2.84-2.93 2.76 2.76 0 0 1 2.88 2.93 2.87 2.87 0 0 1 -2.88 2.78 2.76 2.76 0 0 1 -2.84-2.78z"/><path d="m31.2 74.4a6.9 6.9 0 0 1 -.28 2.16 32.86 32.86 0 0 0 -7 .91c-1.25-1.68-2.5-3.22-3.75-4.71-2.73 3.36-5.52 4.76-9.07 4.76-7.69 0-10.28-5.52-10.28-10.47 0-4.46 2.69-7.87 6.14-10.22a14.15 14.15 0 0 1 -1.96-7.06c0-3.65 2.84-7.15 7.88-7.15a11.9 11.9 0 0 1 6.52 1.68 31 31 0 0 0 -.24 5.61 6.58 6.58 0 0 1 -2.54.39c-.24-4.08-1.44-5.57-4-5.57-2.21 0-3.79 1.54-3.79 4.13 0 2.83.81 4.8 4.51 9.41 1.58 2 3.65 4.46 8.16 9.36a23.66 23.66 0 0 0 3-6.63c.63-2.49-.24-3.41-3.6-4.08a7.41 7.41 0 0 1 -.33-2c1.34.09 3.31.14 4.89.14s3.7 0 4.81-.14a8.7 8.7 0 0 1 -.2 2c-2 .72-2.69 1.68-3.31 3.94a36.18 36.18 0 0 1 -3.7 8.5c.82.86 1.68 1.82 2.64 2.83 1.57 1.63 2.63 2.01 5.5 2.21zm-12.62-3.46c-2.58-2.94-5.09-5.66-7.58-8.64a49.25 49.25 0 0 1 -3-3.94 10.19 10.19 0 0 0 -3.07 7.3c0 5.33 3.12 8.16 6.87 8.16a9.31 9.31 0 0 0 6.78-2.88z"/><path d="m51.79 46.51v14.11h3.32c3.93 0 5.28-.77 5.32-3.89a7.47 7.47 0 0 1 2.31-.34c-.1 1.64-.1 3.56-.1 5.24s0 3.93.1 5.57a8.06 8.06 0 0 1 -2.21-.2c-.24-3.32-1.49-4.28-5.42-4.28h-3.32v7.28c0 4.18 1.25 5 4.28 5.14a6.25 6.25 0 0 1 .24 2.06c-1.49-.1-3.8-.14-6.05-.14s-5.28 0-6.53.14a6.25 6.25 0 0 1 .27-2.08c2.54-.15 3.31-1 3.31-4.18v-20.26c0-3.21-.77-4-3.31-4.17a6.31 6.31 0 0 1 -.24-2.07c2.11.1 5.71.15 8 .15 7.48 0 11.76-.1 13.34-.15a65.34 65.34 0 0 0 1 7.59 3.41 3.41 0 0 1 -2.16.57c-.24-3-1.68-6.09-7.87-6.09z"/><path d="m83.63 56.2a44 44 0 0 0 -.33 5.67 9.69 9.69 0 0 1 -2.74.43c-.14-3.07-1.1-3.75-2.35-3.75-1.68 0-4.08 3.08-4.08 6.82v4.63c0 4.18 1.25 5 4.27 5.14a6.25 6.25 0 0 1 .24 2.06c-1.49-.1-3.79-.14-6-.14s-5.09 0-6.33.14a6 6 0 0 1 .24-2.06c2.54-.15 3.31-1 3.31-4.18v-9.53c0-2.25-.43-3.31-3.6-3.4a3 3 0 0 1 .43-1.78 20.24 20.24 0 0 0 6.43-1.63c.58.19 1.06.72 1.06 2.11a22.09 22.09 0 0 1 -.63 4.7 12.47 12.47 0 0 1 1-2.49c1.39-2.21 3.31-3.89 5.81-3.89a5.13 5.13 0 0 1 3.27 1.15z"/><path d="m85.45 75.12c2.55 0 3.32-1 3.32-4.18v-9.51c0-2.25-.34-3.4-3.6-3.4a3 3 0 0 1 .43-1.78c1.44 0 5.28-.82 6.43-1.63.58.19 1.06.72 1.06 1.92v14.4c0 3.22.76 4.18 2.83 4.18a8.86 8.86 0 0 1 .24 2.06c-1.68-.1-3.6-.14-5.42-.14s-3.94 0-5.53.14a7.63 7.63 0 0 1 .24-2.06zm2.26-28.71a2.86 2.86 0 0 1 2.83-2.93 2.76 2.76 0 0 1 2.88 2.93 2.86 2.86 0 0 1 -2.88 2.78 2.76 2.76 0 0 1 -2.83-2.78z"/><path d="m116 73.48a10 10 0 0 1 -8.55 4c-6.81 0-10.18-5.14-10.18-11.43s3.8-11.42 9.94-11.42 8.59 4.46 9 9.93a4.06 4.06 0 0 1 -.72 1.64c-2 0-8.45 0-13.44.24.28 4.27 1.92 8.35 7 8.35a7.82 7.82 0 0 0 5.75-2.79 2.51 2.51 0 0 1 1.2 1.48zm-14-9.45h9.22c0-4.23-1.64-7.11-4.42-7.11-2.27 0-4.57 1.54-4.86 7.08z"/><path d="m142.82 77.18c-1.39-.1-3.26-.14-5.23-.14s-4.23.09-5.71.14a6.25 6.25 0 0 1 .24-2.06c2.3 0 3.31-1 3.31-4.18v-7.3c0-4.51-1.87-5.85-4.47-5.85s-5.42 2.16-5.42 8v5.14c0 3.22.82 4.18 3.31 4.18a6.43 6.43 0 0 1 .24 2.06c-1.34-.05-3.74-.14-5.71-.14s-4.32 0-5.71.14a6.25 6.25 0 0 1 .24-2.06c2.49 0 3.31-1 3.31-4.18v-9.5c0-2.25-.43-3.31-3.6-3.4a3.12 3.12 0 0 1 .43-1.78 20.17 20.17 0 0 0 6.43-1.63c.58.19 1.06.72 1.06 2.11a10.84 10.84 0 0 1 -.34 2.83 10.85 10.85 0 0 1 .73-1.25 8.76 8.76 0 0 1 6.95-3.45c3.65 0 6.87 2 6.87 7.82v8.26c0 3.31.91 4.18 2.83 4.18a6.43 6.43 0 0 1 .24 2.06z"/><path d="m167 73.77a7 7 0 0 1 -.29 2.21 15 15 0 0 0 -5.47 1.49c-.67-.29-1.2-.58-1.2-2.79a13.16 13.16 0 0 1 .38-2.78 15.26 15.26 0 0 1 -1.1 2 8.13 8.13 0 0 1 -6.58 3.55c-5.62 0-9-3.27-9-10.66 0-6.72 4.76-12.19 12-12.19a11.61 11.61 0 0 1 4 .67v-5.84c0-2.25-.33-3.4-3.6-3.4a3.12 3.12 0 0 1 .43-1.78c1.44 0 5.28-.82 6.44-1.63.57.19 1.05.72 1.05 1.92v26c-.01 2.22.33 3.23 2.94 3.23zm-7.3-8.49v-6.77a5.84 5.84 0 0 0 -4.22-1.68c-2.64 0-7 1.72-7 9.36 0 6.14 3.26 8.25 5.37 8.25 2.91 0 5.88-2.44 5.88-9.16z"/><path d="m182 61.87a5.55 5.55 0 0 0 -5.38-5.28c-2 0-3.26 1-3.26 2.64s.57 2.44 5.71 4.46 6.82 3.6 6.82 7c0 4.08-3.8 6.77-8.79 6.77a14.78 14.78 0 0 1 -7.92-1.78 35.78 35.78 0 0 0 0-6 4.76 4.76 0 0 1 2.5-.53c.48 4 2.54 6 5.85 6 2.59 0 4.13-1.29 4.13-3.07s-.91-2.5-5.18-4.22c-5.19-2.07-7.11-3.41-7.11-7.3 0-4.08 4.75-6 8-6a13.22 13.22 0 0 1 6.91 1.68 25.45 25.45 0 0 0 .1 5 4.71 4.71 0 0 1 -2.38.63z"/><path d="m227.57 77.18c-1-.05-3.94-.14-5.47-.14s-4.47.09-5.43.14a4.61 4.61 0 0 1 .34-2.06c2.64-.29 3-.82 1.73-3.75l-2.12-4.89c-4 0-8.88 0-12.67.19l-1.29 3.33c-1.45 3.79-.92 4.94 1.72 5.14a5.43 5.43 0 0 1 .34 2.06c-1.11-.1-3-.14-4.56-.14s-3.07.09-4 .14a5.78 5.78 0 0 1 .33-2c1.73-.33 2.35-1.39 3.84-5.18l9.94-25.49a7.63 7.63 0 0 1 1.87-.19l11.43 26.21c1.58 3.6 2.2 4.37 3.69 4.61a6.26 6.26 0 0 1 .31 2.02zm-11.86-12.86-3.65-8.55c-.81-1.87-1.34-3-2.11-5.23-.72 2.25-1.29 3.74-1.82 5.18l-3.31 8.6z"/><path d="m242.07 61.87a5.54 5.54 0 0 0 -5.37-5.28c-2 0-3.27 1-3.27 2.64s.58 2.44 5.71 4.46 6.82 3.6 6.82 7c0 4.08-3.79 6.77-8.78 6.77a14.78 14.78 0 0 1 -7.92-1.78 34.74 34.74 0 0 0 0-6 4.76 4.76 0 0 1 2.5-.53c.48 4 2.55 6 5.86 6 2.59 0 4.12-1.29 4.12-3.07s-.91-2.5-5.18-4.22c-5.18-2.07-7.1-3.41-7.1-7.3 0-4.08 4.75-6 8-6a13.23 13.23 0 0 1 6.92 1.68 24.67 24.67 0 0 0 .09 5 4.69 4.69 0 0 1 -2.4.63z"/><path d="m261.1 61.87a5.56 5.56 0 0 0 -5.38-5.28c-2 0-3.27 1-3.27 2.64s.58 2.44 5.72 4.46 6.81 3.6 6.81 7c0 4.08-3.79 6.77-8.78 6.77a14.78 14.78 0 0 1 -7.92-1.78 35.78 35.78 0 0 0 .05-6 4.7 4.7 0 0 1 2.49-.53c.48 4 2.55 6 5.86 6 2.59 0 4.13-1.29 4.13-3.07s-.91-2.5-5.19-4.22c-5.18-2.07-7.1-3.41-7.1-7.3 0-4.08 4.75-6 8-6a13.22 13.22 0 0 1 6.91 1.68 24.69 24.69 0 0 0 .1 5 4.74 4.74 0 0 1 -2.43.63z"/><path d="m267 66c0-6.53 4.47-11.42 10.85-11.42 6.82 0 10.85 4.61 10.85 11.42 0 6.58-4.37 11.43-10.85 11.43s-10.85-4.43-10.85-11.43zm16.9.58c0-6-3-9.7-6.53-9.7s-5.52 3.31-5.52 8.12c0 6.48 2.49 10.12 6.38 10.12s5.63-3.46 5.63-8.5z"/><path d="m290.78 66.14c0-5.76 3.51-11.52 10-11.52a11.53 11.53 0 0 1 7.22 2.16 35 35 0 0 0 -.34 5.47 5.47 5.47 0 0 1 -2.21.38c-.38-3.69-2.3-5.76-5.09-5.76-3.16 0-5.13 3.08-5.13 8.55 0 4.8 2.4 9.31 6.86 9.31a6.6 6.6 0 0 0 5.35-2.73 2.55 2.55 0 0 1 1.2 1.34 8.59 8.59 0 0 1 -7.87 4.18c-4.9-.05-9.99-3.84-9.99-11.38z"/><path d="m310.49 75.12c2.55 0 3.31-1 3.31-4.18v-9.51c0-2.25-.33-3.4-3.6-3.4a3 3 0 0 1 .44-1.78c1.44 0 5.28-.82 6.43-1.63.57.19 1.05.72 1.05 1.92v14.4c0 3.22.77 4.18 2.84 4.18a8.86 8.86 0 0 1 .24 2.06c-1.68-.1-3.6-.14-5.43-.14s-3.93 0-5.52.14a7.63 7.63 0 0 1 .24-2.06zm2.26-28.71a2.86 2.86 0 0 1 2.83-2.93 2.76 2.76 0 0 1 2.88 2.93 2.87 2.87 0 0 1 -2.88 2.78 2.76 2.76 0 0 1 -2.83-2.78z"/><path d="m342.72 73.77a7 7 0 0 1 -.29 2.21 13.87 13.87 0 0 0 -5.24 1.49c-.72-.29-1.15-1-1.15-2.83a11.23 11.23 0 0 1 0-1.25 6.41 6.41 0 0 1 -1.68 2.35 7.46 7.46 0 0 1 -5.09 1.63c-4 0-6.19-1.92-6.19-5.09 0-6.24 8.35-7.53 12.29-8.11 0-3.94-.19-4.94-1-6a3.67 3.67 0 0 0 -3-1.44c-3.21 0-4.12 3.55-4.22 5.57a7.88 7.88 0 0 1 -2.5-.34 20.57 20.57 0 0 0 -.24-5.23 19 19 0 0 1 8.16-2.16 7 7 0 0 1 5.09 1.82c1.63 1.63 2 4 2 8.31v5.3c.08 2.76.46 3.63 3.06 3.77zm-7.3-7.63c-3.27.43-7.63 1-7.63 5.18 0 2.36 1.34 3.41 2.88 3.41 2.11 0 4.75-2 4.75-6.77z"/><path d="m346 71.28v-13a11.7 11.7 0 0 0 -3.46-.63 4.73 4.73 0 0 1 .43-2.11h3v-6.35a9.73 9.73 0 0 0 3.55-1.92c.62.29.77.48.77 2.5v5.76h6.24a6.11 6.11 0 0 1 -.43 2.11 35.65 35.65 0 0 0 -5.81.63v12c0 3.21 1.05 4.61 2.78 4.61a4.5 4.5 0 0 0 3.17-1.16 3.07 3.07 0 0 1 .72 1.59 8 8 0 0 1 -5.42 2.16c-3.81 0-5.54-1.83-5.54-6.19z"/><path d="m359 75.12c2.54 0 3.31-1 3.31-4.18v-9.51c0-2.25-.33-3.4-3.6-3.4a3.12 3.12 0 0 1 .43-1.78c1.44 0 5.28-.82 6.44-1.63.57.19 1.05.72 1.05 1.92v14.4c0 3.22.77 4.18 2.83 4.18a8.42 8.42 0 0 1 .25 2.06c-1.68-.1-3.6-.14-5.43-.14s-3.94 0-5.52.14a7.63 7.63 0 0 1 .24-2.06zm2.26-28.71a2.86 2.86 0 0 1 2.83-2.93 2.76 2.76 0 0 1 2.88 2.93 2.87 2.87 0 0 1 -2.88 2.78 2.76 2.76 0 0 1 -2.86-2.78z"/><path d="m370.6 66c0-6.53 4.47-11.42 10.85-11.42 6.82 0 10.85 4.61 10.85 11.42 0 6.58-4.37 11.43-10.85 11.43s-10.85-4.43-10.85-11.43zm16.9.58c0-6-3-9.7-6.53-9.7-3.7 0-5.52 3.31-5.52 8.12 0 6.48 2.49 10.12 6.38 10.12s5.67-3.46 5.67-8.5z"/><path d="m418.62 77.18c-1.39-.1-3.26-.14-5.23-.14s-4.22.09-5.71.14a6 6 0 0 1 .24-2.06c2.3 0 3.31-1 3.31-4.18v-7.3c0-4.51-1.87-5.85-4.47-5.85s-5.42 2.16-5.42 8v5.14c0 3.22.82 4.18 3.31 4.18a6.16 6.16 0 0 1 .24 2.06c-1.34-.05-3.74-.14-5.71-.14s-4.32 0-5.71.14a6 6 0 0 1 .24-2.06c2.49 0 3.31-1 3.31-4.18v-9.5c0-2.25-.43-3.31-3.6-3.4a3 3 0 0 1 .43-1.78 20.17 20.17 0 0 0 6.43-1.63c.58.19 1.06.72 1.06 2.11a10.84 10.84 0 0 1 -.34 2.83 12.13 12.13 0 0 1 .72-1.25 8.8 8.8 0 0 1 7-3.45c3.65 0 6.87 2 6.87 7.82v8.26c0 3.31.91 4.18 2.83 4.18a6.43 6.43 0 0 1 .2 2.06z"/></g></svg>