<svg class="button__icon button__icon--paypal button__icon--small-paypal" enable-background="new 0 0 526.8 140.4" version="1.1" viewBox="0 0 526.8 140.4" xml:space="preserve" xmlns="http://www.w3.org/2000/svg">
<style type="text/css">
	.st0{fill:#283B82;}
	.st1{fill:#469BDB;}
</style>
<path class="st0" d="m63.2 0h-41c-2.8 0-5.2 2-5.6 4.8l-16.6 105.1c-0.3 2.1 1.3 3.9 3.4 3.9h19.6c2.8 0 5.2-2 5.6-4.8l4.5-28.3c0.4-2.8 2.8-4.8 5.6-4.8h13c27 0 42.6-13.1 46.6-38.9 1.8-11.3 0.1-20.2-5.2-26.5-5.8-6.9-16.2-10.5-29.9-10.5zm4.7 38.4c-2.2 14.7-13.5 14.7-24.3 14.7h-6.2l4.3-27.5c0.3-1.7 1.7-2.9 3.4-2.9h2.9c7.4 0 14.4 0 18 4.2 2.1 2.6 2.8 6.3 1.9 11.5"/>
<path class="st0" d="m185.7 37.9h-19.6c-1.7 0-3.1 1.2-3.4 2.9l-0.9 5.5-1.4-2c-4.2-6.2-13.7-8.2-23.2-8.2-21.7 0-40.2 16.4-43.8 39.5-1.9 11.5 0.8 22.5 7.3 30.1 6 7 14.5 10 24.7 10 17.5 0 27.2-11.2 27.2-11.2l-0.9 5.5c-0.3 2.1 1.3 4 3.4 4h17.7c2.8 0 5.2-2 5.6-4.8l10.6-67.3c0.4-2.1-1.2-4-3.3-4zm-27.4 38.2c-1.9 11.2-10.8 18.7-22.1 18.7-5.7 0-10.3-1.8-13.2-5.3-2.9-3.4-4-8.3-3.1-13.8 1.8-11.1 10.8-18.9 22-18.9 5.6 0 10.1 1.9 13.1 5.3 3 3.6 4.2 8.6 3.3 14"/>
<path class="st0" d="m290.2 37.9h-19.7c-1.9 0-3.6 0.9-4.7 2.5l-27.2 40.1-11.6-38.5c-0.7-2.4-2.9-4.1-5.5-4.1h-19.4c-2.4 0-4 2.3-3.2 4.5l21.7 63.7-20.3 28.9c-1.6 2.3 0 5.4 2.8 5.4h19.7c1.9 0 3.6-0.9 4.7-2.4l65.5-94.7c1.6-2.3-0.1-5.4-2.8-5.4"/>
<path class="st1" d="m355.5 0h-41c-2.8 0-5.2 2-5.6 4.8l-16.6 105.1c-0.3 2.1 1.3 3.9 3.4 3.9h21c2 0 3.6-1.4 3.9-3.4l4.7-29.8c0.4-2.8 2.8-4.8 5.6-4.8h13c27 0 42.6-13.1 46.6-38.9 1.8-11.3 0.1-20.2-5.2-26.5-5.8-6.8-16.1-10.4-29.8-10.4zm4.7 38.4c-2.2 14.7-13.5 14.7-24.3 14.7h-6.2l4.3-27.5c0.3-1.7 1.7-2.9 3.4-2.9h2.8c7.4 0 14.4 0 18 4.2 2.2 2.6 2.8 6.3 2 11.5"/>
<path class="st1" d="m477.9 37.9h-19.6c-1.7 0-3.1 1.2-3.4 2.9l-0.9 5.5-1.4-2c-4.2-6.2-13.7-8.2-23.2-8.2-21.7 0-40.2 16.4-43.8 39.5-1.9 11.5 0.8 22.5 7.3 30.1 6 7 14.5 10 24.7 10 17.5 0 27.2-11.2 27.2-11.2l-0.9 5.5c-0.3 2.1 1.3 4 3.4 4h17.7c2.8 0 5.2-2 5.6-4.8l10.6-67.2c0.4-2.2-1.2-4.1-3.3-4.1zm-27.3 38.2c-1.9 11.2-10.8 18.7-22.1 18.7-5.7 0-10.3-1.8-13.2-5.3-2.9-3.4-4-8.3-3.1-13.8 1.8-11.1 10.8-18.9 22-18.9 5.6 0 10.1 1.9 13.1 5.3 3 3.6 4.2 8.6 3.3 14"/>
<path class="st1" d="m501.1 2.9l-16.8 107c-0.3 2.1 1.3 3.9 3.4 3.9h16.9c2.8 0 5.2-2 5.6-4.8l16.5-105c0.3-2.1-1.3-3.9-3.4-3.9h-18.9c-1.6-0.1-3.1 1.1-3.3 2.8"/>
</svg>
