<svg id="Layer_1" data-name="Layer 1" xmlns="http://www.w3.org/2000/svg" viewBox="0 0 351.36 360"><defs><style>.cls-1{fill:#8c6728;}.cls-2{fill:#155e7d;}.cls-3{fill:#522868;}</style></defs><title>Untitled-1</title><path class="cls-1" d="M306.34,210.21c-1.9,3.21-3.62,5.83-5,8.62a7.86,7.86,0,0,0-.55,4c.62,6.76,1.62,13.5,2.06,20.27.71,11.1-4.19,18.18-14.83,21.34-5.61,1.66-11.38,2.79-17.13,3.89-2.36.46-3,1.5-3,3.77.1,6.2,0,12.41,0,18.62,0,1.34-.13,2.69-.19,4l-1.14.43c-1-1.68-2.66-3.26-3-5.06-1.16-7.13-2.18-14.31-2.73-21.51-.81-10.59-1.18-21.22-2.52-32-3,4.65-5.9,9.43-9.18,13.9-3.52,4.8-7.35,9.39-11.23,13.92-5.19,6.05-12.6,6.68-19.81,7.63a15.09,15.09,0,0,1-6.5-.4c1.38-.76,2.73-1.58,4.15-2.26,9.58-4.62,16.17-12.57,23-20.3,12.56-14.22,21.83-30.34,28.93-47.88,3.78-9.32,8.17-18.4,12.54-27.48,1.19-2.49.56-3.5-1.62-4.56-3-1.44-5.83-3.11-9.56-5.12,5.82-1.85,9.61.83,13.5,2.52,6.13-7.47,7.49-18.86,3-26.61-.66-1.13-2.6-1.65-4.05-2.17a21.79,21.79,0,0,0-3.89-.65c-.38.75-.65,2.29-1.47,2.68-3.78,1.8-3.65,5.44-4.94,8.63A181.57,181.57,0,0,1,262.39,166c-4.67,8.66-9.74,17.11-14.16,25.89-2.51,5-6.43,8.56-10.24,12.31-4.6,4.51-9.41,8.8-13.94,13.38-2.39,2.4-4.26,1.53-6.4-.15-2.58-2-1-3.56.45-5.23,3.6-4.29,7.17-8.62,11-13.28-4.21-2.36-8.19-4.48-12.07-6.78Q194,178.35,171,164.5c-3.45-2.08-5-5.53-6.46-9l.66-.63c2.47,2,4.81,4.21,7.43,6,10.1,6.9,21.55,10.15,33.54,11.5,1.27.15,3.32-1.56,4-2.92.8-1.53.71-3.65.62-5.49-.34-6.43,2.34-10.93,8-14a4.64,4.64,0,0,0,1.74-3.66,55.11,55.11,0,0,0-1.39-9.73c-.78-3.29.24-5.85,1.92-8.57a15.19,15.19,0,0,0,2.45-6.68c.67-11-1.78-20.89-12.36-26.7-6.67-3.65-14.18-3.93-21.54-4.24a76.72,76.72,0,0,0-13.29.63c-3.61.48-6.31,2.7-8.2,6-6,10.34-11.48,20.85-14.73,32.46a41.48,41.48,0,0,1,2.8-30.28,51.17,51.17,0,0,1,8-11.45c5.31-5.89,12-9.15,20.22-8.91,9.31.28,18.42,1.19,27.13,4.92,7.73,3.3,13.36,8.64,15.34,16.7A163.13,163.13,0,0,1,230.47,124c.22,2.3-1.29,5.1-2.73,7.16a13.66,13.66,0,0,0-2.44,9.26c.22,3.26.39,6.54.34,9.8,0,2.78-.47,5.47-4.08,6-.53.07-.95.85-1.34,1.21,4.79,5.52,11.33,6.38,17.75,7.47a3.09,3.09,0,0,0,2.45-.91c4.42-5.48,10.43-5.76,16.64-5.07,2.32.26,3.41-.48,4.22-2.56,1.15-2.93,2.83-5.66,3.84-8.63.65-1.88.47-4,.72-6.06.12-.93.21-2.58.58-2.66,5.13-1.12,3.16-5.07,3.41-8.13.1-1.15-.1-3.07.41-3.29a5.45,5.45,0,0,1,3.81.11,34.17,34.17,0,0,1,4.87,2.93c2.38-2.15,7.33-1.46,10.48,2.68,5,6.6,9,13.63,4,22.24-1.14,2-1.67,4.27-2.73,7.06,4.43.41,8.21,1,12,1.05,7.15.16,14.31,0,21.46,0,2.95,0,5.09-.52,6.36-4,1.75-4.8,5-8.71,10.24-10.45,6.07-2,10.59-.14,12.47,6,4.24,13.77,3.23,27.12-4.48,39.56-2.37,3.84-5.77,6.61-10.75,5.89-4.52-.66-7.19-3.6-8.75-7.71a10.86,10.86,0,0,1-1-3c-.19-4.56-3-6.36-7-7.36-9.4-2.33-18.75-4.84-28.6-7.41,3.52,3.37,6.76,5.93,9.26,9.06a16.35,16.35,0,0,1,2.72,7.14c.52,2.8,1.92,3.73,4.56,4.25,6.31,1.25,12.57,2.82,18.84,4.32a13.61,13.61,0,0,1,9.23,7c2,3.76,1.2,6.46-2.95,7.06a45.57,45.57,0,0,1-13.14-.14C316,213.08,311.1,211.42,306.34,210.21Zm-13.27,13.47c-9.55.94-17.95.58-25.41-4.22-2.52,2.92-2.94,5.74-1.92,9.27,2.63,9.13,4.4,18.42,2.95,28a37.37,37.37,0,0,0,0,5.31,61.43,61.43,0,0,0,21.63-6.57c3.45-1.8,5.69-4.93,5.4-8.82C295.12,239.06,294,231.47,293.07,223.68Zm-76.51-55.59c-1.25,2.19-1.91,4.69-3.54,5.94-4.21,3.23-4.34,5,.37,7.69,6.77,3.93,13.59,7.78,20.4,11.64a15.17,15.17,0,0,0,2.31.65c-4.14-8.24-2.36-16-.75-23.56C229.11,166.65,222.48,168.55,216.56,168.09ZM347,183.74c-1.31,1.2-2,2.29-2.83,2.48-1.27.3-3.25.51-4-.2-3.88-3.92-4.13-14.09-.7-18.45,1.78-2.26,3.77-3.84,7-1.55-1-2.1-2-4.29-3.68-5.06-1.11-.5-3.41.7-4.71,1.72a16.2,16.2,0,0,0-4,4.78c-3.06,5.49-1.83,11.1.06,16.63,1.05,3.07,2.5,6.31,6,6.61,3.3.28,4.75-2.93,6.32-5.39A8.85,8.85,0,0,0,347,183.74Zm-64.68,1.4c-.76.53-1,.62-1.12.8a66.79,66.79,0,0,0-7.56,26.32c-.06.85,1.35,1.8,2.07,2.71l.91-.57C278.49,204.83,280.35,195.26,282.33,185.14Zm-31.69-11.4c-6.75-2.82-8.27-2.67-10,5.09-.51,2.34-.08,4.88-.08,7.33l.89.19Zm78.63,35,.33-1.35-24.05-6c.58,1.5.71,2.65,1.12,2.76C314.12,206.1,321.45,208.8,329.27,208.75Zm-40,7.27c3.47.35,3.78,0,3.17-3.75-.46-2.86-.81-5.76-1.46-8.58-.22-1-1.18-1.76-1.8-2.63a10.25,10.25,0,0,0-.8,2.94C288.61,207.89,289,211.76,289.31,216ZM288,198.53c5.07-3.49,4.29-7.61-2.41-12.49C286.43,190.33,287.21,194.39,288,198.53Zm9.28-3.54-1.29-.06c-3.25,4.15,1,7.75.91,11.67l1.11-.07Q297.66,200.77,297.29,195Zm-41.85-29.47-6.44,1,.19,1.06C251.08,167.46,253.35,170,255.44,165.52Z" transform="translate(-4.32 0)"/><path class="cls-1" d="M145.92,253.11c-3.21-1.79-6.53-3.41-9.6-5.42C129.09,243,121.26,238.81,115,233c-8.23-7.63-12.79-17.8-14.53-29-1.14-7.41,1-13.7,7.31-17.78,7.35-4.76,15.11-8.88,22.72-13.23a20.91,20.91,0,0,1,4.48-2c7.84-2.28,11.83-7.92,13.82-15.43.76-2.89,2.23-4.92,5.78-3.73-.82,5.41-1.4,10.75-2.56,16-.38,1.72-2,3.4-3.53,4.57a114.43,114.43,0,0,1-11.18,7.9,29.19,29.19,0,0,1-8.52,3.71c-10.69,2.41-20.68,18.65-14.27,30.79,4.11,7.77,10.15,13.68,16.76,19.17,3.69,3.07,7.51,6,11,9.27,2.55,2.38,4.51,5.29,4.5,9Z" transform="translate(-4.32 0)"/><path class="cls-1" d="M150.49,195.23c5.53,2.5,10.91,5,16.34,7.36,11.38,5,22.8,9.83,34.16,14.81,1.25.55,2.74,1.34,3.3,2.43.78,1.54.79,3.47,1.14,5.23a17.91,17.91,0,0,1-4.24-.36c-15.06-4.91-29.71-10.82-43.44-18.8a52.06,52.06,0,0,1-6.73-5.05C149.28,199.4,149,197.6,150.49,195.23Z" transform="translate(-4.32 0)"/><path class="cls-2" d="M47.21,241.09,33.12,242,30,247.51l10.16,5.87-4,7L4.32,242l8.38-14.52c4.32-7.49,10.87-9.7,17.4-5.93l.09,0a11.39,11.39,0,0,1,5.92,12.49l15.81-1.21ZM26.37,228.88c-3-1.73-5.74-.53-7.7,2.87l-4,6.94L23.79,244l4.08-7.07c2-3.41,1.27-6.41-1.4-7.95Z" transform="translate(-4.32 0)"/><path class="cls-2" d="M53.72,229.81,22,211.48l4-7,31.75,18.34Z" transform="translate(-4.32 0)"/><path class="cls-2" d="M70.48,201.31l-3.56,6.17-39.4-5.63L32,194.13l27.17,4.62L41.56,177.53,45.91,170Z" transform="translate(-4.32 0)"/><path class="cls-2" d="M79,186,47.26,167.66l13.83-24,6.22,3.59-9.82,17L63.92,168l8.65-15,6.22,3.59-8.65,15,6.67,3.85,10-17.24L93,161.81Z" transform="translate(-4.32 0)"/><path class="cls-2" d="M106.22,138.88l-14.09.93L89,145.3l10.16,5.87-4,7L63.33,139.83l8.38-14.52c4.33-7.49,10.87-9.7,17.4-5.93l.09.05a11.38,11.38,0,0,1,5.92,12.49l15.82-1.21ZM85.38,126.67c-3-1.73-5.74-.53-7.7,2.87l-4,6.94,9.13,5.26,4.08-7.07c2-3.41,1.27-6.41-1.4-7.95Z" transform="translate(-4.32 0)"/><path class="cls-2" d="M128.06,102.32a18.52,18.52,0,0,1-25.74,6.86l-.09-.06a18.62,18.62,0,0,1-6.86-26c3.46-6,7.52-8.43,12.13-9.7l2.55,7.41c-3.63,1.16-6.43,2.87-8.27,6-3.09,5.35-.87,11.77,4.58,14.92l.09,0c5.44,3.15,12.15,2,15.3-3.44,2.09-3.63,1.92-6.7,1.09-10.5L129.9,86A18.74,18.74,0,0,1,128.06,102.32Z" transform="translate(-4.32 0)"/><path class="cls-2" d="M137,85.65,105.19,67.31l4-7L141,78.66Z" transform="translate(-4.32 0)"/><path class="cls-2" d="M127.08,44.3l25.31,14.62-4,7L123,51.29,117.46,61,111,57.23l15.19-26.31,6.45,3.72Z" transform="translate(-4.32 0)"/><path class="cls-2" d="M156.12,23.23l12.65,7.31-4,7-12.52-7.24-26.29,1.1,4.72-8.16L147.77,23,139.48,7.94,144.06,0Z" transform="translate(-4.32 0)"/><path class="cls-3" d="M61.88,276.3l-16.77-9.68,21.42-37.1L82.9,239c7.2,4.15,9.46,10.47,6.1,16.31l-.07.1a10,10,0,0,1-9.25,5.33c3.13,4,4.2,7.94,1.33,12.93l-.07.1C77,280.53,69.84,280.9,61.88,276.3Zm12-8.12c1.44-2.49.56-5-3.42-7.34l-9-5.18-4.71,8.17L66,269.15c3.42,2,6.22,1.89,7.82-.86Zm6.6-16c1.41-2.45.39-4.87-2.88-6.76L70,241l-4.53,7.85L72.58,253c3.42,2,6.26,2.07,7.85-.69Z" transform="translate(-4.32 0)"/><path class="cls-3" d="M102.87,300l-.7-16.24-6.09-3.51-6.85,11.87-7.76-4.48,21.42-37.11L119,259.81c8.32,4.8,10.64,12.28,6.23,19.92l-.06.11c-3.46,6-8.7,8-14.19,7.14l1,18.22Zm14.26-24.35c2-3.5.75-6.64-3-8.82l-7.7-4.45L100.25,273l7.85,4.53c3.78,2.18,7.16,1.31,9-1.82Z" transform="translate(-4.32 0)"/><path class="cls-3" d="M144.11,323.78l1.58-10.18L130.79,305l-8,6.47-7.91-4.57,36.69-28.65,7.14,4.12-6.46,46.1Zm5.24-33.73-11.63,9.33,9.37,5.41Z" transform="translate(-4.32 0)"/><path class="cls-3" d="M169.39,339.08a25.16,25.16,0,0,1-11.53-14.57l7.93-3.13c1.57,4.59,3.89,8.26,7.91,10.58,3.18,1.83,5.86,1.61,7.11-.56l.06-.11c1.19-2.06.6-3.82-4.37-8.81-6-6-9.39-10.72-5.13-18.09l.06-.11c3.89-6.73,11.59-8.22,18.79-4.06a22.84,22.84,0,0,1,10.37,12.27L193,316.32c-1.8-4.08-4.07-7.23-7.05-8.95s-5.35-1.19-6.39.62l-.07.1c-1.4,2.44-.35,4.11,4.79,9.27,6,6.09,8.49,11.12,4.76,17.59l-.06.1C184.72,342.42,177,343.47,169.39,339.08Z" transform="translate(-4.32 0)"/><path class="cls-3" d="M201.11,357.4a25.14,25.14,0,0,1-11.52-14.57l7.92-3.14c1.58,4.59,3.89,8.26,7.91,10.58,3.18,1.84,5.86,1.62,7.11-.56l.06-.1c1.2-2.07.6-3.83-4.37-8.82-6-6-9.39-10.72-5.14-18.09l.07-.1c3.88-6.74,11.59-8.23,18.79-4.07a22.82,22.82,0,0,1,10.37,12.28l-7.58,3.82c-1.81-4.08-4.08-7.23-7-8.95s-5.36-1.18-6.4.62l-.06.11c-1.41,2.44-.36,4.1,4.79,9.26,6,6.09,8.48,11.12,4.75,17.59l-.06.11C216.44,360.73,208.72,361.79,201.11,357.4Z" transform="translate(-4.32 0)"/></svg>